<svg width="270" height="63" viewBox="0 0 270 63" fill="none" xmlns="http://www.w3.org/2000/svg">
<g clip-path="url(#clip0_1477_3397)">
<path d="M76.9766 45.5235H94.7977V40.4489H82.4108V16.7539H76.9766V45.5235Z" fill="#777777"/>
<path d="M105.506 46.1236C107.664 46.1236 109.562 45.644 111.2 44.685C112.852 43.7127 114.137 42.3742 115.056 40.6694C115.988 38.9511 116.455 36.9732 116.455 34.7357C116.455 32.5113 115.995 30.5468 115.076 28.8418C114.157 27.1237 112.872 25.7784 111.22 24.8061C109.582 23.8338 107.677 23.3477 105.506 23.3477C103.375 23.3477 101.49 23.8272 99.8521 24.7862C98.2139 25.7452 96.9286 27.0837 95.9962 28.802C95.0639 30.5067 94.5977 32.4846 94.5977 34.7357C94.5977 36.9599 95.0505 38.9312 95.9563 40.6493C96.8752 42.3542 98.154 43.6928 99.7922 44.6651C101.431 45.6374 103.335 46.1236 105.506 46.1236ZM105.506 41.049C103.815 41.049 102.529 40.4829 101.65 39.3508C100.784 38.2053 100.352 36.667 100.352 34.7357C100.352 32.8576 100.764 31.3392 101.59 30.1804C102.429 29.0084 103.735 28.4222 105.506 28.4222C107.224 28.4222 108.516 28.9951 109.382 30.1405C110.261 31.286 110.701 32.8176 110.701 34.7357C110.701 36.5871 110.268 38.1054 109.402 39.2908C108.55 40.4628 107.251 41.049 105.506 41.049Z" fill="#777777"/>
<path d="M127.199 46.1236C128.212 46.1236 129.144 46.0036 129.997 45.7639C130.862 45.5242 131.648 45.1845 132.354 44.745V46.9227C132.381 47.7219 132.174 48.3878 131.735 48.9206C131.308 49.4667 130.736 49.873 130.016 50.1393C129.297 50.4191 128.531 50.5589 127.719 50.5589C126.96 50.5589 126.254 50.3924 125.601 50.0594C124.962 49.7265 124.469 49.2403 124.123 48.601L119.088 51.0384C119.914 52.4369 121.092 53.5624 122.624 54.4148C124.156 55.2805 125.841 55.7134 127.679 55.7134C129.264 55.7134 130.736 55.5003 132.094 55.0741C133.453 54.6612 134.598 54.0286 135.531 53.1761C136.476 52.3237 137.122 51.2382 137.469 49.9196C137.588 49.4534 137.668 48.9805 137.708 48.501C137.762 48.0349 137.788 47.5354 137.788 47.0026V23.947H133.033V25.1458C132.301 24.573 131.468 24.1335 130.536 23.8272C129.617 23.5075 128.598 23.3477 127.479 23.3477C125.415 23.3477 123.617 23.8406 122.085 24.8261C120.553 25.8117 119.361 27.1636 118.509 28.8819C117.669 30.5866 117.25 32.538 117.25 34.7357C117.25 36.8933 117.663 38.8312 118.489 40.5495C119.328 42.2676 120.493 43.6262 121.985 44.6252C123.477 45.6241 125.215 46.1236 127.199 46.1236ZM128.078 41.2887C126.906 41.2887 125.947 40.9956 125.201 40.4096C124.456 39.8236 123.903 39.0378 123.543 38.0521C123.184 37.0531 123.004 35.9477 123.004 34.7357C123.004 33.5369 123.19 32.4448 123.563 31.4591C123.936 30.4601 124.509 29.6677 125.281 29.0815C126.067 28.4822 127.066 28.1825 128.278 28.1825C129.983 28.1825 131.202 28.7886 131.934 30.0006C132.667 31.1993 133.033 32.7777 133.033 34.7357C133.033 36.6935 132.66 38.2785 131.914 39.4905C131.182 40.6893 129.903 41.2887 128.078 41.2887Z" fill="#777777"/>
<path d="M150.698 46.1236C152.855 46.1236 154.753 45.644 156.392 44.685C158.043 43.7127 159.328 42.3742 160.247 40.6694C161.179 38.9511 161.645 36.9732 161.645 34.7357C161.645 32.5113 161.187 30.5468 160.267 28.8418C159.349 27.1237 158.063 25.7784 156.411 24.8061C154.773 23.8338 152.869 23.3477 150.698 23.3477C148.566 23.3477 146.682 23.8272 145.044 24.7862C143.405 25.7452 142.12 27.0837 141.188 28.802C140.255 30.5067 139.789 32.4846 139.789 34.7357C139.789 36.9599 140.242 38.9312 141.148 40.6493C142.067 42.3542 143.345 43.6928 144.984 44.6651C146.622 45.6374 148.527 46.1236 150.698 46.1236ZM150.698 41.049C149.006 41.049 147.721 40.4829 146.842 39.3508C145.976 38.2053 145.543 36.667 145.543 34.7357C145.543 32.8576 145.956 31.3392 146.782 30.1804C147.621 29.0084 148.926 28.4222 150.698 28.4222C152.416 28.4222 153.708 28.9951 154.573 30.1405C155.453 31.286 155.892 32.8176 155.892 34.7357C155.892 36.5871 155.459 38.1054 154.593 39.2908C153.741 40.4628 152.442 41.049 150.698 41.049Z" fill="#777777"/>
<path d="M164.039 20.9492H169.474V16.1543H164.039V20.9492ZM164.039 45.5232H169.474V23.946H164.039V45.5232Z" fill="#777777"/>
<path d="M173.027 55.1141H178.501V44.745C179.208 45.1845 179.986 45.5242 180.839 45.7639C181.705 46.0036 182.644 46.1236 183.656 46.1236C185.64 46.1236 187.38 45.6241 188.871 44.6252C190.362 43.6262 191.521 42.2676 192.346 40.5495C193.186 38.8312 193.605 36.8933 193.605 34.7357C193.605 32.538 193.18 30.5866 192.328 28.8819C191.488 27.1636 190.303 25.8117 188.771 24.8261C187.238 23.8406 185.441 23.3477 183.377 23.3477C182.258 23.3477 181.233 23.5075 180.3 23.8272C179.38 24.1335 178.554 24.573 177.823 25.1458V23.947H173.027V55.1141ZM182.777 41.2887C180.966 41.2887 179.688 40.6893 178.941 39.4905C178.195 38.2785 177.823 36.6935 177.823 34.7357C177.823 32.7777 178.189 31.1993 178.922 30.0006C179.667 28.7886 180.886 28.1825 182.578 28.1825C183.79 28.1825 184.782 28.4822 185.554 29.0815C186.341 29.6677 186.92 30.4601 187.292 31.4591C187.665 32.4448 187.852 33.5369 187.852 34.7357C187.852 35.9477 187.672 37.0531 187.312 38.0521C186.953 39.0378 186.4 39.8236 185.655 40.4096C184.909 40.9956 183.95 41.2887 182.777 41.2887Z" fill="#777777"/>
<path d="M203.451 46.1236C206.273 46.1236 208.485 45.491 210.083 44.2256C211.681 42.9602 212.48 41.2221 212.48 39.0111C212.48 37.3329 211.961 36.0077 210.923 35.0354C209.896 34.063 208.152 33.2571 205.688 32.6179C204.01 32.1916 202.757 31.8453 201.931 31.5789C201.12 31.3127 200.58 31.0529 200.313 30.7998C200.06 30.5468 199.935 30.2338 199.935 29.8608C199.935 29.2348 200.233 28.7553 200.832 28.4222C201.446 28.0893 202.252 27.9562 203.25 28.0227C205.368 28.1825 206.528 29.0883 206.727 30.7398L212.281 29.7408C212.001 27.783 211.042 26.2313 209.403 25.0859C207.766 23.9271 205.675 23.3477 203.131 23.3477C200.52 23.3477 198.435 23.9603 196.877 25.1857C195.319 26.4111 194.539 28.0626 194.539 30.1405C194.539 31.7921 195.079 33.0973 196.158 34.0563C197.236 35.0021 199.095 35.8144 201.732 36.4938C203.291 36.9067 204.435 37.2396 205.168 37.4927C205.914 37.7457 206.394 38.0055 206.606 38.2719C206.82 38.525 206.926 38.8647 206.926 39.2908C206.926 39.9701 206.659 40.5029 206.127 40.8892C205.595 41.262 204.835 41.4485 203.85 41.4485C202.65 41.4485 201.658 41.1622 200.873 40.5894C200.101 40.0167 199.6 39.2243 199.374 38.2119L193.82 39.051C194.18 41.302 195.192 43.0468 196.858 44.2855C198.536 45.5109 200.734 46.1236 203.451 46.1236Z" fill="#777777"/>
<path d="M222.505 46.1619C224.064 46.1619 225.422 45.9021 226.582 45.3827C227.741 44.8632 228.712 44.1707 229.499 43.3049V45.5226H234.293V23.9453H228.819V34.8938C228.819 36.2258 228.665 37.3045 228.359 38.1304C228.067 38.9429 227.687 39.5621 227.221 39.9883C226.755 40.4013 226.256 40.6809 225.722 40.8275C225.19 40.974 224.691 41.0473 224.224 41.0473C223.066 41.0473 222.166 40.7875 221.527 40.2681C220.901 39.7486 220.447 39.1027 220.168 38.3302C219.889 37.5575 219.722 36.7918 219.669 36.0325C219.615 35.26 219.589 34.6274 219.589 34.1345V23.9453H214.074V36.0526C214.074 36.4121 214.101 36.9849 214.154 37.7707C214.208 38.5566 214.361 39.429 214.614 40.388C214.867 41.3336 215.286 42.246 215.873 43.125C216.473 44.0041 217.305 44.73 218.371 45.3028C219.435 45.8754 220.815 46.1619 222.505 46.1619Z" fill="#777777"/>
<path d="M237.441 45.5225H242.915V32.4562C242.915 31.2176 243.254 30.212 243.934 29.4394C244.626 28.6536 245.538 28.2607 246.672 28.2607C247.857 28.2607 248.783 28.6603 249.449 29.4595C250.127 30.2453 250.467 31.3508 250.467 32.7759V45.5225H255.902V32.4562C255.902 31.2176 256.241 30.212 256.921 29.4394C257.613 28.6536 258.525 28.2607 259.657 28.2607C260.844 28.2607 261.768 28.6603 262.434 29.4595C263.113 30.2453 263.454 31.3508 263.454 32.7759V45.5225H268.887V31.3374C268.887 28.9799 268.254 27.0753 266.989 25.6235C265.738 24.1584 263.879 23.4258 261.415 23.4258C260.03 23.4258 258.759 23.7254 257.599 24.3248C256.44 24.9243 255.516 25.7434 254.822 26.7823C254.263 25.7701 253.464 24.9576 252.425 24.3449C251.386 23.7322 250.094 23.4258 248.549 23.4258C247.243 23.4258 246.045 23.6856 244.953 24.205C243.86 24.7111 242.954 25.4104 242.235 26.3027V23.9452H237.441V45.5225Z" fill="#777777"/>
<path d="M31.3953 0C14.0562 0 0 14.0562 0 31.3953C17.3392 31.3953 31.3953 17.3392 31.3953 0Z" fill="#DDDDDD"/>
<path d="M31.3945 62.7899C48.7337 62.7899 62.7899 48.7337 62.7899 31.3945C45.4507 31.3945 31.3945 45.4507 31.3945 62.7899Z" fill="#DDDDDD"/>
<path d="M31.3945 0C48.7337 0 62.7899 14.0562 62.7899 31.3953C45.4507 31.3953 31.3945 17.3392 31.3945 0Z" fill="#777777"/>
<path d="M31.3953 62.7899C14.0562 62.7899 -1.51584e-06 48.7337 0 31.3945C17.3392 31.3945 31.3953 45.4507 31.3953 62.7899Z" fill="#777777"/>
</g>
<defs>
<clipPath id="clip0_1477_3397">
<rect width="270" height="62.7907" fill="white"/>
</clipPath>
</defs>
</svg>
