<svg width="270" height="48" viewBox="0 0 270 48" fill="none" xmlns="http://www.w3.org/2000/svg">
<path d="M40.5913 36.2827H54.6086L19.8847 1.55859H5.86719L40.5913 36.2827Z" fill="#DDDDDD"/>
<path d="M27.0859 1.5586L60.5593 35.0319V1.55859H51.5008V12.1268L40.9326 1.55859L27.0859 1.5586Z" fill="#777777"/>
<path d="M0 2.7207V36.2822H9.05845V25.7139L19.6265 36.2822H33.5615L0 2.7207Z" fill="#777777"/>
<path d="M82.4186 31.0614H90.5349V35.8442H76.2227V10.4082H82.4186V31.0614Z" fill="#777777"/>
<path d="M101.607 36.1342C99.6264 36.1342 97.8388 35.7115 96.2445 34.8659C94.6743 34.0204 93.4304 32.8126 92.5124 31.2426C91.6188 29.6724 91.1719 27.8366 91.1719 25.735C91.1719 23.6577 91.6307 21.8338 92.5487 20.2638C93.4667 18.6694 94.7227 17.4496 96.3169 16.6041C97.9113 15.7587 99.6988 15.3359 101.68 15.3359C103.66 15.3359 105.448 15.7587 107.042 16.6041C108.636 17.4496 109.893 18.6694 110.811 20.2638C111.729 21.8338 112.187 23.6577 112.187 25.735C112.187 27.8124 111.716 29.6482 110.774 31.2426C109.856 32.8126 108.588 34.0204 106.97 34.8659C105.375 35.7115 103.588 36.1342 101.607 36.1342ZM101.607 30.7715C102.791 30.7715 103.793 30.3367 104.615 29.4671C105.46 28.5975 105.883 27.3535 105.883 25.735C105.883 24.1165 105.472 22.8726 104.651 22.003C103.854 21.1334 102.863 20.6986 101.68 20.6986C100.472 20.6986 99.4693 21.1334 98.6723 22.003C97.8751 22.8484 97.4765 24.0925 97.4765 25.735C97.4765 27.3535 97.863 28.5975 98.636 29.4671C99.4332 30.3367 100.424 30.7715 101.607 30.7715Z" fill="#777777"/>
<path d="M122.07 15.3359C123.495 15.3359 124.739 15.6258 125.802 16.2055C126.889 16.7853 127.722 17.5462 128.302 18.4883V15.6258H134.498V35.8081C134.498 37.6681 134.123 39.3468 133.375 40.8444C132.65 42.3663 131.527 43.5741 130.005 44.4679C128.507 45.3617 126.635 45.8086 124.389 45.8086C121.393 45.8086 118.966 45.0959 117.106 43.6707C115.246 42.2696 114.183 40.3614 113.917 37.9458H120.041C120.234 38.7188 120.693 39.3226 121.418 39.7574C122.142 40.2164 123.036 40.4459 124.099 40.4459C125.379 40.4459 126.394 40.0716 127.143 39.3226C127.915 38.598 128.302 37.4265 128.302 35.8081V32.9455C127.698 33.8875 126.865 34.6606 125.802 35.2645C124.739 35.8442 123.495 36.1342 122.07 36.1342C120.403 36.1342 118.893 35.7115 117.541 34.8659C116.188 33.9963 115.113 32.7765 114.316 31.2063C113.543 29.6121 113.156 27.7763 113.156 25.6988C113.156 23.6214 113.543 21.7977 114.316 20.2275C115.113 18.6574 116.188 17.4496 117.541 16.6041C118.893 15.7587 120.403 15.3359 122.07 15.3359ZM128.302 25.735C128.302 24.1891 127.867 22.9692 126.998 22.0754C126.152 21.1816 125.113 20.7347 123.882 20.7347C122.65 20.7347 121.599 21.1816 120.729 22.0754C119.884 22.945 119.461 24.1528 119.461 25.6988C119.461 27.2448 119.884 28.4767 120.729 29.3947C121.599 30.2885 122.65 30.7352 123.882 30.7352C125.113 30.7352 126.152 30.2885 126.998 29.3947C127.867 28.5009 128.302 27.281 128.302 25.735Z" fill="#777777"/>
<path d="M147.095 36.1342C145.115 36.1342 143.327 35.7115 141.733 34.8659C140.163 34.0204 138.919 32.8126 138.001 31.2426C137.107 29.6724 136.66 27.8366 136.66 25.735C136.66 23.6577 137.119 21.8338 138.037 20.2638C138.955 18.6694 140.211 17.4496 141.805 16.6041C143.4 15.7587 145.187 15.3359 147.168 15.3359C149.149 15.3359 150.936 15.7587 152.531 16.6041C154.125 17.4496 155.381 18.6694 156.299 20.2638C157.217 21.8338 157.676 23.6577 157.676 25.735C157.676 27.8124 157.205 29.6482 156.263 31.2426C155.345 32.8126 154.077 34.0204 152.458 34.8659C150.864 35.7115 149.076 36.1342 147.095 36.1342ZM147.095 30.7715C148.279 30.7715 149.282 30.3367 150.103 29.4671C150.948 28.5975 151.371 27.3535 151.371 25.735C151.371 24.1165 150.961 22.8726 150.139 22.003C149.342 21.1334 148.352 20.6986 147.168 20.6986C145.96 20.6986 144.958 21.1334 144.161 22.003C143.363 22.8484 142.965 24.0925 142.965 25.735C142.965 27.3535 143.351 28.5975 144.124 29.4671C144.921 30.3367 145.912 30.7715 147.095 30.7715Z" fill="#777777"/>
<path d="M162.993 13.5236C161.906 13.5236 161.012 13.2095 160.311 12.5815C159.635 11.9293 159.297 11.1321 159.297 10.1901C159.297 9.22382 159.635 8.42667 160.311 7.79862C161.012 7.14642 161.906 6.82031 162.993 6.82031C164.056 6.82031 164.925 7.14642 165.602 7.79862C166.302 8.42667 166.652 9.22382 166.652 10.1901C166.652 11.1321 166.302 11.9293 165.602 12.5815C164.925 13.2095 164.056 13.5236 162.993 13.5236ZM166.072 15.6251V35.8435H159.877V15.6251H166.072Z" fill="#777777"/>
<path d="M175.672 18.4883C176.277 17.5462 177.11 16.7853 178.172 16.2055C179.235 15.6258 180.48 15.3359 181.905 15.3359C183.572 15.3359 185.082 15.7587 186.434 16.6041C187.787 17.4496 188.85 18.6574 189.623 20.2275C190.42 21.7977 190.818 23.6214 190.818 25.6988C190.818 27.7763 190.42 29.6121 189.623 31.2063C188.85 32.7765 187.787 33.9963 186.434 34.8659C185.082 35.7115 183.572 36.1342 181.905 36.1342C180.504 36.1342 179.259 35.8442 178.172 35.2645C177.11 34.6848 176.277 33.9359 175.672 33.0179V45.4825H169.477V15.6258H175.672V18.4883ZM184.514 25.6988C184.514 24.1528 184.079 22.945 183.209 22.0754C182.364 21.1816 181.312 20.7347 180.057 20.7347C178.825 20.7347 177.774 21.1816 176.905 22.0754C176.06 22.9692 175.637 24.1891 175.637 25.735C175.637 27.281 176.06 28.5009 176.905 29.3947C177.774 30.2885 178.825 30.7352 180.057 30.7352C181.29 30.7352 182.34 30.2885 183.209 29.3947C184.079 28.4767 184.514 27.2448 184.514 25.6988Z" fill="#777777"/>
<path d="M201.206 36.1342C199.442 36.1342 197.873 35.8322 196.497 35.2283C195.119 34.6244 194.032 33.803 193.236 32.7644C192.438 31.7016 191.991 30.5178 191.895 29.2134H198.019C198.091 29.914 198.417 30.4817 198.997 30.9165C199.576 31.3513 200.289 31.5687 201.134 31.5687C201.907 31.5687 202.498 31.4237 202.91 31.1339C203.345 30.8199 203.562 30.4212 203.562 29.9382C203.562 29.3584 203.259 28.9357 202.656 28.6699C202.051 28.3801 201.073 28.0661 199.721 27.7279C198.271 27.3897 197.063 27.0394 196.097 26.6771C195.131 26.2906 194.298 25.6988 193.597 24.9016C192.897 24.0804 192.547 22.9813 192.547 21.6043C192.547 20.4449 192.861 19.3942 193.488 18.452C194.14 17.4858 195.084 16.7249 196.314 16.1693C197.572 15.6137 199.057 15.3359 200.771 15.3359C203.308 15.3359 205.302 15.964 206.75 17.2201C208.224 18.4762 209.069 20.143 209.287 22.2204H203.562C203.464 21.5198 203.15 20.9642 202.619 20.5536C202.112 20.143 201.436 19.9377 200.591 19.9377C199.867 19.9377 199.311 20.0825 198.923 20.3725C198.538 20.6381 198.345 21.0126 198.345 21.4956C198.345 22.0754 198.646 22.5102 199.249 22.8C199.877 23.09 200.845 23.3798 202.149 23.6696C203.647 24.0562 204.867 24.4426 205.808 24.8292C206.75 25.1914 207.572 25.7954 208.272 26.6409C208.997 27.4622 209.371 28.5733 209.395 29.9743C209.395 31.1581 209.057 32.2209 208.38 33.1629C207.728 34.0809 206.774 34.8055 205.519 35.337C204.286 35.8684 202.849 36.1342 201.206 36.1342Z" fill="#777777"/>
<path d="M232.063 15.625V35.8434H225.867V33.0897C225.239 33.9835 224.382 34.7081 223.295 35.2637C222.232 35.7952 221.049 36.0608 219.744 36.0608C218.198 36.0608 216.832 35.7227 215.649 35.0463C214.465 34.3457 213.548 33.3432 212.896 32.0388C212.244 30.7344 211.918 29.2007 211.918 27.4373V15.625H218.077V26.6038C218.077 27.9566 218.428 29.0073 219.127 29.7561C219.829 30.5051 220.77 30.8794 221.954 30.8794C223.162 30.8794 224.115 30.5051 224.817 29.7561C225.518 29.0073 225.867 27.9566 225.867 26.6038V15.625H232.063Z" fill="#777777"/>
<path d="M261.227 15.4082C263.739 15.4082 265.733 16.1691 267.206 17.6909C268.705 19.2127 269.453 21.3264 269.453 24.0318V35.844H263.292V24.8651C263.292 23.5607 262.943 22.5584 262.242 21.8578C261.565 21.1332 260.624 20.7708 259.416 20.7708C258.208 20.7708 257.254 21.1332 256.553 21.8578C255.878 22.5584 255.539 23.5607 255.539 24.8651V35.844H249.379V24.8651C249.379 23.5607 249.03 22.5584 248.328 21.8578C247.652 21.1332 246.71 20.7708 245.502 20.7708C244.294 20.7708 243.34 21.1332 242.639 21.8578C241.964 22.5584 241.626 23.5607 241.626 24.8651V35.844H235.43V15.6256H241.626V18.162C242.253 17.3165 243.074 16.6522 244.089 16.1691C245.104 15.6618 246.251 15.4082 247.531 15.4082C249.052 15.4082 250.406 15.7343 251.589 16.3865C252.797 17.0387 253.739 17.9688 254.416 19.1766C255.117 18.0654 256.071 17.1595 257.279 16.459C258.487 15.7585 259.803 15.4082 261.227 15.4082Z" fill="#777777"/>
</svg>
