<svg width="270" height="58" viewBox="0 0 270 58" fill="none" xmlns="http://www.w3.org/2000/svg">
<path d="M43.2348 25.7864C42.5039 26.5218 41.9442 27.4093 41.5955 28.3856C41.2468 29.362 41.1178 30.4032 41.2175 31.4352L41.1828 31.4005C41.2854 32.6153 41.1215 33.8376 40.7028 34.9826C40.2841 36.1274 39.6206 37.1671 38.7588 38.0292C37.8967 38.8911 36.857 39.5547 35.712 39.9732C34.5672 40.3919 33.3447 40.5558 32.1301 40.4532L32.1648 40.4879C30.7118 40.3527 29.2524 40.6688 27.9856 41.3934C26.7189 42.118 25.7064 43.2155 25.0863 44.5366C24.4663 45.8577 24.2686 47.3376 24.5205 48.7752C24.7726 50.2126 25.4616 51.5373 26.494 52.5687C27.5264 53.6001 28.8517 54.288 30.2892 54.5385C31.727 54.7893 33.2068 54.5902 34.5273 53.969C35.8478 53.3477 36.9444 52.3344 37.6678 51.0669C38.3912 49.7995 38.7061 48.3399 38.5696 46.8869L38.6062 46.9217C38.5036 45.707 38.6673 44.4845 39.086 43.3395C39.5047 42.1947 40.1684 41.155 41.0302 40.293C41.8923 39.4311 42.932 38.7675 44.0768 38.349C45.2218 37.9303 46.4441 37.7663 47.6589 37.8689L47.6223 37.8342C48.8091 37.9409 50.0039 37.7463 51.0956 37.2684C52.1872 36.7905 53.1407 36.0447 53.8674 35.1003C54.5941 34.1559 55.0708 33.0431 55.2529 31.8655C55.4351 30.6877 55.3171 29.4831 54.9098 28.363C54.5025 27.2431 53.819 26.2441 52.9228 25.4586C52.0266 24.6731 50.9466 24.1265 49.7829 23.8696C48.6192 23.6127 47.4094 23.6536 46.2657 23.9886C45.1221 24.3238 44.0816 24.9421 43.2406 25.7864H43.2348Z" fill="#777777"/>
<path d="M29.0105 35.9403L28.9739 35.9056C30.0062 36.0095 31.0488 35.8828 32.0264 35.5345C33.0038 35.1862 33.8917 34.6252 34.6257 33.8917C35.3595 33.1583 35.9215 32.2708 36.2704 31.2936C36.6195 30.3164 36.747 29.274 36.6438 28.2414L36.6804 28.2761C36.5778 27.0613 36.7418 25.839 37.1603 24.694C37.5789 23.5492 38.2426 22.5095 39.1044 21.6474C39.9665 20.7856 41.0062 20.1219 42.151 19.7034C43.296 19.2847 44.5183 19.1209 45.7331 19.2234L45.6965 19.1887C47.1497 19.3252 48.6094 19.01 49.8769 18.2863C51.1445 17.5626 52.1578 16.4655 52.7788 15.1447C53.3998 13.8239 53.5982 12.3436 53.3471 10.9059C53.096 9.4681 52.4075 8.14283 51.3754 7.11077C50.3434 6.07874 49.0181 5.39016 47.5803 5.13902C46.1426 4.88786 44.6624 5.08633 43.3415 5.70737C42.0206 6.32839 40.9237 7.34176 40.1999 8.60924C39.4761 9.87669 39.161 11.3366 39.2975 12.7897L39.2628 12.7531C39.3656 13.9678 39.202 15.1904 38.7835 16.3355C38.365 17.4805 37.7014 18.5204 36.8395 19.3825C35.9775 20.2444 34.9376 20.908 33.7926 21.3265C32.6474 21.745 31.4249 21.9086 30.2101 21.8058L30.2448 21.8424C29.2124 21.7385 28.1696 21.8652 27.1922 22.2135C26.2148 22.5616 25.3269 23.1228 24.5929 23.8562C23.8589 24.5897 23.2971 25.4772 22.948 26.4544C22.5992 27.4316 22.4717 28.474 22.5749 29.5066L22.5401 29.4718C22.6424 30.6865 22.4782 31.9088 22.0595 33.0536C21.6407 34.1982 20.9772 35.2379 20.1153 36.0998C19.2534 36.9616 18.2138 37.6251 17.0691 38.044C15.9244 38.4627 14.7021 38.6268 13.4874 38.5246L13.5221 38.5593C12.069 38.4227 10.6091 38.7379 9.34165 39.4617C8.0742 40.1854 7.06083 41.2824 6.43981 42.6033C5.81877 43.9242 5.62028 45.4044 5.87144 46.8421C6.1226 48.2799 6.81117 49.6052 7.84321 50.6371C8.87527 51.6693 10.2005 52.3578 11.6383 52.6089C13.0761 52.86 14.5563 52.6616 15.8771 52.0406C17.1979 51.4196 18.295 50.4063 19.0188 49.1388C19.7426 47.8712 20.0577 46.4115 19.9211 44.9583L19.9578 44.993C19.8552 43.7782 20.0191 42.5559 20.4378 41.4109C20.8563 40.2661 21.5199 39.2264 22.3818 38.3643C23.2439 37.5024 24.2836 36.8388 25.4284 36.4203C26.5734 36.0016 27.7957 35.8377 29.0105 35.9403Z" fill="#DDDDDD"/>
<path d="M16.0841 32.0701C16.8151 31.3349 17.3747 30.4474 17.7231 29.471C18.0715 28.4945 18.2 27.4531 18.0995 26.4213L18.1361 26.456C18.0335 25.241 18.1974 24.0181 18.6163 22.8729C19.0352 21.7277 19.699 20.6879 20.5615 19.8258C21.424 18.9638 22.464 18.3003 23.6094 17.8819C24.7548 17.4635 25.9777 17.3002 27.1927 17.4033L27.1561 17.3686C28.6087 17.5047 30.068 17.1894 31.3349 16.4657C32.6018 15.7421 33.6145 14.6452 34.2353 13.3248C34.8559 12.0044 35.0541 10.5247 34.803 9.08748C34.5519 7.65026 33.8634 6.32548 32.8319 5.29381C31.8003 4.26214 30.4753 3.5738 29.0382 3.32266C27.601 3.0715 26.1212 3.26979 24.8009 3.89045C23.4804 4.5111 22.3836 5.52393 21.66 6.79081C20.9362 8.05769 20.6209 9.51696 20.7571 10.9696L20.7223 10.9349C20.8249 12.1496 20.661 13.3721 20.2423 14.5169C19.8236 15.6618 19.1602 16.7015 18.2983 17.5635C17.4363 18.4255 16.3965 19.089 15.2517 19.5076C14.1068 19.9263 12.8843 20.0902 11.6696 19.9876L11.7043 20.0223C10.5174 19.9159 9.32287 20.1108 8.23134 20.5889C7.13981 21.067 6.18661 21.813 5.4601 22.7576C4.73359 23.702 4.25727 24.8148 4.07525 25.9924C3.89325 27.1702 4.01145 28.3748 4.4189 29.4945C4.82635 30.6144 5.50989 31.6132 6.40616 32.3985C7.30242 33.184 8.38242 33.7304 9.54609 33.9873C10.7097 34.244 11.9194 34.2029 13.063 33.8679C14.2065 33.5327 15.247 32.9144 16.088 32.0701H16.0841Z" fill="#777777"/>
<path d="M75.8242 12.834H81.5521V40.7076H75.8242V12.834Z" fill="#777777"/>
<path d="M84.7971 31.1636C84.7892 29.1606 85.3759 27.2 86.4829 25.5306C87.5899 23.8613 89.1675 22.5579 91.0158 21.7859C92.8642 21.0137 94.9 20.8076 96.8656 21.1935C98.8312 21.5794 100.638 22.5398 102.057 23.9534C103.477 25.3669 104.444 27.1699 104.838 29.134C105.232 31.098 105.034 33.1348 104.269 34.9862C103.504 36.8375 102.208 38.4204 100.543 39.534C98.8775 40.6477 96.9196 41.2423 94.9164 41.2423C93.5868 41.2576 92.2675 41.0074 91.0355 40.5068C89.8035 40.0061 88.6838 39.2649 87.7417 38.3267C86.7994 37.3883 86.0538 36.2714 85.5483 35.0416C85.0427 33.8117 84.7873 32.4934 84.7971 31.1636ZM99.3077 31.1636C99.2838 30.3002 99.0059 29.463 98.5089 28.7566C98.0117 28.0503 97.3174 27.5061 96.5128 27.1923C95.708 26.8783 94.8288 26.8085 93.9847 26.9917C93.1405 27.1749 92.3691 27.6027 91.7668 28.222C91.1647 28.841 90.7582 29.624 90.5987 30.473C90.439 31.3217 90.5329 32.1989 90.8691 32.9946C91.2052 33.7903 91.7684 34.4692 92.4881 34.9465C93.208 35.4238 94.0527 35.6784 94.9164 35.6784C95.5079 35.6942 96.0963 35.5872 96.6446 35.3642C97.1927 35.1413 97.6887 34.8073 98.1012 34.3832C98.5137 33.9589 98.8341 33.4538 99.0416 32.8997C99.2493 32.3456 99.3399 31.7545 99.3077 31.1636Z" fill="#777777"/>
<path d="M127.864 21.6181V39.7467C127.864 46.1611 122.861 48.8727 117.784 48.8727C115.996 49.0065 114.205 48.6453 112.609 47.8289C111.013 47.0124 109.673 45.7721 108.735 44.2441L113.622 41.4188C114.016 42.2153 114.644 42.8723 115.422 43.3022C116.2 43.7319 117.09 43.9139 117.974 43.8237C118.54 43.902 119.115 43.8522 119.658 43.6781C120.201 43.5039 120.699 43.2098 121.113 42.8177C121.527 42.4255 121.848 41.9453 122.051 41.4122C122.255 40.8793 122.336 40.3075 122.289 39.739V37.9936C121.618 38.8142 120.764 39.4663 119.796 39.8973C118.828 40.3283 117.772 40.5264 116.713 40.4757C114.194 40.3962 111.805 39.3398 110.051 37.5296C108.297 35.7196 107.316 33.2981 107.316 30.7779C107.316 28.2576 108.297 25.8361 110.051 24.0261C111.805 22.216 114.194 21.1595 116.713 21.08C117.772 21.0293 118.828 21.2274 119.796 21.6584C120.764 22.0895 121.618 22.7415 122.289 23.5621V21.6143L127.864 21.6181ZM122.291 30.7808C122.329 29.8577 122.09 28.9442 121.605 28.1579C121.12 27.3714 120.411 26.7483 119.569 26.3686C118.727 25.9886 117.79 25.8696 116.88 26.0266C115.969 26.1836 115.127 26.6094 114.46 27.2495C113.794 27.8894 113.334 28.7141 113.14 29.6174C112.947 30.5208 113.028 31.4615 113.373 32.3184C113.719 33.1753 114.313 33.9093 115.079 34.4258C115.845 34.9422 116.748 35.2176 117.672 35.2165C118.274 35.2585 118.877 35.174 119.445 34.9685C120.012 34.7629 120.53 34.4406 120.965 34.0229C121.4 33.605 121.743 33.1006 121.971 32.5421C122.199 31.9838 122.308 31.3838 122.291 30.7808Z" fill="#777777"/>
<path d="M131.11 31.1636C131.102 29.1606 131.688 27.2 132.795 25.5306C133.902 23.8613 135.48 22.5579 137.328 21.7859C139.177 21.0137 141.212 20.8076 143.178 21.1935C145.144 21.5794 146.951 22.5398 148.37 23.9534C149.789 25.3669 150.757 27.1699 151.151 29.134C151.544 31.098 151.346 33.1348 150.582 34.9862C149.817 36.8375 148.52 38.4204 146.855 39.534C145.19 40.6477 143.232 41.2423 141.229 41.2423C139.899 41.2576 138.58 41.0074 137.348 40.5068C136.116 40.0061 134.996 39.2649 134.054 38.3267C133.112 37.3883 132.366 36.2714 131.861 35.0416C131.355 33.8117 131.1 32.4934 131.11 31.1636ZM145.62 31.1636C145.596 30.3002 145.318 29.463 144.821 28.7566C144.324 28.0503 143.63 27.5061 142.825 27.1923C142.021 26.8783 141.141 26.8085 140.297 26.9917C139.453 27.1749 138.682 27.6027 138.079 28.222C137.477 28.841 137.071 29.624 136.911 30.473C136.751 31.3217 136.845 32.1989 137.182 32.9946C137.518 33.7903 138.081 34.4692 138.801 34.9465C139.521 35.4238 140.365 35.6784 141.229 35.6784C141.82 35.6942 142.409 35.5872 142.957 35.3642C143.505 35.1413 144.001 34.8073 144.414 34.3832C144.826 33.9589 145.147 33.4538 145.354 32.8997C145.562 32.3456 145.652 31.7545 145.62 31.1636Z" fill="#777777"/>
<path d="M154.02 16.5012C154.02 15.8214 154.221 15.157 154.599 14.5918C154.976 14.0267 155.513 13.5862 156.141 13.3261C156.769 13.0659 157.46 12.9979 158.127 13.1305C158.793 13.2631 159.406 13.5904 159.886 14.0711C160.367 14.5517 160.694 15.164 160.827 15.8307C160.959 16.4974 160.891 17.1884 160.631 17.8163C160.371 18.4443 159.931 18.9811 159.366 19.3587C158.8 19.7363 158.136 19.9379 157.456 19.9379C156.548 19.9288 155.679 19.5639 155.036 18.9213C154.394 18.2787 154.029 17.4098 154.02 16.5012ZM154.598 21.6177H160.328V40.7105H154.59L154.598 21.6177Z" fill="#777777"/>
<path d="M185.057 31.1635C185.123 32.4254 184.939 33.6878 184.516 34.8784C184.092 36.0689 183.438 37.1639 182.59 38.1006C181.742 39.0371 180.717 39.797 179.574 40.3362C178.431 40.8752 177.193 41.1832 175.931 41.2423C174.869 41.3001 173.808 41.1211 172.825 40.7183C171.841 40.3152 170.959 39.6984 170.243 38.9125V48.3452H164.516V21.6171H170.243V23.4107C170.96 22.6254 171.841 22.009 172.825 21.6065C173.809 21.2038 174.87 21.025 175.931 21.0829C177.193 21.1417 178.432 21.4495 179.575 21.9887C180.718 22.528 181.743 23.2878 182.591 24.2247C183.439 25.1616 184.094 26.2571 184.517 27.448C184.94 28.6387 185.124 29.9015 185.057 31.1635ZM179.329 31.1635C179.307 30.27 179.021 29.4029 178.508 28.6707C177.996 27.9386 177.278 27.3739 176.446 27.0476C175.614 26.7211 174.704 26.6472 173.83 26.8354C172.957 27.0235 172.158 27.4651 171.534 28.105C170.91 28.7451 170.488 29.5547 170.322 30.4332C170.156 31.3115 170.253 32.219 170.6 33.0427C170.947 33.8664 171.53 34.5692 172.275 35.0635C173.019 35.5576 173.893 35.8212 174.787 35.821C175.401 35.8484 176.013 35.7456 176.585 35.5196C177.156 35.2938 177.673 34.9495 178.101 34.5098C178.53 34.0699 178.861 33.5446 179.073 32.9679C179.284 32.3913 179.372 31.7762 179.329 31.1635Z" fill="#777777"/>
<path d="M202.732 34.9796C202.732 39.3709 198.915 41.2417 194.792 41.2417C193.126 41.3925 191.453 41.0403 189.989 40.2301C188.526 39.4201 187.339 38.1897 186.582 36.6979L191.544 33.8726C191.745 34.5621 192.176 35.162 192.766 35.5719C193.355 35.9819 194.069 36.1772 194.784 36.1252C196.157 36.1252 196.846 35.7047 196.846 34.9429C196.846 32.8408 187.452 33.9497 187.452 27.3444C187.452 23.1806 190.966 21.0823 194.937 21.0823C196.429 21.0351 197.907 21.3891 199.216 22.1075C200.526 22.8261 201.619 23.8826 202.381 25.167L197.494 27.8014C197.28 27.3014 196.923 26.8753 196.468 26.5766C196.013 26.2779 195.48 26.1197 194.937 26.1217C193.943 26.1217 193.332 26.5074 193.332 27.1901C193.34 29.3674 202.732 27.9152 202.732 34.9796Z" fill="#777777"/>
<path d="M223.657 21.6172V40.71H217.93V38.9145C217.268 39.7068 216.429 40.3311 215.48 40.7361C214.531 41.1411 213.502 41.3152 212.472 41.2443C208.615 41.2443 205.336 38.496 205.336 33.3371V21.6172H211.064V32.4982C211.016 32.9529 211.068 33.4127 211.216 33.8453C211.363 34.2781 211.604 34.6734 211.92 35.0038C212.236 35.3342 212.62 35.5916 213.046 35.7584C213.471 35.9253 213.928 35.9974 214.385 35.9696C216.485 35.9696 217.935 34.7488 217.935 32.0373V21.623L223.657 21.6172Z" fill="#777777"/>
<path d="M256.501 28.9867V40.7085H250.773V29.4823C250.773 27.573 249.857 26.3523 248.025 26.3523C246.115 26.3523 245.045 27.6888 245.045 29.9413V40.7085H239.319V29.4823C239.319 27.573 238.403 26.3523 236.569 26.3523C234.66 26.3523 233.591 27.6888 233.591 29.9413V40.7085H227.863V21.6157H233.591V23.3707C234.185 22.5921 234.964 21.9746 235.857 21.5748C236.752 21.1748 237.732 21.0053 238.708 21.0815C239.687 21.0335 240.663 21.2404 241.541 21.6818C242.416 22.1231 243.163 22.7842 243.708 23.6002C244.343 22.7464 245.184 22.0676 246.152 21.6271C247.12 21.1866 248.185 20.9989 249.245 21.0815C253.629 21.0834 256.501 24.2135 256.501 28.9867Z" fill="#777777"/>
<path d="M261.344 21.4992C263.691 21.4992 265.595 19.5961 265.595 17.2486C265.595 14.9011 263.691 12.998 261.344 12.998C258.997 12.998 257.094 14.9011 257.094 17.2486C257.094 19.5961 258.997 21.4992 261.344 21.4992Z" fill="#777777"/>
</svg>
