<svg width="270" height="54" viewBox="0 0 270 54" fill="none" xmlns="http://www.w3.org/2000/svg">
<g clip-path="url(#clip0_1477_3384)">
<path fill-rule="evenodd" clip-rule="evenodd" d="M34.1586 15.619C31.9605 14.1503 29.3763 13.3663 26.7327 13.3663V0C32.0199 0 37.1884 1.56784 41.5845 4.50527C45.9807 7.44268 49.4071 11.6178 51.4305 16.5025C53.4537 21.3872 53.9832 26.7623 52.9517 31.948C51.9202 37.1336 49.3742 41.8969 45.6355 45.6355C41.8969 49.3742 37.1336 51.9202 31.948 52.9517C26.7623 53.9832 21.3872 53.4537 16.5025 51.4305C11.6178 49.4071 7.44268 45.9807 4.50527 41.5845C1.56784 37.1884 0 32.0199 0 26.7327H13.3663C13.3663 29.3763 14.1503 31.9605 15.619 34.1586C17.0877 36.3567 19.1752 38.0699 21.6176 39.0816C24.0599 40.0933 26.7475 40.3579 29.3403 39.8421C31.9331 39.3264 34.3147 38.0534 36.1841 36.1841C38.0534 34.3147 39.3264 31.9331 39.8421 29.3403C40.3579 26.7475 40.0933 24.0599 39.0816 21.6176C38.0699 19.1752 36.3567 17.0877 34.1586 15.619Z" fill="#DDDDDD"/>
<path fill-rule="evenodd" clip-rule="evenodd" d="M13.3663 7.06402e-06C13.3663 1.7553 13.0206 3.4934 12.3489 5.11509C11.6772 6.73676 10.6926 8.21025 9.45142 9.45144C8.21025 10.6926 6.73676 11.6772 5.11508 12.3489C3.49339 13.0206 1.75529 13.3663 5.84256e-07 13.3663L0 26.7327C3.51058 26.7327 6.98679 26.0412 10.2302 24.6978C13.4735 23.3543 16.4205 21.3852 18.9028 18.9028C21.3852 16.4205 23.3543 13.4735 24.6978 10.2302C26.0412 6.98679 26.7327 3.51058 26.7327 0L13.3663 7.06402e-06Z" fill="#777777"/>
<path d="M167.907 19.3184H161.422V39.919H167.907V19.3184Z" fill="#777777"/>
<path d="M162.144 15.4593C162.821 16.1375 163.669 16.4767 164.686 16.4767C165.703 16.4767 166.537 16.1375 167.187 15.4593C167.838 14.7529 168.163 13.9051 168.163 12.9161C168.163 11.8988 167.838 11.051 167.187 10.3728C166.537 9.69456 165.703 9.35547 164.686 9.35547C163.669 9.35547 162.821 9.69456 162.144 10.3728C161.493 11.051 161.168 11.8988 161.168 12.9161C161.168 13.9051 161.493 14.7529 162.144 15.4593Z" fill="#777777"/>
<path d="M68.3789 39.9182V9.99219H75.0339V34.0687H88.3014V39.9182H68.3789Z" fill="#777777"/>
<path fill-rule="evenodd" clip-rule="evenodd" d="M100.283 40.3847C98.1636 40.3847 96.2421 39.9185 94.5182 38.9859C92.8227 38.0252 91.4804 36.7253 90.4913 35.0862C89.5024 33.4472 89.0078 31.6104 89.0078 29.5758C89.0078 27.5412 89.5024 25.7185 90.4913 24.1077C91.4804 22.497 92.8227 21.2253 94.5182 20.2929C96.2137 19.3319 98.1354 18.8516 100.283 18.8516C102.431 18.8516 104.352 19.3179 106.048 20.2503C107.743 21.1829 109.086 22.4688 110.075 24.1077C111.064 25.7185 111.558 27.5412 111.558 29.5758C111.558 31.6104 111.064 33.4472 110.075 35.0862C109.086 36.7253 107.743 38.0252 106.048 38.9859C104.352 39.9185 102.431 40.3847 100.283 40.3847ZM100.283 34.4928C101.216 34.4928 102.035 34.295 102.742 33.8994C103.448 33.4755 103.985 32.8962 104.352 32.1615C104.748 31.3985 104.946 30.5365 104.946 29.5758C104.946 28.615 104.748 27.7813 104.352 27.0749C103.957 26.3402 103.406 25.7751 102.699 25.3794C102.021 24.9554 101.216 24.7436 100.283 24.7436C99.3787 24.7436 98.5734 24.9554 97.8669 25.3794C97.1605 25.7751 96.6094 26.3402 96.2137 27.0749C95.8181 27.8097 95.6204 28.6574 95.6204 29.6181C95.6204 30.5507 95.8181 31.3985 96.2137 32.1615C96.6094 32.8962 97.1605 33.4755 97.8669 33.8994C98.5734 34.295 99.3787 34.4928 100.283 34.4928Z" fill="#777777"/>
<path fill-rule="evenodd" clip-rule="evenodd" d="M116.698 47.9729C118.421 48.764 120.414 49.1597 122.674 49.1597C124.878 49.1597 126.842 48.7216 128.566 47.8456C130.29 46.9696 131.646 45.7546 132.635 44.2003C133.624 42.6461 134.12 40.8093 134.12 38.6898V19.3185H127.761V20.7026C127.288 20.3045 126.751 19.9704 126.15 19.7C125.048 19.1631 123.79 18.8945 122.378 18.8945C120.484 18.8945 118.803 19.3467 117.333 20.2509C115.864 21.127 114.705 22.3421 113.857 23.8963C113.01 25.4224 112.586 27.1461 112.586 29.0678C112.586 30.9611 113.01 32.6848 113.857 34.2391C114.705 35.7933 115.864 37.0226 117.333 37.9269C118.803 38.8311 120.484 39.2833 122.378 39.2833C123.762 39.2833 125.02 39.0149 126.15 38.478C126.698 38.2178 127.192 37.9114 127.634 37.5583V38.8594C127.634 40.3006 127.167 41.4168 126.235 42.2081C125.331 42.9994 124.073 43.3949 122.462 43.3949C121.162 43.3949 120.046 43.1689 119.114 42.7167C118.209 42.2646 117.39 41.6005 116.655 40.7244L112.671 44.7089C113.66 46.1219 115.002 47.2099 116.698 47.9729ZM125.938 32.925C125.288 33.3207 124.511 33.5185 123.607 33.5185C122.703 33.5185 121.911 33.3207 121.233 32.925C120.583 32.5294 120.074 31.9925 119.707 31.3143C119.34 30.6079 119.156 29.8589 119.156 29.0678C119.156 28.22 119.34 27.457 119.707 26.7788C120.074 26.1006 120.597 25.5637 121.275 25.168C121.954 24.7724 122.731 24.5746 123.607 24.5746C124.511 24.5746 125.288 24.7724 125.938 25.168C126.616 25.5637 127.125 26.1006 127.464 26.7788C127.831 27.457 128.015 28.22 128.015 29.0678C128.015 29.9155 127.831 30.6784 127.464 31.3566C127.125 32.0066 126.616 32.5294 125.938 32.925Z" fill="#777777"/>
<path fill-rule="evenodd" clip-rule="evenodd" d="M147.768 40.3847C145.648 40.3847 143.726 39.9185 142.003 38.9859C140.307 38.0252 138.965 36.7253 137.976 35.0862C136.987 33.4472 136.492 31.6104 136.492 29.5758C136.492 27.5412 136.987 25.7185 137.976 24.1077C138.965 22.497 140.307 21.2253 142.003 20.2929C143.698 19.3319 145.62 18.8516 147.768 18.8516C149.915 18.8516 151.837 19.3179 153.532 20.2503C155.228 21.1829 156.57 22.4688 157.559 24.1077C158.548 25.7185 159.043 27.5412 159.043 29.5758C159.043 31.6104 158.548 33.4472 157.559 35.0862C156.57 36.7253 155.228 38.0252 153.532 38.9859C151.837 39.9185 149.915 40.3847 147.768 40.3847ZM147.768 34.4928C148.7 34.4928 149.519 34.295 150.226 33.8994C150.932 33.4755 151.469 32.8962 151.837 32.1615C152.232 31.3985 152.43 30.5365 152.43 29.5758C152.43 28.615 152.232 27.7813 151.837 27.0749C151.441 26.3402 150.89 25.7751 150.183 25.3794C149.506 24.9554 148.7 24.7436 147.768 24.7436C146.863 24.7436 146.057 24.9554 145.351 25.3794C144.644 25.7751 144.094 26.3402 143.698 27.0749C143.302 27.8097 143.105 28.6574 143.105 29.6181C143.105 30.5507 143.302 31.3985 143.698 32.1615C144.094 32.8962 144.644 33.4755 145.351 33.8994C146.057 34.295 146.863 34.4928 147.768 34.4928Z" fill="#777777"/>
<path fill-rule="evenodd" clip-rule="evenodd" d="M183.493 40.343C182.11 40.343 180.837 40.0746 179.678 39.5376C179.069 39.2551 178.518 38.9177 178.026 38.5255V48.6087H171.625V19.3185H178.11V20.7403C178.581 20.3555 179.103 20.0228 179.678 19.7424C180.837 19.1771 182.11 18.8945 183.493 18.8945C185.443 18.8945 187.167 19.3609 188.664 20.2935C190.191 21.2259 191.378 22.4976 192.225 24.1083C193.102 25.7191 193.539 27.5559 193.539 29.6187C193.539 31.6817 193.102 33.5185 192.225 35.1293C191.378 36.7401 190.191 38.0116 188.664 38.9442C187.167 39.8767 185.443 40.343 183.493 40.343ZM182.307 34.4934C183.239 34.4934 184.045 34.2815 184.723 33.8576C185.43 33.4338 185.98 32.8543 186.376 32.1197C186.772 31.385 186.97 30.5513 186.97 29.6187C186.97 28.658 186.772 27.8103 186.376 27.0755C185.98 26.3408 185.43 25.7757 184.723 25.38C184.045 24.956 183.254 24.7442 182.349 24.7442C181.445 24.7442 180.639 24.956 179.934 25.38C179.255 25.7757 178.719 26.3408 178.323 27.0755C177.927 27.8103 177.729 28.658 177.729 29.6187C177.729 30.5513 177.913 31.385 178.28 32.1197C178.676 32.8543 179.226 33.4338 179.934 33.8576C180.639 34.2815 181.431 34.4934 182.307 34.4934Z" fill="#777777"/>
<path d="M199.89 39.961C201.077 40.2719 202.277 40.4273 203.492 40.4273C206.064 40.4273 208.098 39.8339 209.596 38.647C211.121 37.4602 211.885 35.8636 211.885 33.8572C211.885 32.5573 211.645 31.5116 211.164 30.7205C210.684 29.901 210.063 29.251 209.3 28.7706C208.536 28.2902 207.73 27.9086 206.883 27.6261C206.036 27.3435 205.23 27.1033 204.468 26.9055C203.704 26.7077 203.083 26.4816 202.602 26.2273C202.122 25.9729 201.881 25.6338 201.881 25.21C201.881 24.8143 202.066 24.5176 202.432 24.3198C202.8 24.0937 203.35 23.9808 204.085 23.9808C204.849 23.9808 205.625 24.1361 206.416 24.447C207.236 24.7578 207.971 25.2948 208.621 26.0578L212.308 22.3276C211.377 21.1407 210.162 20.2505 208.663 19.6572C207.194 19.0355 205.584 18.7246 203.831 18.7246C202.165 18.7246 200.709 19.0072 199.466 19.5723C198.222 20.1376 197.261 20.9147 196.583 21.9037C195.905 22.8644 195.566 24.009 195.566 25.3372C195.566 26.5805 195.806 27.612 196.286 28.4315C196.766 29.2227 197.389 29.8445 198.151 30.2965C198.914 30.7487 199.72 31.102 200.567 31.3562C201.415 31.6106 202.221 31.8508 202.984 32.0769C203.746 32.2747 204.369 32.5149 204.849 32.7975C205.358 33.0519 205.612 33.4333 205.612 33.9419C205.612 34.3376 205.399 34.6483 204.976 34.8745C204.58 35.1005 204.001 35.2136 203.238 35.2136C202.135 35.2136 201.118 35.0158 200.186 34.6201C199.253 34.1963 198.447 33.617 197.77 32.8822L194.082 36.6124C194.789 37.3753 195.637 38.0537 196.626 38.647C197.643 39.2121 198.731 39.6501 199.89 39.961Z" fill="#777777"/>
<path d="M223.711 40.3852C221.818 40.3852 220.137 40.0037 218.668 39.2408C217.225 38.4495 216.096 37.3756 215.277 36.0192C214.456 34.6346 214.047 33.0521 214.047 31.2717V19.3184H220.532V31.187C220.532 31.8934 220.645 32.501 220.872 33.0096C221.126 33.5184 221.493 33.914 221.973 34.1966C222.454 34.4791 223.033 34.6204 223.711 34.6204C224.672 34.6204 225.435 34.3237 226 33.7302C226.566 33.1085 226.848 32.2608 226.848 31.187V19.3184H233.333V31.2294C233.333 33.038 232.924 34.6346 232.103 36.0192C231.284 37.3756 230.155 38.4495 228.712 39.2408C227.272 40.0037 225.605 40.3852 223.711 40.3852Z" fill="#777777"/>
<path d="M243.04 19.3185H236.555V39.9191H243.04V27.8809C243.04 27.1744 243.182 26.581 243.464 26.1006C243.775 25.6202 244.186 25.2528 244.693 24.9985C245.203 24.7158 245.781 24.5746 246.431 24.5746C247.364 24.5746 248.141 24.8713 248.762 25.4648C249.413 26.0299 249.738 26.8353 249.738 27.8809V39.9191H256.223V27.8809C256.223 27.1744 256.365 26.581 256.647 26.1006C256.958 25.6202 257.367 25.2528 257.877 24.9985C258.385 24.7158 258.965 24.5746 259.614 24.5746C260.547 24.5746 261.324 24.8713 261.945 25.4648C262.595 26.0299 262.92 26.8353 262.92 27.8809V39.9191H269.406V27.1603C269.406 25.4366 269.039 23.9671 268.304 22.7519C267.597 21.5085 266.622 20.5618 265.379 19.912C264.164 19.2336 262.765 18.8945 261.182 18.8945C259.572 18.8945 258.116 19.2478 256.817 19.9543C255.972 20.4044 255.234 20.9853 254.602 21.6969C254.012 20.9525 253.296 20.3434 252.45 19.8695C251.32 19.2196 250.035 18.8945 248.594 18.8945C247.067 18.8945 245.697 19.2196 244.482 19.8695C243.953 20.1399 243.473 20.4637 243.04 20.8411V19.3185Z" fill="#777777"/>
</g>
<defs>
<clipPath id="clip0_1477_3384">
<rect width="270" height="53.4653" fill="white"/>
</clipPath>
</defs>
</svg>
