<svg width="270" height="54" viewBox="0 0 270 54" fill="none" xmlns="http://www.w3.org/2000/svg">
<g clip-path="url(#clip0_1477_3317)">
<path d="M81.1211 40.9019V13.416H86.3041V36.1901H98.869V40.9019H81.1211Z" fill="#777777"/>
<path d="M110.061 41.4521C108.124 41.4521 106.383 41.0595 104.838 40.2741C103.294 39.4889 102.077 38.3502 101.187 36.8581C100.297 35.366 99.8516 33.5729 99.8516 31.4787V30.8504C99.8516 28.7562 100.297 26.9631 101.187 25.471C102.077 23.9789 103.294 22.8402 104.838 22.0548C106.383 21.2696 108.124 20.877 110.061 20.877C111.998 20.877 113.739 21.2696 115.283 22.0548C116.827 22.8402 118.045 23.9789 118.935 25.471C119.825 26.9631 120.27 28.7562 120.27 30.8504V31.4787C120.27 33.5729 119.825 35.366 118.935 36.8581C118.045 38.3502 116.827 39.4889 115.283 40.2741C113.739 41.0595 111.998 41.4521 110.061 41.4521ZM110.061 37.0543C111.579 37.0543 112.835 36.57 113.83 35.6016C114.825 34.6068 115.322 33.1932 115.322 31.3609V30.9682C115.322 29.1357 114.825 27.7353 113.83 26.7667C112.862 25.7721 111.605 25.2746 110.061 25.2746C108.542 25.2746 107.286 25.7721 106.291 26.7667C105.296 27.7353 104.799 29.1357 104.799 30.9682V31.3609C104.799 33.1932 105.296 34.6068 106.291 35.6016C107.286 36.57 108.542 37.0543 110.061 37.0543Z" fill="#777777"/>
<path d="M122.129 31.2431V30.6148C122.129 28.573 122.535 26.8321 123.346 25.3924C124.158 23.9266 125.231 22.814 126.566 22.0548C127.927 21.2696 129.406 20.877 131.003 20.877C132.783 20.877 134.131 21.191 135.047 21.8193C135.964 22.4475 136.631 23.1019 137.05 23.7825H137.757V21.4266H142.626V44.3577C142.626 45.6928 142.233 46.7529 141.448 47.5383C140.662 48.3498 139.615 48.7555 138.306 48.7555H125.27V44.4363H136.579C137.312 44.4363 137.678 44.0436 137.678 43.2583V38.1931H136.971C136.71 38.6119 136.343 39.0437 135.872 39.4889C135.401 39.9076 134.772 40.2611 133.987 40.549C133.202 40.8369 132.207 40.981 131.003 40.981C129.406 40.981 127.927 40.6013 126.566 39.8423C125.231 39.0569 124.158 37.9443 123.346 36.5046C122.535 35.0388 122.129 33.2848 122.129 31.2431ZM132.417 36.6617C133.935 36.6617 135.204 36.1773 136.225 35.2089C137.246 34.2403 137.757 32.8791 137.757 31.1253V30.7326C137.757 28.9525 137.246 27.5913 136.225 26.6489C135.23 25.6804 133.961 25.1961 132.417 25.1961C130.898 25.1961 129.629 25.6804 128.608 26.6489C127.587 27.5913 127.076 28.9525 127.076 30.7326V31.1253C127.076 32.8791 127.587 34.2403 128.608 35.2089C129.629 36.1773 130.898 36.6617 132.417 36.6617Z" fill="#777777"/>
<path d="M155.608 41.4521C153.671 41.4521 151.93 41.0595 150.385 40.2741C148.841 39.4889 147.624 38.3502 146.734 36.8581C145.844 35.366 145.398 33.5729 145.398 31.4787V30.8504C145.398 28.7562 145.844 26.9631 146.734 25.471C147.624 23.9789 148.841 22.8402 150.385 22.0548C151.93 21.2696 153.671 20.877 155.608 20.877C157.545 20.877 159.285 21.2696 160.83 22.0548C162.374 22.8402 163.592 23.9789 164.482 25.471C165.372 26.9631 165.817 28.7562 165.817 30.8504V31.4787C165.817 33.5729 165.372 35.366 164.482 36.8581C163.592 38.3502 162.374 39.4889 160.83 40.2741C159.285 41.0595 157.545 41.4521 155.608 41.4521ZM155.608 37.0543C157.126 37.0543 158.382 36.57 159.377 35.6016C160.372 34.6068 160.869 33.1932 160.869 31.3609V30.9682C160.869 29.1357 160.372 27.7353 159.377 26.7667C158.409 25.7721 157.152 25.2746 155.608 25.2746C154.089 25.2746 152.833 25.7721 151.838 26.7667C150.843 27.7353 150.346 29.1357 150.346 30.9682V31.3609C150.346 33.1932 150.843 34.6068 151.838 35.6016C152.833 36.57 154.089 37.0543 155.608 37.0543Z" fill="#777777"/>
<path d="M168.617 40.9009V21.4251H173.565V40.9009H168.617ZM171.091 19.1478C170.2 19.1478 169.442 18.8598 168.813 18.2838C168.211 17.708 167.91 16.9488 167.91 16.0065C167.91 15.0641 168.211 14.305 168.813 13.7291C169.442 13.1532 170.2 12.8652 171.091 12.8652C172.007 12.8652 172.767 13.1532 173.367 13.7291C173.97 14.305 174.272 15.0641 174.272 16.0065C174.272 16.9488 173.97 17.708 173.367 18.2838C172.767 18.8598 172.007 19.1478 171.091 19.1478Z" fill="#777777"/>
<path d="M177.281 48.7555V21.4266H182.15V23.7825H182.857C183.301 23.0235 183.994 22.3559 184.937 21.7799C185.879 21.178 187.227 20.877 188.982 20.877C190.552 20.877 192.005 21.2696 193.339 22.0548C194.676 22.814 195.749 23.9396 196.559 25.4317C197.371 26.9238 197.778 28.7301 197.778 30.8504V31.4787C197.778 33.599 197.371 35.4051 196.559 36.8972C195.749 38.3893 194.676 39.528 193.339 40.3134C192.005 41.0724 190.552 41.4521 188.982 41.4521C187.804 41.4521 186.809 41.3082 185.997 41.0201C185.213 40.7584 184.571 40.418 184.073 39.9992C183.603 39.5542 183.223 39.1092 182.934 38.6642H182.227V48.7555H177.281ZM187.489 37.1328C189.035 37.1328 190.304 36.6487 191.298 35.68C192.319 34.6853 192.83 33.2457 192.83 31.3609V30.9682C192.83 29.0834 192.319 27.6568 191.298 26.6882C190.277 25.6934 189.008 25.1961 187.489 25.1961C185.972 25.1961 184.701 25.6934 183.68 26.6882C182.659 27.6568 182.15 29.0834 182.15 30.9682V31.3609C182.15 33.2457 182.659 34.6853 183.68 35.68C184.701 36.6487 185.972 37.1328 187.489 37.1328Z" fill="#777777"/>
<path d="M208.642 41.4521C206.102 41.4521 204.021 40.9023 202.398 39.8029C200.776 38.7035 199.794 37.1328 199.453 35.0911L204.008 33.9131C204.192 34.8294 204.492 35.5491 204.912 36.0727C205.356 36.5962 205.893 36.9759 206.522 37.2114C207.175 37.4209 207.882 37.5255 208.642 37.5255C209.794 37.5255 210.645 37.3292 211.193 36.9366C211.743 36.5177 212.018 36.0072 212.018 35.4051C212.018 34.803 211.757 34.3451 211.234 34.0308C210.709 33.6906 209.872 33.4158 208.721 33.2063L207.621 33.0099C206.259 32.7482 205.017 32.3948 203.891 31.9498C202.764 31.4787 201.861 30.8373 201.181 30.0257C200.501 29.2144 200.16 28.1673 200.16 26.8846C200.16 24.9474 200.867 23.4684 202.281 22.4475C203.694 21.4004 205.553 20.877 207.857 20.877C210.029 20.877 211.836 21.3611 213.275 22.3297C214.715 23.2983 215.657 24.5679 216.102 26.1386L211.509 27.552C211.299 26.5574 210.867 25.8505 210.213 25.4317C209.583 25.0128 208.799 24.8034 207.857 24.8034C206.914 24.8034 206.195 24.9737 205.697 25.3139C205.199 25.6281 204.951 26.0731 204.951 26.6489C204.951 27.2771 205.213 27.7485 205.736 28.0625C206.259 28.3504 206.966 28.573 207.857 28.7301L208.955 28.9263C210.422 29.1881 211.743 29.5416 212.921 29.9866C214.126 30.4054 215.068 31.0205 215.749 31.832C216.455 32.6174 216.809 33.6906 216.809 35.0518C216.809 37.0937 216.063 38.6774 214.571 39.8029C213.105 40.9023 211.129 41.4521 208.642 41.4521Z" fill="#777777"/>
<path d="M226.801 41.2158C225.282 41.2158 223.948 40.8754 222.795 40.1948C221.67 39.4881 220.794 38.5195 220.164 37.2891C219.537 36.0588 219.223 34.6453 219.223 33.0484V21.4258H224.17V32.6558C224.17 34.1217 224.523 35.2211 225.23 35.9541C225.963 36.687 226.997 37.0535 228.332 37.0535C229.851 37.0535 231.028 36.5562 231.865 35.5615C232.704 34.5405 233.123 33.1269 233.123 31.3208V21.4258H238.07V40.9016H233.2V38.3494H232.495C232.181 39.0038 231.59 39.645 230.728 40.2733C229.864 40.9016 228.555 41.2158 226.801 41.2158Z" fill="#777777"/>
<path d="M241.809 40.9011V21.4254H246.677V23.5457H247.384C247.725 22.8913 248.289 22.3285 249.073 21.8574C249.858 21.3599 250.892 21.1113 252.175 21.1113C253.562 21.1113 254.676 21.3862 255.513 21.9358C256.35 22.4595 256.991 23.153 257.437 24.017H258.144C258.589 23.1794 259.217 22.4856 260.029 21.9358C260.84 21.3862 261.991 21.1113 263.483 21.1113C264.688 21.1113 265.774 21.3731 266.743 21.8967C267.737 22.394 268.523 23.1662 269.099 24.2133C269.701 25.2342 270.002 26.5299 270.002 28.1006V40.9011H265.054V28.454C265.054 27.3807 264.779 26.5824 264.23 26.0587C263.68 25.5091 262.907 25.2342 261.913 25.2342C260.788 25.2342 259.91 25.6006 259.283 26.3336C258.68 27.0404 258.38 28.0613 258.38 29.3963V40.9011H253.432V28.454C253.432 27.3807 253.157 26.5824 252.607 26.0587C252.057 25.5091 251.286 25.2342 250.29 25.2342C249.164 25.2342 248.287 25.6006 247.659 26.3336C247.057 27.0404 246.756 28.0613 246.756 29.3963V40.9011H241.809Z" fill="#777777"/>
<path d="M65.4413 26.1777C65.4413 19.235 62.6832 12.5765 57.7739 7.66726C52.8647 2.758 46.2063 9.10432e-07 39.2636 0C32.3209 -9.1043e-07 25.6625 2.758 20.7532 7.66726C15.8439 12.5765 13.0859 19.235 13.0859 26.1777H21.2666C23.9774 26.1777 26.0915 23.906 27.0844 21.3835C27.7363 19.7274 28.7255 18.2054 30.0083 16.9224C32.463 14.4678 35.7922 13.0888 39.2636 13.0888C42.7349 13.0888 46.0642 14.4678 48.5188 16.9224C50.9735 19.3771 52.3523 22.7063 52.3523 26.1777H65.4413Z" fill="#DDDDDD"/>
<path d="M50.361 36.1954C51.6766 33.0194 52.3538 29.6153 52.3538 26.1777H65.4412C65.4412 40.6352 53.721 52.3552 39.2635 52.3552C36.9994 52.3552 34.8022 52.0679 32.707 51.5275C33.8925 51.2221 35.0577 50.8331 36.1937 50.3626C39.3698 49.0471 42.2556 47.1189 44.6864 44.6881C47.1173 42.2572 49.0456 39.3715 50.361 36.1954Z" fill="#777777"/>
<path d="M0 26.1777C-4.91793e-07 29.6155 0.677104 33.0195 1.99265 36.1956C3.30821 39.3716 5.23643 42.2574 7.66726 44.6883C10.0981 47.1189 12.9839 49.0472 16.1599 50.3628C19.3359 51.6784 22.7399 52.3554 26.1777 52.3554C29.6153 52.3554 33.0193 51.6784 36.1954 50.3628C39.3714 49.0472 42.2572 47.1189 44.688 44.6883C47.1189 42.2574 49.047 39.3716 50.3626 36.1956C51.6782 33.0195 52.3554 29.6155 52.3554 26.1777H44.1747C41.4639 26.1777 39.3498 28.4494 38.3569 30.9718C38.3287 31.0436 38.2997 31.1152 38.2701 31.1867C37.6124 32.7747 36.6483 34.2177 35.4328 35.433C34.2174 36.6483 32.7745 37.6126 31.1865 38.2704C29.5986 38.9281 27.8966 39.2667 26.1777 39.2667C24.4588 39.2667 22.7568 38.9281 21.1688 38.2704C19.5807 37.6126 18.1379 36.6483 16.9224 35.433C15.707 34.2177 14.7429 32.7747 14.0852 31.1867C13.4274 29.5986 13.0888 27.8966 13.0888 26.1777H0Z" fill="#DDDDDD"/>
<path d="M0.00390625 26.1777C0.00390625 11.7201 11.724 0 26.1814 0C28.4451 0 30.6415 0.28729 32.7365 0.82742C28.2412 1.98546 24.0943 4.32903 20.756 7.66727C15.8467 12.5765 13.0888 19.235 13.0888 26.1777H0.00390625Z" fill="#777777"/>
</g>
<defs>
<clipPath id="clip0_1477_3317">
<rect width="270" height="54" fill="white"/>
</clipPath>
</defs>
</svg>
