<svg width="270" height="51" viewBox="0 0 270 51" fill="none" xmlns="http://www.w3.org/2000/svg">
<g clip-path="url(#clip0_1477_3358)">
<path d="M65.0781 2.15039H71.8192V38.9194H82.9111V45.0477H65.0781V2.15039Z" fill="#777777"/>
<path d="M95.6481 45.662C92.3389 45.662 89.806 44.7224 88.0491 42.843C86.2924 40.9636 85.4141 38.3082 85.4141 34.8763V12.3247C85.4141 8.89289 86.2924 6.23733 88.0491 4.35803C89.806 2.47871 92.3389 1.53906 95.6481 1.53906C98.9573 1.53906 101.49 2.47871 103.247 4.35803C105.004 6.23733 105.882 8.89289 105.882 12.3247V34.8763C105.882 38.3082 105.004 40.9636 103.247 42.843C101.49 44.7224 98.9573 45.662 95.6481 45.662ZM95.6481 39.5338C97.9768 39.5338 99.1412 38.1242 99.1412 35.3053V11.8957C99.1412 9.07672 97.9768 7.66724 95.6481 7.66724C93.3193 7.66724 92.1549 9.07672 92.1549 11.8957V35.3053C92.1549 38.1242 93.3193 39.5338 95.6481 39.5338Z" fill="#777777"/>
<path d="M120.003 45.662C116.735 45.662 114.243 44.7428 112.527 42.9042C110.811 41.025 109.953 38.349 109.953 34.8763V12.3247C109.953 8.85203 110.811 6.19648 112.527 4.35803C114.243 2.47871 116.735 1.53906 120.003 1.53906C123.272 1.53906 125.764 2.47871 127.48 4.35803C129.196 6.19648 130.054 8.85203 130.054 12.3247V16.0016H123.68V11.8957C123.68 9.07672 122.516 7.66724 120.187 7.66724C117.859 7.66724 116.694 9.07672 116.694 11.8957V35.3667C116.694 38.1448 117.859 39.5338 120.187 39.5338C122.516 39.5338 123.68 38.1448 123.68 35.3667V26.971H120.31V20.8429H130.054V34.8763C130.054 38.349 129.196 41.025 127.48 42.9042C125.764 44.7428 123.272 45.662 120.003 45.662Z" fill="#777777"/>
<path d="M144.125 45.662C140.815 45.662 138.283 44.7224 136.526 42.843C134.769 40.9636 133.891 38.3082 133.891 34.8763V12.3247C133.891 8.89289 134.769 6.23733 136.526 4.35803C138.283 2.47871 140.815 1.53906 144.125 1.53906C147.434 1.53906 149.967 2.47871 151.724 4.35803C153.48 6.23733 154.359 8.89289 154.359 12.3247V34.8763C154.359 38.3082 153.48 40.9636 151.724 42.843C149.967 44.7224 147.434 45.662 144.125 45.662ZM144.125 39.5338C146.453 39.5338 147.618 38.1242 147.618 35.3053V11.8957C147.618 9.07672 146.453 7.66724 144.125 7.66724C141.796 7.66724 140.632 9.07672 140.632 11.8957V35.3053C140.632 38.1242 141.796 39.5338 144.125 39.5338Z" fill="#777777"/>
<path d="M158.93 2.15039H165.671V45.0477H158.93V2.15039Z" fill="#777777"/>
<path d="M170.719 2.15039H180.646C183.996 2.15039 186.509 3.04919 188.184 4.8468C189.86 6.64439 190.697 9.2795 190.697 12.7521V16.9806C190.697 20.4533 189.86 23.0883 188.184 24.886C186.509 26.6835 183.996 27.5823 180.646 27.5823H177.46V45.0477H170.719V2.15039ZM180.646 21.4541C181.75 21.4541 182.567 21.1477 183.098 20.5349C183.67 19.922 183.956 18.8803 183.956 17.4095V12.3232C183.956 10.8524 183.67 9.81061 183.098 9.19779C182.567 8.58498 181.75 8.27858 180.646 8.27858H177.46V21.4541H180.646Z" fill="#777777"/>
<path d="M203.361 45.662C200.094 45.662 197.622 44.7428 195.946 42.9042C194.272 41.025 193.434 38.349 193.434 34.8763V32.425H199.807V35.3667C199.807 38.1448 200.972 39.5338 203.3 39.5338C204.445 39.5338 205.302 39.2069 205.874 38.5534C206.486 37.8588 206.794 36.7557 206.794 35.244C206.794 33.4465 206.385 31.8736 205.568 30.5254C204.752 29.1363 203.24 27.4817 201.032 25.5615C198.255 23.1102 196.314 20.9041 195.211 18.9431C194.109 16.9412 193.557 14.6942 193.557 12.2021C193.557 8.81118 194.414 6.19648 196.13 4.35803C197.846 2.47871 200.339 1.53906 203.608 1.53906C206.834 1.53906 209.266 2.47871 210.899 4.35803C212.575 6.19648 213.412 8.85203 213.412 12.3247V14.1018H207.038V11.8957C207.038 10.4249 206.753 9.3627 206.181 8.70903C205.609 8.01451 204.772 7.66724 203.668 7.66724C201.421 7.66724 200.298 9.03587 200.298 11.7731C200.298 13.3256 200.707 14.7759 201.523 16.1241C202.381 17.4723 203.913 19.1064 206.12 21.0267C208.938 23.4779 210.879 25.7046 211.942 27.7065C213.004 29.7083 213.535 32.0573 213.535 34.7538C213.535 38.2673 212.656 40.9636 210.899 42.843C209.183 44.7224 206.67 45.662 203.361 45.662Z" fill="#777777"/>
<path d="M227.203 45.6605C223.934 45.6605 221.442 44.7413 219.726 42.9028C218.01 41.0236 217.152 38.3475 217.152 34.8748V2.15039H223.894V35.3652C223.894 36.8359 224.179 37.8981 224.751 38.5519C225.364 39.2054 226.223 39.5323 227.325 39.5323C228.428 39.5323 229.265 39.2054 229.837 38.5519C230.45 37.8981 230.757 36.8359 230.757 35.3652V2.15039H237.252V34.8748C237.252 38.3475 236.395 41.0236 234.679 42.9028C232.963 44.7413 230.47 45.6605 227.203 45.6605Z" fill="#777777"/>
<path d="M242.055 2.15039H251.677L255.966 32.8525H256.088L260.379 2.15039H270V45.0477H263.626V12.5683H263.504L258.601 45.0477H252.963L248.06 12.5683H247.939V45.0477H242.055V2.15039Z" fill="#777777"/>
<path d="M0 45.0478C8.29319 45.0478 15.0161 38.3248 15.0161 30.0318C15.0161 21.7386 8.29319 15.0156 0 15.0156V25.5268C2.48793 25.5268 4.5048 27.5437 4.5048 30.0318C4.5048 32.5197 2.48793 34.5366 0 34.5366V45.0478Z" fill="#777777"/>
<path d="M50.0531 20.021C47.4871 19.2081 44.7545 18.7695 41.9194 18.7695C27.0608 18.7695 15.0156 30.8149 15.0156 45.6733C15.0156 47.1648 15.137 48.6278 15.3703 50.0531H32.0865C31.4898 48.7152 31.158 47.2331 31.158 45.6733C31.158 39.73 35.976 34.9118 41.9194 34.9118C45.1678 34.9118 48.0799 36.3511 50.0531 38.6267V20.021Z" fill="#DDDDDD"/>
<path d="M2.64062 0C3.88556 11.2619 13.4335 20.0215 25.0273 20.0215C36.621 20.0215 46.169 11.2619 47.4139 0H31.3058C30.3114 2.49294 27.875 4.25454 25.0273 4.25454C22.1795 4.25454 19.7432 2.49294 18.7486 0H2.64062Z" fill="#777777"/>
</g>
<defs>
<clipPath id="clip0_1477_3358">
<rect width="270" height="50.625" fill="white"/>
</clipPath>
</defs>
</svg>
