<svg width="270" height="60" viewBox="0 0 270 60" fill="none" xmlns="http://www.w3.org/2000/svg">
<path d="M79.0893 39.784C79.0893 41.0853 78.8221 42.0852 78.2879 42.7837C77.7675 43.4823 76.8978 43.8316 75.6787 43.8316C74.5281 43.8316 73.7132 43.4823 73.2336 42.7837C72.768 42.0852 72.5352 41.0853 72.5352 39.784V18.0671C72.5352 16.7658 72.768 15.7659 73.2336 15.0674C73.7132 14.3688 74.5281 14.0195 75.6787 14.0195C76.8978 14.0195 77.7675 14.3688 78.2879 15.0674C78.8221 15.7659 79.0893 16.7658 79.0893 18.0671V39.784Z" fill="#777777"/>
<path d="M81.0781 33.4759C81.0781 32.0239 81.311 30.6543 81.7768 29.3667C82.2561 28.0654 82.9683 26.9286 83.9135 25.9561C84.8723 24.9836 86.064 24.2097 87.4885 23.6344C88.9267 23.059 90.6114 22.7715 92.5428 22.7715C94.3919 22.7715 96.0288 23.0385 97.4533 23.5727C98.8778 24.1069 100.076 24.8535 101.049 25.8123C102.021 26.7573 102.761 27.8873 103.268 29.2022C103.774 30.5035 104.028 31.928 104.028 33.4759C104.028 34.9141 103.788 36.2769 103.309 37.5645C102.829 38.8382 102.11 39.9615 101.151 40.9341C100.193 41.8927 98.9942 42.6598 97.556 43.2352C96.1176 43.7968 94.4466 44.0775 92.5428 44.0775C90.6663 44.0775 89.0089 43.8104 87.5706 43.2762C86.1461 42.7283 84.9477 41.9818 83.9752 41.0366C83.0163 40.078 82.2903 38.9548 81.7973 37.6672C81.3178 36.366 81.0781 34.9688 81.0781 33.4759ZM87.92 33.4759C87.92 34.3799 88.002 35.2429 88.1665 36.0646C88.3308 36.8727 88.5911 37.585 88.9472 38.2015C89.317 38.8177 89.7965 39.3109 90.3854 39.6807C90.9745 40.0368 91.6935 40.2149 92.5428 40.2149C93.3235 40.2149 94.0015 40.0506 94.5767 39.7217C95.1658 39.3931 95.6452 38.9341 96.0151 38.3452C96.3985 37.7563 96.6862 37.0508 96.8779 36.2291C97.0697 35.3935 97.1656 34.4758 97.1656 33.4759C97.1656 32.5718 97.0765 31.7157 96.8985 30.9076C96.7341 30.0859 96.4671 29.3667 96.0971 28.7502C95.7274 28.1203 95.248 27.6271 94.6589 27.271C94.0837 26.9013 93.3782 26.7163 92.5428 26.7163C91.7072 26.7163 90.995 26.8942 90.4059 27.2505C89.817 27.6066 89.3377 28.0928 88.9677 28.7092C88.598 29.3256 88.3308 30.0447 88.1665 30.8666C88.002 31.6883 87.92 32.5581 87.92 33.4759Z" fill="#777777"/>
<path d="M120.891 39.8656C120.521 40.5504 120.069 41.1325 119.535 41.612C119.014 42.0914 118.432 42.4887 117.788 42.8037C117.158 43.1049 116.48 43.3309 115.754 43.4817C115.042 43.6186 114.309 43.6872 113.556 43.6872C112.296 43.6872 111.145 43.4612 110.104 43.009C109.063 42.557 108.166 41.9064 107.413 41.0573C106.673 40.1944 106.098 39.1396 105.687 37.8932C105.276 36.6467 105.07 35.2222 105.07 33.6197C105.07 32.1129 105.262 30.7021 105.646 29.3872C106.029 28.0722 106.584 26.9286 107.31 25.9561C108.05 24.9835 108.954 24.2165 110.022 23.6549C111.09 23.0934 112.309 22.8125 113.679 22.8125C115.241 22.8125 116.624 23.1139 117.829 23.7165C119.048 24.3192 120.096 25.3054 120.973 26.6751V26.141C120.973 25.1548 121.24 24.4151 121.774 23.922C122.322 23.4153 123.075 23.1617 124.034 23.1617C124.61 23.1617 125.096 23.2576 125.493 23.4495C125.89 23.6276 126.205 23.9014 126.438 24.2714C126.671 24.6275 126.835 25.0726 126.931 25.6068C127.041 26.1272 127.095 26.7231 127.095 27.3943V41.1601C127.095 42.8311 126.883 44.324 126.459 45.6389C126.048 46.9538 125.404 48.0635 124.527 48.9674C123.651 49.8714 122.528 50.5562 121.158 51.0221C119.788 51.5014 118.158 51.7411 116.268 51.7411C114.939 51.7411 113.761 51.6795 112.734 51.5561C111.72 51.4467 110.844 51.2754 110.104 51.0426C109.365 50.7822 108.803 50.4947 108.419 50.1796C108.05 49.8646 107.865 49.4536 107.865 48.9469C107.865 48.6592 107.906 48.3854 107.988 48.125C108.07 47.8648 108.193 47.632 108.358 47.4265C108.536 47.2347 108.762 47.0773 109.036 46.9538C109.323 46.8444 109.673 46.7896 110.084 46.7896C110.522 46.7896 110.96 46.8169 111.398 46.8718C111.85 46.9265 112.316 46.9814 112.796 47.0361C113.289 47.1046 113.802 47.1661 114.337 47.221C114.884 47.2757 115.473 47.3033 116.104 47.3033C116.857 47.3033 117.528 47.2279 118.117 47.0773C118.706 46.9265 119.206 46.6595 119.617 46.2759C120.028 45.8924 120.343 45.3787 120.562 44.7349C120.781 44.1048 120.891 43.2967 120.891 42.3105V39.8656ZM120.891 33.4759C120.891 32.4759 120.815 31.5651 120.665 30.7433C120.528 29.9214 120.288 29.2229 119.946 28.6475C119.603 28.0586 119.144 27.6066 118.569 27.2915C117.994 26.9628 117.275 26.7985 116.412 26.7985C115.562 26.7985 114.857 26.9696 114.296 27.312C113.748 27.6544 113.309 28.1271 112.981 28.7297C112.652 29.3325 112.419 30.0378 112.282 30.8461C112.159 31.6541 112.097 32.5171 112.097 33.4347C112.097 35.5304 112.467 37.1057 113.207 38.1602C113.946 39.215 115.021 39.7424 116.432 39.7424C117.09 39.7287 117.686 39.6053 118.22 39.3724C118.768 39.1259 119.24 38.7493 119.637 38.2425C120.035 37.7356 120.343 37.0918 120.562 36.3111C120.781 35.5304 120.891 34.5854 120.891 33.4759Z" fill="#777777"/>
<path d="M128.984 33.4759C128.984 32.0239 129.217 30.6543 129.683 29.3667C130.162 28.0654 130.875 26.9286 131.82 25.9561C132.779 24.9836 133.97 24.2097 135.395 23.6344C136.833 23.059 138.518 22.7715 140.449 22.7715C142.298 22.7715 143.935 23.0385 145.359 23.5727C146.784 24.1069 147.982 24.8535 148.955 25.8123C149.927 26.7573 150.667 27.8873 151.174 29.2022C151.681 30.5035 151.934 31.928 151.934 33.4759C151.934 34.9141 151.694 36.2769 151.215 37.5645C150.735 38.8382 150.016 39.9615 149.058 40.9341C148.099 41.8927 146.9 42.6598 145.462 43.2352C144.024 43.7968 142.353 44.0775 140.449 44.0775C138.572 44.0775 136.915 43.8104 135.477 43.2762C134.052 42.7283 132.854 41.9818 131.881 41.0366C130.923 40.078 130.197 38.9548 129.703 37.6672C129.224 36.366 128.984 34.9688 128.984 33.4759ZM135.826 33.4759C135.826 34.3799 135.908 35.2429 136.073 36.0646C136.237 36.8727 136.497 37.585 136.853 38.2015C137.223 38.8177 137.703 39.3109 138.292 39.6807C138.881 40.0368 139.6 40.2149 140.449 40.2149C141.23 40.2149 141.908 40.0506 142.483 39.7217C143.072 39.3931 143.551 38.9341 143.921 38.3452C144.305 37.7563 144.592 37.0508 144.784 36.2291C144.976 35.3935 145.072 34.4758 145.072 33.4759C145.072 32.5718 144.983 31.7157 144.805 30.9076C144.64 30.0859 144.373 29.3667 144.003 28.7502C143.634 28.1203 143.154 27.6271 142.565 27.271C141.99 26.9013 141.284 26.7163 140.449 26.7163C139.613 26.7163 138.901 26.8942 138.312 27.2505C137.723 27.6066 137.244 28.0928 136.874 28.7092C136.504 29.3256 136.237 30.0447 136.073 30.8666C135.908 31.6883 135.826 32.5581 135.826 33.4759Z" fill="#777777"/>
<path d="M160.744 15.8469C160.744 16.2989 160.641 16.703 160.435 17.0591C160.23 17.4015 159.963 17.6891 159.634 17.9221C159.305 18.1549 158.922 18.3329 158.484 18.4561C158.059 18.5657 157.621 18.6206 157.169 18.6206C156.689 18.6206 156.23 18.5589 155.792 18.4356C155.368 18.3124 154.991 18.1344 154.662 17.9014C154.333 17.6549 154.073 17.3604 153.881 17.018C153.69 16.6756 153.594 16.2852 153.594 15.8469C153.594 15.4497 153.683 15.0867 153.861 14.758C154.053 14.4155 154.306 14.121 154.621 13.8745C154.936 13.6279 155.313 13.4362 155.751 13.2992C156.189 13.1622 156.669 13.0938 157.189 13.0938C157.641 13.0938 158.08 13.1554 158.504 13.2787C158.943 13.4019 159.326 13.58 159.655 13.8129C159.983 14.0457 160.244 14.3333 160.435 14.6758C160.641 15.0182 160.744 15.4086 160.744 15.8469ZM160.435 39.7828C160.435 41.0841 160.168 42.0839 159.634 42.7824C159.114 43.4811 158.244 43.8304 157.025 43.8304C155.874 43.8304 155.059 43.4811 154.58 42.7824C154.114 42.0839 153.881 41.0841 153.881 39.7828V27.2087C153.881 25.9074 154.114 24.9076 154.58 24.2091C155.059 23.5106 155.874 23.1612 157.025 23.1612C158.244 23.1612 159.114 23.5106 159.634 24.2091C160.168 24.9076 160.435 25.9074 160.435 27.2087V39.7828Z" fill="#777777"/>
<path d="M169.883 33.4347C169.883 34.3525 169.952 35.2085 170.089 36.0031C170.239 36.7974 170.486 37.4959 170.828 38.0987C171.185 38.6876 171.65 39.1533 172.225 39.4957C172.814 39.8383 173.54 40.0094 174.403 40.0094C175.198 40.0094 175.862 39.8451 176.397 39.5164C176.944 39.174 177.382 38.7081 177.712 38.1192C178.04 37.5165 178.273 36.8111 178.409 36.0031C178.56 35.1948 178.636 34.3182 178.636 33.3732C178.636 32.6198 178.581 31.8528 178.471 31.072C178.362 30.2775 178.157 29.5585 177.855 28.9147C177.554 28.2709 177.137 27.7435 176.602 27.3325C176.067 26.9218 175.369 26.7163 174.506 26.7163C173.643 26.7163 172.91 26.8532 172.308 27.1272C171.719 27.4011 171.239 27.8189 170.869 28.3805C170.513 28.942 170.26 29.6475 170.109 30.4966C169.958 31.3322 169.883 32.3116 169.883 33.4347ZM169.863 27.2093C170.205 26.4834 170.643 25.8465 171.178 25.2986C171.712 24.7507 172.301 24.2919 172.945 23.922C173.588 23.5522 174.26 23.2782 174.958 23.1002C175.671 22.9084 176.376 22.8125 177.074 22.8125C178.334 22.8125 179.472 23.0934 180.485 23.6549C181.499 24.2165 182.361 24.9835 183.073 25.9561C183.799 26.9149 184.355 28.0517 184.739 29.3667C185.121 30.6679 185.314 32.0651 185.314 33.558C185.314 35.1057 185.107 36.5234 184.697 37.811C184.3 39.0986 183.731 40.208 182.991 41.1394C182.265 42.0572 181.388 42.7762 180.361 43.2967C179.347 43.8173 178.218 44.0775 176.972 44.0775C175.438 44.0775 174.068 43.7214 172.862 43.009C171.657 42.2969 170.657 41.297 169.863 40.0094V47.406C169.863 48.7071 169.596 49.7071 169.061 50.4056C168.541 51.1041 167.671 51.4535 166.452 51.4535C165.302 51.4535 164.486 51.1041 164.007 50.4056C163.541 49.7071 163.309 48.7071 163.309 47.406V27.2093C163.309 25.908 163.541 24.9082 164.007 24.2097C164.486 23.5112 165.302 23.1617 166.452 23.1617C167.671 23.1617 168.541 23.5112 169.061 24.2097C169.596 24.9082 169.863 25.908 169.863 27.2093Z" fill="#777777"/>
<path d="M192.544 28.6682C192.544 29.2022 192.778 29.62 193.242 29.9214C193.709 30.2091 194.352 30.4488 195.174 30.6406C195.955 30.8185 196.756 30.9898 197.578 31.1541C198.4 31.3186 199.202 31.5104 199.982 31.7295C200.762 31.9348 201.495 32.1815 202.18 32.469C202.864 32.7568 203.467 33.1197 203.988 33.558C204.509 33.9826 204.919 34.5032 205.22 35.1194C205.522 35.7222 205.673 36.4482 205.673 37.2973C205.673 38.3657 205.454 39.3178 205.015 40.1532C204.577 40.9751 203.955 41.6736 203.146 42.249C202.352 42.8242 201.4 43.2694 200.29 43.5845C199.181 43.8995 197.955 44.0638 196.612 44.0775C195.339 44.0775 194.112 43.9954 192.934 43.831C191.757 43.6804 190.709 43.4405 189.79 43.1118C188.887 42.783 188.161 42.3791 187.613 41.8996C187.066 41.4066 186.792 40.8313 186.792 40.1739C186.792 39.5984 186.976 39.1533 187.346 38.8382C187.716 38.5234 188.188 38.3657 188.764 38.3657C188.984 38.3657 189.243 38.4068 189.545 38.489C189.846 38.5712 190.174 38.674 190.53 38.7972C190.886 38.9205 191.263 39.0574 191.661 39.2082C192.071 39.3451 192.495 39.4684 192.934 39.5779C193.482 39.7287 194.044 39.852 194.619 39.9479C195.208 40.0299 195.811 40.0711 196.428 40.0711C196.81 40.0711 197.187 40.0368 197.557 39.9684C197.927 39.8862 198.257 39.7697 198.544 39.6191C198.846 39.4547 199.091 39.2492 199.284 39.0027C199.475 38.7562 199.591 38.4548 199.633 38.0987C199.673 38.0165 199.708 37.9343 199.735 37.852C199.763 37.77 199.777 37.6741 199.777 37.5645C199.777 37.1809 199.598 36.8385 199.242 36.5371C198.9 36.2359 198.413 35.9961 197.783 35.8181C196.728 35.5716 195.721 35.3456 194.762 35.1401C193.805 34.9346 192.914 34.7155 192.092 34.4826C191.284 34.2498 190.544 33.9826 189.873 33.6812C189.215 33.38 188.654 33.0101 188.188 32.5718C187.737 32.1335 187.379 31.6061 187.12 30.9898C186.873 30.3734 186.75 29.6269 186.75 28.7502C186.75 27.8052 186.962 26.9628 187.386 26.2231C187.825 25.4697 188.449 24.8398 189.257 24.3329C190.065 23.8261 191.044 23.4426 192.196 23.1824C193.346 22.9084 194.647 22.7715 196.098 22.7715C198.7 22.7715 200.68 23.0865 202.037 23.7165C203.406 24.3329 204.091 25.141 204.091 26.141C204.091 26.7026 203.906 27.1341 203.536 27.4353C203.166 27.723 202.72 27.8668 202.201 27.8668C201.926 27.8668 201.639 27.8189 201.337 27.723C201.049 27.6134 200.701 27.497 200.29 27.3738C199.878 27.2368 199.386 27.1204 198.811 27.0245C198.25 26.9149 197.55 26.8601 196.715 26.8601C196.084 26.8601 195.509 26.8874 194.989 26.9423C194.482 26.997 194.044 27.0929 193.674 27.2298C193.318 27.3669 193.037 27.5517 192.832 27.7847C192.639 28.0175 192.544 28.3119 192.544 28.6682Z" fill="#777777"/>
<path d="M214.011 36.2087C214.011 36.8525 214.093 37.4141 214.258 37.8936C214.435 38.3729 214.675 38.7771 214.977 39.1058C215.278 39.4208 215.627 39.6605 216.023 39.8248C216.435 39.9756 216.874 40.051 217.338 40.051C217.887 40.051 218.415 39.9687 218.922 39.8043C219.428 39.64 219.874 39.3865 220.257 39.0441C220.654 38.7017 220.969 38.2702 221.202 37.7496C221.434 37.2293 221.551 36.6197 221.551 35.9212V27.2097C221.551 25.9084 221.785 24.9085 222.249 24.21C222.73 23.5115 223.545 23.1621 224.695 23.1621C225.913 23.1621 226.783 23.5115 227.304 24.21C227.839 24.9085 228.105 25.9084 228.105 27.2097V39.7838C228.105 41.085 227.839 42.0849 227.304 42.7834C226.783 43.4821 225.913 43.8313 224.695 43.8313C223.545 43.8313 222.73 43.4821 222.249 42.7834C221.785 42.0849 221.551 41.085 221.551 39.7838C221.264 40.4139 220.887 40.9891 220.421 41.5097C219.968 42.0302 219.435 42.4822 218.818 42.8656C218.215 43.2356 217.545 43.5231 216.805 43.7286C216.079 43.9341 215.291 44.0368 214.442 44.0368C213.525 44.0368 212.641 43.8792 211.791 43.5643C210.957 43.2356 210.217 42.756 209.573 42.1259C208.93 41.4823 208.416 40.6877 208.032 39.7427C207.648 38.7976 207.457 37.6949 207.457 36.4347V27.2097C207.457 25.9084 207.69 24.9085 208.155 24.21C208.635 23.5115 209.449 23.1621 210.601 23.1621C211.819 23.1621 212.689 23.5115 213.209 24.21C213.744 24.9085 214.011 25.9084 214.011 27.2097V36.2087Z" fill="#777777"/>
<path d="M231.078 27.2093C231.078 25.908 231.311 24.9082 231.778 24.2097C232.256 23.5112 233.072 23.1617 234.222 23.1617C235.442 23.1617 236.312 23.5112 236.832 24.2097C237.365 24.9082 237.634 25.908 237.634 27.2093C237.907 26.5518 238.277 25.9561 238.743 25.4219C239.222 24.874 239.764 24.4083 240.365 24.0247C240.982 23.6413 241.647 23.3467 242.359 23.1412C243.07 22.9221 243.81 22.8125 244.578 22.8125C245.29 22.8125 245.988 22.9084 246.673 23.1002C247.371 23.2782 248.016 23.5727 248.605 23.9837C249.207 24.3808 249.734 24.8876 250.187 25.5041C250.639 26.1204 250.988 26.86 251.235 27.723C251.66 26.8053 252.159 26.0315 252.734 25.4013C253.309 24.7712 253.933 24.2644 254.603 23.8809C255.275 23.4973 255.974 23.2235 256.7 23.059C257.44 22.8947 258.178 22.8125 258.918 22.8125C259.795 22.8125 260.631 22.9701 261.425 23.285C262.233 23.6001 262.938 24.0796 263.541 24.7234C264.158 25.3533 264.644 26.1547 265 27.1272C265.37 28.0859 265.554 29.2092 265.554 30.4966V39.7834C265.554 41.0847 265.287 42.0845 264.753 42.783C264.234 43.4817 263.362 43.8309 262.144 43.8309C260.994 43.8309 260.179 43.4817 259.7 42.783C259.234 42.0845 259 41.0847 259 39.7834V30.7843C259 30.1679 258.918 29.62 258.755 29.1407C258.59 28.6475 258.357 28.2367 258.055 27.908C257.768 27.5656 257.426 27.312 257.028 27.1478C256.632 26.9696 256.206 26.8806 255.755 26.8806C255.192 26.8806 254.659 26.9696 254.153 27.1478C253.646 27.3257 253.201 27.5997 252.817 27.9695C252.447 28.3394 252.145 28.8119 251.912 29.3872C251.693 29.9624 251.584 30.6542 251.584 31.4623V39.7834C251.584 41.0847 251.316 42.0845 250.783 42.783C250.262 43.4817 249.393 43.8309 248.172 43.8309C247.022 43.8309 246.207 43.4817 245.728 42.783C245.262 42.0845 245.029 41.0847 245.029 39.7834V31.1746C245.029 29.7639 244.734 28.6955 244.147 27.9695C243.57 27.2437 242.783 26.8806 241.783 26.8806C241.194 26.8806 240.646 26.9765 240.139 27.1683C239.632 27.3601 239.194 27.6408 238.824 28.0107C238.454 28.3805 238.159 28.8393 237.94 29.3872C237.735 29.9351 237.634 30.5652 237.634 31.2774V39.7834C237.634 41.0847 237.365 42.0845 236.832 42.783C236.312 43.4817 235.442 43.8309 234.222 43.8309C233.072 43.8309 232.256 43.4817 231.778 42.783C231.311 42.0845 231.078 41.0847 231.078 39.7834V27.2093Z" fill="#777777"/>
<path d="M29.8046 40.3241C23.9949 40.3241 19.2852 35.6144 19.2852 29.8046C19.2852 23.9949 23.9949 19.2852 29.8046 19.2852C35.6144 19.2852 40.3241 23.9949 40.3241 29.8046C40.3241 35.6144 35.6144 40.3241 29.8046 40.3241Z" fill="#DDDDDD"/>
<path d="M9.42654 33.3978C6.37808 33.9353 4.28852 36.8801 5.45873 39.7459C7.09247 43.7468 9.6989 47.3115 13.078 50.0971C17.9097 54.0799 24.004 56.2082 30.2649 56.099C36.5257 55.9897 42.5422 53.65 47.2321 49.5008C50.5117 46.5992 52.9922 42.9456 54.4855 38.8902C55.5549 35.9852 53.3637 33.1151 50.2983 32.6844C47.2331 32.2536 44.4809 34.4848 42.9668 37.1848C42.1461 38.6482 41.0807 39.9759 39.8043 41.1052C37.1134 43.4859 33.6614 44.8282 30.0694 44.891C26.4772 44.9536 22.9805 43.7326 20.2083 41.4473C18.8931 40.3632 17.7821 39.0735 16.9108 37.6396C15.3034 34.9941 12.475 32.8602 9.42654 33.3978Z" fill="#777777"/>
<path d="M55.9018 33.091C56.0361 32.0144 56.1052 30.9175 56.1052 29.8046C56.1052 15.2802 44.3309 3.50586 29.8065 3.50586C15.2821 3.50586 3.50781 15.2802 3.50781 29.8046C3.50781 31.2329 3.62169 32.6347 3.84086 34.0013C5.04881 32.3476 6.93411 31.1672 8.97051 30.8081C11.1738 30.4196 13.1762 30.954 14.8693 31.9528C14.7693 31.2512 14.7175 30.5339 14.7175 29.8046C14.7175 21.4712 21.4732 14.7156 29.8065 14.7156C38.1399 14.7156 44.8955 21.4712 44.8955 29.8046C44.8955 30.354 44.866 30.8967 44.8089 31.4309C46.4662 30.3731 48.4491 29.7688 50.6651 30.0803C52.7122 30.3681 54.6369 31.4814 55.9018 33.091Z" fill="#777777"/>
</svg>
