<svg width="1920" height="624" viewBox="0 0 1920 624" fill="none" xmlns="http://www.w3.org/2000/svg">
<path d="M1947 0V624C1947 624 1745.57 576.841 1644.86 576.841C1594.5 576.841 1544.14 588.63 1493.79 600.42C1443.43 612.21 1393.07 624 1342.71 624C1292.36 624 1242 612.21 1191.64 600.42C1141.29 588.63 1090.93 576.841 1040.57 576.841C990.214 576.841 939.857 588.63 889.5 600.42C839.143 612.21 788.786 624 738.429 624C688.072 624 637.714 612.21 587.357 600.42C537 588.63 486.643 576.841 436.286 576.841C385.929 576.841 335.572 588.63 285.214 600.42C234.857 612.21 184.5 624 134.143 624C33.4286 624 -168 576.841 -168 576.841V47.1595C-168 47.1595 33.4286 0 134.143 0C184.5 0 234.857 11.7899 285.214 23.5797C335.572 35.3696 385.929 47.1595 436.286 47.1595C486.643 47.1595 537 35.3696 587.357 23.5797C637.714 11.7899 688.072 0 738.429 0C788.786 0 839.143 11.7899 889.5 23.5797C939.857 35.3696 990.214 47.1595 1040.57 47.1595C1090.93 47.1595 1141.29 35.3696 1191.64 23.5797C1242 11.7899 1292.36 0 1342.71 0C1393.07 0 1443.43 11.7899 1493.79 23.5797C1544.14 35.3696 1594.5 47.1595 1644.86 47.1595C1745.57 47.1595 1947 0 1947 0Z" fill="url(#paint0_linear_1445_778)"/>
<defs>
<linearGradient id="paint0_linear_1445_778" x1="1997" y1="346" x2="-168" y2="312" gradientUnits="userSpaceOnUse">
<stop stop-color="#D0E484"/>
<stop offset="1" stop-color="#A1BC1B"/>
</linearGradient>
</defs>
</svg>
