<svg width="40" height="40" viewBox="0 0 40 40" fill="none" xmlns="http://www.w3.org/2000/svg">
<path d="M20 40C31.02 40 40 31.04 40 20C40 8.98 31.02 0 20 0C8.96 0 0 8.98 0 20C0 31.04 8.96 40 20 40ZM14.12 23.94C13.54 24.54 12.58 24.54 12 23.96C11.4 23.36 11.4 22.42 12 21.84L18.94 14.86C19.22 14.58 19.6 14.42 20 14.42C20.4 14.42 20.78 14.58 21.06 14.86L28 21.84C28.3 22.12 28.44 22.5 28.44 22.88C28.44 23.28 28.3 23.66 28 23.96C27.4 24.54 26.46 24.54 25.88 23.94L20 18.04L14.12 23.94Z" fill="white"/>
</svg>
