<svg width="14" height="16" viewBox="0 0 14 16" fill="none" xmlns="http://www.w3.org/2000/svg">
<path d="M12.3695 1.66735C10.4771 -0.225056 7.39543 -0.225056 5.50503 1.66735L0.261723 6.90664C0.227572 6.94079 0.209491 6.987 0.209491 7.03521C0.209491 7.08343 0.227572 7.12963 0.261723 7.16378L1.00302 7.90508C1.0369 7.93881 1.08277 7.95775 1.13059 7.95775C1.1784 7.95775 1.22427 7.93881 1.25815 7.90508L6.50146 2.66579C7.15235 2.0149 8.0182 1.65731 8.93829 1.65731C9.85838 1.65731 10.7242 2.0149 11.3731 2.66579C12.024 3.31669 12.3816 4.18253 12.3816 5.10061C12.3816 6.0207 12.024 6.88454 11.3731 7.53544L6.02936 12.8772L5.16351 13.743C4.35391 14.5526 3.03806 14.5526 2.22846 13.743C1.83672 13.3513 1.62177 12.831 1.62177 12.2765C1.62177 11.722 1.83672 11.2017 2.22846 10.81L7.53003 5.51044C7.66463 5.37785 7.84141 5.30352 8.03025 5.30352H8.03226C8.2211 5.30352 8.39587 5.37785 8.52846 5.51044C8.66306 5.64503 8.73538 5.82182 8.73538 6.01066C8.73538 6.19749 8.66105 6.37427 8.52846 6.50686L4.19521 10.8361C4.16105 10.8703 4.14297 10.9165 4.14297 10.9647C4.14297 11.0129 4.16105 11.0591 4.19521 11.0932L4.9365 11.8345C4.97038 11.8683 5.01625 11.8872 5.06407 11.8872C5.11188 11.8872 5.15775 11.8683 5.19163 11.8345L9.52288 7.50329C9.92266 7.10352 10.1416 6.57316 10.1416 6.00865C10.1416 5.44414 9.92065 4.91177 9.52288 4.51401C8.69721 3.68834 7.35525 3.69035 6.52958 4.51401L6.0153 5.0303L1.23003 9.81356C0.905245 10.1364 0.647796 10.5206 0.472611 10.9437C0.297426 11.3668 0.207991 11.8206 0.209491 12.2785C0.209491 13.2086 0.573107 14.0825 1.23003 14.7395C1.91105 15.4185 2.80302 15.758 3.69498 15.758C4.58695 15.758 5.47891 15.4185 6.15793 14.7395L12.3695 8.53186C13.2836 7.61579 13.7898 6.39637 13.7898 5.10061C13.7919 3.80285 13.2856 2.58343 12.3695 1.66735Z" fill="#595959"/>
</svg>
