<svg width="46" height="60" viewBox="0 0 46 60" fill="none" xmlns="http://www.w3.org/2000/svg">
<path d="M45.3749 38.5006C45.3713 35.763 44.3366 33.1272 42.4768 31.1184C40.6169 29.1096 38.0686 27.8752 35.3394 27.6611C35.1368 25.087 34.026 22.6687 32.2054 20.8378C30.3848 19.007 27.9728 17.8826 25.3999 17.6656C25.8999 9.29706 33.8369 7.25856 34.1854 7.17356C34.4036 7.11246 34.5896 6.96909 34.7042 6.77363C34.8189 6.57817 34.8532 6.34586 34.8 6.12559C34.7468 5.90533 34.6103 5.71428 34.4191 5.59267C34.2279 5.47106 33.9969 5.42836 33.7749 5.47356C31.0318 6.27616 28.568 7.83044 26.6624 9.96056C26.2401 9.22149 25.6444 8.59618 24.9266 8.13853C24.2089 7.68089 23.3907 7.40463 22.5424 7.33356C22.192 5.95448 21.5157 4.67965 20.5703 3.61622C19.6249 2.55278 18.4381 1.73181 17.1095 1.2223C15.7809 0.712787 14.3495 0.52962 12.9355 0.68819C11.5214 0.846761 10.1661 1.34244 8.9834 2.13356L1.0134 7.46006C0.893875 7.54014 0.795916 7.64843 0.728176 7.77536C0.660436 7.90229 0.625 8.04394 0.625 8.18781C0.625 8.33168 0.660436 8.47334 0.728176 8.60027C0.795916 8.72719 0.893875 8.83548 1.0134 8.91556L8.9829 14.2426C10.1614 15.031 11.5113 15.5261 12.9201 15.6865C14.3288 15.8469 15.7556 15.6681 17.0811 15.1648C18.4067 14.6616 19.5926 13.8485 20.54 12.7936C21.4873 11.7387 22.1686 10.4724 22.5269 9.10056C23.2086 9.18296 23.8506 9.465 24.3725 9.91123C24.8943 10.3575 25.2727 10.948 25.4599 11.6086C24.3581 13.4425 23.7357 15.5243 23.6499 17.6621C21.0673 17.8678 18.6427 18.9877 16.8118 20.8206C14.9808 22.6535 13.8634 25.0793 13.6604 27.6621C10.9294 27.8721 8.3784 29.1052 6.51735 31.1148C4.6563 33.1245 3.62242 35.7625 3.62242 38.5016C3.62242 41.2406 4.6563 43.8787 6.51735 45.8883C8.3784 47.898 10.9294 49.1311 13.6604 49.3411C13.8704 52.072 15.1035 54.6231 17.1132 56.4841C19.1228 58.3452 21.7609 59.379 24.4999 59.379C27.2389 59.379 29.877 58.3452 31.8866 56.4841C33.8963 54.6231 35.1294 52.072 35.3394 49.3411C38.0688 49.1269 40.6172 47.8924 42.4771 45.8833C44.3369 43.8743 45.3716 41.2383 45.3749 38.5006ZM9.9559 3.58806C10.8731 2.97503 11.9198 2.58272 13.0139 2.44188C14.1081 2.30104 15.22 2.41549 16.2625 2.77627C17.3051 3.13705 18.2499 3.73436 19.0229 4.52138C19.796 5.30839 20.3763 6.26375 20.7184 7.31256H4.3834L9.9559 3.58806ZM16.7559 13.4091C15.6616 13.8835 14.4655 14.0752 13.2778 13.9666C12.09 13.858 10.9485 13.4526 9.9584 12.7876L4.3859 9.06256H20.7209C20.408 10.0282 19.8921 10.9157 19.2077 11.6654C18.5234 12.4151 17.6866 13.0096 16.7534 13.4091H16.7559ZM24.4999 19.3756C26.7744 19.3786 28.9659 20.2301 30.6457 21.7636C32.3255 23.2972 33.3727 25.4022 33.5824 27.6671C31.6161 27.836 29.7326 28.5357 28.133 29.6915C26.5334 30.8473 25.2777 32.4158 24.4999 34.2296C23.7221 32.4157 22.4663 30.8471 20.8666 29.6913C19.2668 28.5355 17.3832 27.8359 15.4169 27.6671C15.6269 25.4023 16.6743 23.2973 18.3541 21.7639C20.0339 20.2304 22.2254 19.3788 24.4999 19.3756ZM5.3749 38.5006C5.3749 36.6958 5.91007 34.9316 6.91274 33.431C7.91541 31.9304 9.34054 30.7608 11.0079 30.0702C12.6753 29.3795 14.51 29.1988 16.2801 29.5509C18.0502 29.903 19.6761 30.7721 20.9522 32.0482C22.2284 33.3244 23.0975 34.9503 23.4496 36.7204C23.8017 38.4904 23.6209 40.3252 22.9303 41.9925C22.2396 43.6599 21.0701 45.0851 19.5695 46.0877C18.0689 47.0904 16.3047 47.6256 14.4999 47.6256C12.0807 47.6228 9.76129 46.6605 8.05062 44.9498C6.33995 43.2392 5.37768 40.9198 5.3749 38.5006ZM24.4999 57.6256C22.2254 57.6223 20.0339 56.7707 18.3541 55.2373C16.6743 53.7038 15.6269 51.5988 15.4169 49.3341C17.3832 49.1653 19.2668 48.4656 20.8666 47.3098C22.4663 46.154 23.7221 44.5854 24.4999 42.7716C25.2777 44.5853 26.5334 46.1539 28.133 47.3097C29.7326 48.4655 31.6161 49.1652 33.5824 49.3341C33.3727 51.5989 32.3255 53.704 30.6457 55.2375C28.9659 56.771 26.7744 57.6225 24.4999 57.6256ZM34.4999 47.6256C32.6951 47.6256 30.9309 47.0904 29.4303 46.0877C27.9297 45.0851 26.7601 43.6599 26.0695 41.9925C25.3788 40.3252 25.1981 38.4904 25.5502 36.7204C25.9023 34.9503 26.7714 33.3244 28.0475 32.0482C29.3237 30.7721 30.9496 29.903 32.7197 29.5509C34.4898 29.1988 36.3245 29.3795 37.9919 30.0702C39.6593 30.7608 41.0844 31.9304 42.0871 33.431C43.0897 34.9316 43.6249 36.6958 43.6249 38.5006C43.6222 40.9198 42.66 43.2393 40.9493 44.95C39.2386 46.6607 36.9192 47.6229 34.4999 47.6256Z" fill="#1A1A1A"/>
</svg>
