<svg width="60" height="54" viewBox="0 0 60 54" fill="none" xmlns="http://www.w3.org/2000/svg">
<path d="M55.7952 30.762C55.6953 30.2689 55.4874 29.804 55.1864 29.4009C54.8853 28.9977 54.4987 28.6663 54.0542 28.4305C53.9109 28.3562 53.7625 28.2921 53.6102 28.2385C53.8646 27.7157 53.9776 27.1354 53.938 26.5554C53.8985 25.9754 53.7077 25.4159 53.3847 24.9325C52.1529 23.0551 50.5502 21.4494 48.6752 20.214C48.256 19.936 47.7804 19.7544 47.2826 19.6821C46.7848 19.6098 46.2772 19.6487 45.7962 19.796C45.6421 19.8444 45.4917 19.9041 45.3462 19.9745C45.2926 19.82 45.2279 19.6697 45.1527 19.5245C44.9203 19.0839 44.593 18.7004 44.1945 18.4015C43.7961 18.1026 43.3362 17.8958 42.8482 17.796C40.6497 17.3386 38.3807 17.3362 36.1812 17.789C35.6065 17.9008 35.071 18.1614 34.6283 18.5447C34.1857 18.928 33.8512 19.4206 33.6582 19.9735C33.1354 19.7189 32.5551 19.6057 31.9749 19.6453C31.3948 19.6849 30.8351 19.8758 30.3517 20.199C28.474 21.4304 26.8681 23.0329 25.6327 24.908C25.3544 25.3271 25.1726 25.8029 25.1004 26.3008C25.0282 26.7988 25.0674 27.3065 25.2152 27.7875C25.2636 27.9416 25.3231 28.092 25.3932 28.2375C25.2388 28.2912 25.0884 28.3558 24.9432 28.431C24.5029 28.6635 24.1196 28.9907 23.8209 29.3891C23.5222 29.7875 23.3155 30.2471 23.2157 30.735C22.7588 32.9334 22.7562 35.202 23.2082 37.4015C23.3205 37.9762 23.5813 38.5115 23.9645 38.9543C24.3477 39.3971 24.8401 39.7319 25.3927 39.9255C25.3219 40.0725 25.2616 40.2244 25.2122 40.38C25.0653 40.8556 25.0256 41.3578 25.0959 41.8506C25.1662 42.3433 25.3447 42.8144 25.6187 43.23C26.8503 45.1077 28.453 46.7136 30.3282 47.949C30.7475 48.2274 31.2233 48.4092 31.7213 48.4814C32.2193 48.5536 32.7272 48.5144 33.2082 48.3665C33.3624 48.3181 33.5128 48.2586 33.6582 48.1885C33.8484 48.7382 34.1793 49.2286 34.6179 49.6107C35.0566 49.9928 35.5876 50.2534 36.1582 50.3665C38.3568 50.8241 40.6257 50.8265 42.8252 50.3735C43.4 50.2616 43.9354 50.0011 44.3781 49.6178C44.8208 49.2345 45.1553 48.7418 45.3482 48.189C45.8717 48.4408 46.4516 48.5523 47.0311 48.5127C47.6106 48.4731 48.1699 48.2837 48.6542 47.963C50.5319 46.7316 52.1378 45.1291 53.3732 43.254C53.7001 42.7683 53.8942 42.2056 53.9363 41.6217C53.9785 41.0378 53.8671 40.453 53.6132 39.9255C53.7677 39.8717 53.9181 39.8068 54.0632 39.7315C54.5037 39.499 54.8872 39.1718 55.186 38.7733C55.4848 38.3748 55.6915 37.915 55.7912 37.427C56.2468 35.2288 56.2482 32.9607 55.7952 30.762ZM46.3082 21.469C46.5427 21.3974 46.7902 21.3786 47.0328 21.4142C47.2754 21.4497 47.5071 21.5386 47.7112 21.6745C49.3881 22.7788 50.8213 24.2146 51.9227 25.8935C52.0543 26.0938 52.1401 26.3206 52.174 26.5579C52.208 26.7952 52.1892 27.037 52.119 27.2661C52.0488 27.4953 51.929 27.7062 51.768 27.8837C51.607 28.0613 51.4089 28.2012 51.1877 28.2935L41.1187 32.465L45.2882 22.399V22.3965C45.3788 22.1759 45.5173 21.9782 45.6938 21.8178C45.8702 21.6574 46.0801 21.5382 46.3082 21.469ZM35.3962 20.349C35.5112 20.1326 35.6728 19.9445 35.8694 19.7982C36.0659 19.6519 36.2925 19.5511 36.5327 19.503C38.4996 19.0976 40.5287 19.0997 42.4947 19.509C42.7296 19.5574 42.9509 19.657 43.1429 19.8008C43.3348 19.9446 43.4926 20.1289 43.605 20.3408C43.7175 20.5526 43.7817 20.7866 43.7933 21.0262C43.8048 21.2657 43.7633 21.5048 43.6717 21.7265L39.5017 31.7955L35.3307 21.725C35.239 21.5051 35.1973 21.2676 35.2087 21.0296C35.22 20.7916 35.2841 20.5592 35.3962 20.349ZM27.0962 25.8715C28.2007 24.1945 29.6369 22.7614 31.3162 21.6605C31.5162 21.5285 31.7429 21.4422 31.9801 21.4079C32.2173 21.3736 32.4592 21.392 32.6884 21.4619C32.9177 21.5319 33.1286 21.6515 33.3063 21.8124C33.484 21.9732 33.6239 22.1713 33.7162 22.3925L37.8872 32.462L27.8197 28.292C27.5987 28.2026 27.4007 28.0646 27.2402 27.8883C27.0797 27.712 26.961 27.5019 26.8927 27.2735C26.8208 27.0395 26.8015 26.7925 26.8363 26.5501C26.8712 26.3078 26.9593 26.0762 27.0942 25.872L27.0962 25.8715ZM24.9232 37.049C24.5185 35.082 24.5205 33.0531 24.9292 31.087C24.9777 30.8521 25.0774 30.6308 25.2212 30.4388C25.365 30.2469 25.5495 30.0891 25.7613 29.9767C25.9732 29.8642 26.2073 29.8 26.4468 29.7884C26.6864 29.7769 26.9256 29.8184 27.1472 29.91L37.2152 34.0805L27.1452 38.2515C26.9258 38.3445 26.6881 38.387 26.45 38.3756C26.2119 38.3643 25.9794 38.2995 25.7697 38.186C25.5533 38.0709 25.3651 37.9093 25.2187 37.7126C25.0723 37.516 24.9714 37.2893 24.9232 37.049ZM32.6952 46.6935C32.4608 46.7654 32.2132 46.7843 31.9706 46.7488C31.7279 46.7132 31.4962 46.6241 31.2922 46.488C29.6153 45.3834 28.1821 43.9475 27.0807 42.2685C26.9489 42.0684 26.8628 41.8417 26.8286 41.6045C26.7944 41.3673 26.813 41.1255 26.8829 40.8963C26.9529 40.6671 27.0725 40.4562 27.2333 40.2785C27.3941 40.1009 27.5921 39.9609 27.8132 39.8685L37.8847 35.699L33.7152 45.7665V45.769C33.6256 45.99 33.4874 46.188 33.3108 46.3483C33.1342 46.5086 32.9238 46.6271 32.6952 46.695V46.6935ZM43.6072 47.8125C43.4922 48.0289 43.3305 48.2171 43.1339 48.3634C42.9373 48.5097 42.7106 48.6105 42.4702 48.6585C40.5035 49.0637 38.4746 49.0616 36.5087 48.6525C36.2738 48.6042 36.0524 48.5046 35.8605 48.3608C35.6685 48.2171 35.5106 48.0327 35.3982 47.8208C35.2857 47.609 35.2215 47.3749 35.21 47.1353C35.1985 46.8958 35.2401 46.6566 35.3317 46.435L39.5017 36.3685L43.6727 46.4385C43.7658 46.6579 43.8083 46.8956 43.7969 47.1337C43.7856 47.3718 43.7208 47.6043 43.6072 47.814V47.8125ZM51.9072 42.29C50.8027 43.967 49.3666 45.4001 47.6872 46.501C47.4872 46.6329 47.2605 46.7191 47.0233 46.7534C46.7862 46.7876 46.5443 46.7691 46.3151 46.6992C46.0859 46.6293 45.875 46.5097 45.6973 46.3489C45.5196 46.1881 45.3796 45.9901 45.2872 45.769L41.1187 35.699L51.1862 39.8685C51.4072 39.958 51.6052 40.0959 51.7656 40.2722C51.9261 40.4485 52.0449 40.6586 52.1132 40.887C52.1853 41.1216 52.2044 41.3693 52.1691 41.6122C52.1338 41.855 52.0451 42.0871 51.9092 42.2915L51.9072 42.29ZM54.0717 37.0735C54.0234 37.3084 53.9239 37.5298 53.7801 37.7217C53.6363 37.9137 53.4519 38.0716 53.2401 38.184C53.0282 38.2965 52.7941 38.3607 52.5546 38.3722C52.315 38.3837 52.0759 38.3421 51.8542 38.2505L41.7862 34.0805L51.8542 29.91C52.0737 29.8169 52.3113 29.7745 52.5495 29.7858C52.7876 29.7972 53.0201 29.862 53.2297 29.9755C53.4462 30.0905 53.6344 30.2522 53.7808 30.4488C53.9272 30.6455 54.0281 30.8721 54.0762 31.1125C54.4825 33.0793 54.4816 35.1085 54.0737 37.075L54.0717 37.0735Z" fill="#1A1A1A"/>
<path d="M39.5 14.2071C36.4451 14.2046 33.4313 14.9107 30.6955 16.2701C28.0826 14.7873 25.1003 14.0823 22.1 14.2381C22.6375 13.0191 22.8943 11.695 22.8515 10.3634C22.8086 9.0319 22.4672 7.727 21.8524 6.54512C21.2376 5.36324 20.3652 4.33457 19.2995 3.53508C18.2338 2.7356 17.0022 2.18573 15.6955 1.92608L6.2955 0.0575842C6.15439 0.0297429 6.0086 0.037075 5.87099 0.0789331C5.73339 0.120791 5.60821 0.195887 5.50651 0.29759C5.4048 0.399293 5.32971 0.524473 5.28785 0.662077C5.24599 0.799681 5.23866 0.945475 5.2665 1.08658L7.1325 10.4891C7.5755 12.7362 8.87212 14.7243 10.75 16.0356C4.632 19.2516 0.625 26.2706 0.625 34.0821C0.625 45.0411 8.433 53.9571 18.0305 53.9571C18.8577 53.9562 19.6835 53.8894 20.5 53.7571C21.3164 53.8893 22.142 53.9562 22.969 53.9571C25.6776 53.9454 28.3371 53.2337 30.6895 51.8911C33.3734 53.2191 36.3228 53.9233 39.3172 53.9512C42.3115 53.9791 45.2735 53.33 47.9817 52.0522C50.69 50.7745 53.0744 48.9013 54.9569 46.5725C56.8394 44.2437 58.1713 41.5196 58.853 38.6038C59.5348 35.6879 59.5487 32.6557 58.8938 29.7336C58.239 26.8116 56.9322 24.0754 55.0712 21.7294C53.2102 19.3834 50.8431 17.4883 48.1467 16.1857C45.4504 14.8831 42.4945 14.2067 39.5 14.2071ZM20.6 8.00958C20.9769 8.9519 21.1478 9.96393 21.1013 10.9777C21.0548 11.9916 20.792 12.9837 20.3305 13.8876L8.7805 2.33758L15.355 3.64458C16.5249 3.87449 17.6184 4.39469 18.5348 5.15739C19.4513 5.92009 20.1614 6.90085 20.6 8.00958ZM8.85 10.1491L7.5435 3.57408L19.0935 15.1241C18.1101 15.6236 17.0244 15.8888 15.9214 15.8986C14.8185 15.9085 13.7282 15.6629 12.736 15.181C11.7438 14.6991 10.8767 13.9941 10.2025 13.1211C9.52829 12.2481 9.06538 11.2309 8.85 10.1491ZM22.97 52.2076C22.1922 52.2067 21.4159 52.1398 20.6495 52.0076C20.5512 51.9906 20.4508 51.9906 20.3525 52.0076C19.5859 52.1398 18.8094 52.2067 18.0315 52.2076C9.4 52.2071 2.375 44.0761 2.375 34.0821C2.375 26.4491 6.5035 19.6606 12.675 17.0571C14.0044 17.5729 15.4391 17.7585 16.856 17.598C18.2729 17.4375 19.6297 16.9357 20.81 16.1356C23.5539 15.6853 26.3698 16.0916 28.8745 17.2991C26.0413 19.0884 23.7072 21.5658 22.0896 24.5004C20.4721 27.4351 19.6238 30.7314 19.6238 34.0823C19.6238 37.4332 20.4721 40.7296 22.0896 43.6643C23.7072 46.5989 26.0413 49.0763 28.8745 50.8656C27.0311 51.7489 25.0131 52.2073 22.969 52.2071L22.97 52.2076ZM39.501 52.2076C35.9162 52.2076 32.4119 51.1446 29.4313 49.153C26.4506 47.1614 24.1275 44.3306 22.7557 41.0187C21.3838 37.7068 21.0249 34.0625 21.7243 30.5466C22.4236 27.0307 24.1499 23.8011 26.6847 21.2663C29.2195 18.7314 32.4491 17.0052 35.965 16.3059C39.4809 15.6065 43.1252 15.9654 46.4371 17.3373C49.7491 18.7091 52.5798 21.0322 54.5714 24.0129C56.563 26.9935 57.626 30.4978 57.626 34.0826C57.6204 38.8881 55.7089 43.4951 52.3108 46.8929C48.9127 50.2908 44.3055 52.2019 39.5 52.2071L39.501 52.2076Z" fill="#1A1A1A"/>
</svg>
