<svg width="140" height="170" viewBox="0 0 140 170" fill="none" xmlns="http://www.w3.org/2000/svg">
<path d="M74.3986 58.5411C76.4596 45.2178 81.2536 29.7612 91.9338 19.9528C101.949 10.7564 118.055 6.09437 131.874 3.70631L129.268 2.37922C130.496 6.78458 131.724 11.1889 132.952 15.5938C133.445 14.8149 133.939 14.036 134.432 13.2571C122.692 14.8278 108.751 18.5749 100.422 26.5499C91.2162 35.3646 87.9852 49.6636 86.818 61.3398C86.5745 63.7742 90.8138 63.7597 91.0556 61.3398C92.1728 50.1654 95.4271 35.8475 104.876 27.9587C112.756 21.3786 125.081 18.3227 135.559 16.9204C136.71 16.7664 137.289 15.4822 137.038 14.5837C135.81 10.1788 134.582 5.77393 133.354 1.36907C133.061 0.318066 131.851 -0.148384 130.747 0.0424805C116.191 2.55812 99.5741 7.67312 88.9373 17.2667C77.6663 27.4325 72.4594 43.657 70.3128 57.5314C69.9426 59.922 74.0251 60.9565 74.3986 58.5411Z" fill="#1A1A1A"/>
<path d="M78.7949 34.1263C62.3136 33.784 43.5001 31.9207 27.3411 35.2421C19.2333 36.9086 21.3332 44.8108 20.5306 50.9021C20.3367 52.3782 20.4773 52.4554 20.4467 52.5137C19.7742 53.8303 18.1939 55.1719 17.2179 56.3375C13.4672 60.8191 9.74765 65.3306 6.23206 69.9637C2.55418 74.8101 -0.0498558 78.2078 0.000724171 83.9971C0.0724254 92.1804 0.9862 100.397 1.71377 108.548C3.34234 126.787 5.35942 144.994 7.22476 163.214C7.54269 166.32 7.04413 168.108 10.4797 169.181C16.0385 170.917 24.9333 169.372 30.6789 169.258C52.4855 168.825 74.3355 168.084 96.0938 166.68C102.852 166.245 108.865 165.482 115.391 163.771C122.259 161.971 136.151 159.477 138.959 152.428C140.952 147.427 139.486 139.912 139.4 134.761C139.225 124.31 138.844 113.861 138.438 103.415C138.072 93.9978 137.637 84.5836 137.256 75.1669C136.994 68.6959 133.727 65.352 128.87 60.4244C125.195 56.6948 120.28 53.2747 117.098 49.2202C115.837 47.613 116.996 50.931 116.812 48.0211C116.653 45.51 116.575 42.9988 116.123 40.5091C114.224 30.0513 105.76 33.1795 96.0471 34.1263C93.3647 34.3875 93.3352 38.1898 96.0471 37.9252C99.6877 37.5704 104.493 36.3704 108.07 36.9255C114.093 37.8609 111.487 44.74 112.6 48.953C113.701 53.1182 118.851 56.2493 122.101 59.3894C126.706 63.8411 132.642 68.1169 132.987 74.401C133.352 81.0688 133.564 87.7476 133.839 94.4184C134.54 111.379 135.522 128.413 135.213 145.39C135.183 147.007 135.643 149.749 134.904 151.273C132.814 155.581 123.891 157.363 119.404 158.688C112.644 160.686 106.202 162.168 99.1469 162.677C80.3756 164.031 61.5065 164.625 42.688 165.162C34.3595 165.4 26.0194 165.641 17.6859 165.605C15.5221 165.595 13.3077 165.386 11.1511 165.444C11.9882 165.421 11.4501 167.918 11.6047 164.59C11.8759 158.711 10.3085 152.313 9.69652 146.462C8.75161 137.444 7.82784 128.425 6.96075 119.4C6.11812 110.632 5.2955 101.858 4.69966 93.0719C4.43564 89.1734 3.21227 83.8585 4.38951 80.0143C6.96019 71.6192 16.9017 63.25 22.511 56.3121C26.2806 51.6486 22.5966 41.884 27.1583 39.1486C29.8184 37.5534 36.5628 38.1918 39.6493 38.0672C45.4099 37.8355 51.1793 37.7702 56.9443 37.7498C64.2278 37.7224 71.5136 37.7742 78.7949 37.9252C81.5228 37.982 81.5217 34.1826 78.7949 34.1263Z" fill="#1A1A1A"/>
<path d="M22.61 54.9803C39.7877 53.859 56.966 52.7377 74.1438 51.616C76.8473 51.44 76.869 47.6392 74.1438 47.8171C56.966 48.9384 39.7877 50.0596 22.61 51.1814C19.9065 51.3578 19.8848 55.1582 22.61 54.9803Z" fill="#1A1A1A"/>
<path d="M99.9921 51.6758H114.731C117.457 51.6758 117.462 47.8764 114.731 47.8764H99.9921C97.2653 47.8764 97.2608 51.6758 99.9921 51.6758Z" fill="#1A1A1A"/>
<path d="M109.478 163.753L104.266 113.086C103.249 103.197 102.232 93.3082 101.214 83.4186C101.027 81.5917 100.327 79.2519 100.597 77.42C101.086 74.109 104.423 70.1641 106.138 67.1063C109.194 61.6549 112.457 56.3077 115.845 51.0168C114.529 50.6978 113.213 50.3779 111.897 50.058C113.363 69.7859 114.828 89.5143 116.294 109.242C116.475 111.669 120.713 111.687 120.532 109.242C119.066 89.5143 117.6 69.7859 116.134 50.058C116 48.2505 113.286 47.3814 112.186 49.0996C108.798 54.3896 105.535 59.7378 102.479 65.1887C100.498 68.7219 97.0502 72.9818 96.3704 76.9027C96.1108 78.4023 96.6494 80.2307 96.8028 81.7242L99.7798 110.666C101.6 128.361 103.42 146.057 105.24 163.753C105.489 166.167 109.729 166.191 109.478 163.753Z" fill="#1A1A1A"/>
<path d="M2.34427 81.4084C34.2786 80.3071 66.2123 79.2063 98.1461 78.1049C100.864 78.0112 100.878 74.2119 98.1461 74.3055C66.2123 75.4069 34.2786 76.5082 2.34427 77.6096C-0.373708 77.7027 -0.387048 81.5026 2.34427 81.4084Z" fill="#1A1A1A"/>
<path d="M109.461 163.358C114.799 156.31 120.138 149.263 125.477 142.215C124.368 142.343 123.258 142.471 122.15 142.599C126.167 145.753 130.183 148.907 134.201 152.061C136.245 153.666 139.253 150.989 137.197 149.374C133.18 146.22 129.163 143.067 125.146 139.913C124.072 139.07 122.618 139.24 121.818 140.297C116.479 147.345 111.14 154.393 105.802 161.44C104.266 163.468 107.936 165.371 109.461 163.358Z" fill="#1A1A1A"/>
<path d="M119.309 129.12C120.358 133.337 121.129 137.583 121.599 141.883C121.862 144.295 126.101 144.319 125.836 141.883C125.33 137.247 124.526 132.659 123.395 128.11C122.802 125.725 118.715 126.734 119.309 129.12Z" fill="#1A1A1A"/>
<path d="M76.4081 90.7574C58.5939 99.8352 40.7797 108.913 22.9661 117.99C22.2325 118.365 21.6472 119.378 21.9923 120.136C29.2953 136.18 47.7848 143.233 65.3177 135.157C83.1385 126.948 86.275 107.518 79.5201 91.8926C78.5452 89.6371 74.4465 90.6179 75.4342 92.9028C83.4515 111.449 73.6067 138.888 46.1512 134.792C40.3167 133.921 35.4349 130.949 31.6242 126.972C30.3108 125.602 26.1783 121.577 26.2661 119.485C26.2466 119.947 32.5091 117.498 34.5356 116.465C39.2512 114.062 43.9668 111.659 48.6819 109.256C58.6367 104.183 68.5915 99.1111 78.5469 94.038C80.9174 92.83 78.7848 89.5464 76.4081 90.7574Z" fill="#1A1A1A"/>
<path d="M23.3854 120.792C35.8808 127.294 53.0224 128.34 64.7031 119.899C73.4834 113.554 78.0356 102.685 78.159 92.7226C78.1896 90.2772 73.9525 90.2757 73.9214 92.7226C73.8241 100.608 70.572 109.304 64.4174 114.988C54.2675 124.361 37.4838 123.734 25.5242 117.512C23.1608 116.282 21.0253 119.564 23.3854 120.792Z" fill="#1A1A1A"/>
<path d="M83.8374 27.6874C87.2879 29.3374 90.7379 30.9874 94.1885 32.6379C96.5935 33.7881 98.7368 30.5095 96.3267 29.3573C92.8767 27.7068 89.4262 26.0573 85.9762 24.4068C83.5711 23.2561 81.4279 26.5347 83.8374 27.6874Z" fill="#1A1A1A"/>
<path d="M91.1482 19.7134C93.6839 22.2071 96.0156 24.8364 98.1427 27.6201C99.6746 29.625 103.348 27.7268 101.802 25.703C99.4728 22.6551 96.9205 19.7568 94.1447 17.0268C92.3032 15.2168 89.3135 17.9094 91.1482 19.7134Z" fill="#1A1A1A"/>
<path d="M98.6135 13.0391C100.306 16.7124 101.739 20.4575 102.919 24.2887C103.644 26.6424 107.733 25.6427 107.005 23.2786C105.825 19.4473 104.392 15.7028 102.7 12.029C101.673 9.80088 97.5713 10.7776 98.6135 13.0391Z" fill="#1A1A1A"/>
<path d="M69.943 54.9463C67.1611 55.7556 66.0322 58.6111 67.8575 60.7978C70.3943 63.8382 77.889 63.5028 81.518 63.5641C85.0864 63.6244 91.7652 63.8382 93.7745 60.4654C95.6476 57.3234 92.7751 54.6981 89.4307 54.3612C86.725 54.0886 86.7466 57.89 89.4307 58.1601C89.4391 58.929 89.0478 59.2903 88.2557 59.244C87.1213 59.5041 85.9663 59.6596 84.7901 59.7104C83.4289 59.8036 82.0583 59.7827 80.696 59.7329C79.3214 59.6835 77.9524 59.5754 76.5845 59.4468C75.1444 59.3118 72.2091 58.2787 71.0691 58.6101C73.6526 57.8586 72.5476 54.1888 69.943 54.9463Z" fill="#1A1A1A"/>
<path d="M45.1816 107.95C44.1806 112.202 43.179 116.454 42.1779 120.706C41.616 123.091 45.6996 124.111 46.2638 121.716C47.2654 117.464 48.2664 113.212 49.268 108.96C49.8294 106.575 45.7458 105.555 45.1816 107.95Z" fill="#1A1A1A"/>
<path d="M50.4234 107.221C53.2297 111.4 55.7921 115.689 58.1154 120.101C59.2793 122.31 62.9338 120.384 61.7744 118.183C59.4505 113.772 56.8887 109.483 54.0823 105.303C52.6772 103.211 49.0116 105.119 50.4234 107.221Z" fill="#1A1A1A"/>
<path d="M55.7156 104.919C60.4701 106.764 65.3192 108.108 70.4333 108.879C73.1001 109.282 74.2468 105.621 71.5594 105.216C66.8393 104.504 62.251 103.345 57.8544 101.639C55.3777 100.678 53.2166 103.95 55.7156 104.919Z" fill="#1A1A1A"/>
<path d="M34.4948 146.843C40.8645 153.119 50.3368 151.766 58.5964 149.932C61.2421 149.345 60.1216 145.68 57.4697 146.269C50.7176 147.768 42.7838 149.371 37.4912 144.157C35.652 142.345 32.6622 145.037 34.4948 146.843Z" fill="#1A1A1A"/>
<path d="M74.3225 147.182C74.6293 147.044 74.9362 146.906 75.243 146.768C76.2651 146.307 76.5542 145.013 76.0028 144.168C75.3942 143.236 74.1302 143.024 73.1042 143.487C72.7973 143.625 72.4905 143.764 72.1837 143.902C71.1616 144.362 70.872 145.655 71.4239 146.5C72.032 147.433 73.2965 147.644 74.3225 147.182Z" fill="#1A1A1A"/>
<path d="M6.74786 72.2535C8.39198 74.4591 10.3029 76.4725 12.4923 78.258C13.7184 79.2572 15.5477 77.6266 14.3165 76.623C12.2872 74.9675 10.4997 73.1316 8.97504 71.0859C8.05682 69.8554 5.8213 71.0116 6.74786 72.2535Z" fill="#1A1A1A"/>
<path d="M9.61701 67.6456C12.5462 71.3154 15.9206 74.6214 19.7786 77.5228C21.042 78.4731 22.8756 76.8455 21.6022 75.8877C17.9182 73.1169 14.6433 69.9853 11.8442 66.478C10.8865 65.2785 8.64821 66.4316 9.61701 67.6456Z" fill="#1A1A1A"/>
<path d="M13.8692 62.6282C18.1185 68.2311 23.0909 73.2758 28.8025 77.7155C30.0515 78.6868 31.8835 77.0572 30.6262 76.0805C25.0802 71.7698 20.2251 66.905 16.0964 61.4606C15.1682 60.2371 12.9327 61.3928 13.8692 62.6282Z" fill="#1A1A1A"/>
</svg>
