<svg width="180" height="170" viewBox="0 0 180 170" fill="none" xmlns="http://www.w3.org/2000/svg">
<path d="M3.51475 17.3622C9.21498 13.904 13.2615 8.93256 15.6185 2.7078C14.1969 2.31556 12.7747 1.9239 11.3531 1.53224C9.50858 9.39559 14.3837 16.1327 22.2981 17.1429C25.114 17.5026 25.0879 13.076 22.2981 12.7198C17.253 12.0757 14.4824 7.55102 15.6185 2.7078C16.2793 -0.106922 12.3483 -1.09738 11.3531 1.53224C9.41748 6.64412 5.94651 10.7127 1.282 13.5425C-1.1486 15.0169 1.07254 18.8441 3.51475 17.3622Z" fill="#1A1A1A"/>
<path d="M3.34051 18.3351C6.21094 16.8306 9.42718 28.5931 9.92618 30.2735C10.6811 32.8207 13.978 32.0542 14.2704 29.6857C14.9464 24.2117 17.9149 19.4532 22.4494 16.3455C24.7825 14.7458 22.573 10.9104 20.2161 12.5258C14.2646 16.6054 10.7281 22.5436 9.84669 29.6857C11.295 29.4896 12.7432 29.294 14.1909 29.0979C12.6307 23.8358 9.20321 10.2728 1.10777 14.5154C-1.41452 15.8372 0.818809 19.6563 3.34051 18.3351Z" fill="#1A1A1A"/>
<path d="M162.255 38.2015C167.059 44.9392 169.787 53.4652 171.808 61.3755C176.784 80.8523 178.196 103.863 170.556 122.813C164.959 136.696 154.855 148.696 142.906 157.597C130.314 166.978 110.911 164.892 95.9064 164.666C81.8758 164.454 67.0032 165.311 55.0921 157.608C43.1573 149.89 33.6205 138.448 28.5742 125.128C19.0711 100.043 22.151 58.0583 44.0804 39.0835C57.4461 27.5176 80.7878 26.4616 97.3443 25.9429C111.589 25.4967 125.963 26.374 139.913 29.404C146.866 30.9137 157.818 32.684 162.601 38.6488C164.382 40.87 167.494 37.7222 165.728 35.5214C161.882 30.7234 154.293 28.6584 148.699 27.0383C137.335 23.7484 125.371 22.2166 113.578 21.6398C92.2428 20.596 66.745 21.3178 47.3773 31.646C22.6442 44.8359 17.3641 83.714 20.0697 108.203C21.9746 125.443 29.7283 141.475 42.4499 153.31C48.7989 159.215 56.5938 165.432 65.3791 166.703C80.4287 168.881 95.7289 169.557 110.915 168.854C119.53 168.455 131.267 169.081 139.215 165.429C149.333 160.779 158.77 150.124 165.123 141.427C179.461 121.797 181.892 98.5396 178.837 74.8909C177.157 61.8855 173.876 46.9108 166.074 35.9688C164.436 33.6699 160.598 35.8771 162.255 38.2015Z" fill="#1A1A1A"/>
<path d="M41.0932 35.9688C28.2138 55.9991 95.1207 54.812 98.8847 54.7249C103.007 54.6309 173.261 54.017 166.301 36.4968C165.262 33.8829 160.983 35.0225 162.036 37.6736C165.606 46.6597 106.398 50.0813 102.519 50.202C86.5866 50.6987 63.3685 53.142 48.7738 44.6747C46.3705 43.2804 43.3904 40.5689 44.9129 38.2016C46.4569 35.8 42.6291 33.5794 41.0932 35.9688Z" fill="#1A1A1A"/>
<path d="M37.0197 80.7307C31.0212 97.3846 33.8342 118.397 45.0658 132.18C64.8478 156.454 108.09 157.905 135 146.865C156.983 137.848 168.976 116.654 168.051 93.2737C167.775 86.2778 167.327 76.4045 161.178 72.1363C150.719 64.8769 135.931 62.8142 123.637 61.3247C105.582 59.1367 86.8381 59.2301 68.9553 62.7678C57.6059 65.0127 42.9665 69.0105 37.2425 80.2027C35.9486 82.7319 39.7636 84.9734 41.0622 82.4354C45.9431 72.8911 58.5406 69.5269 68.201 67.4311C81.6572 64.5114 95.6832 63.9509 109.405 64.5746C122.41 65.1665 135.738 66.7766 148.108 71.0158C152.043 72.3643 158.229 74.0899 160.735 77.6711C162.396 80.046 162.726 84.6595 163.113 87.4231C165.947 107.654 158.408 128.711 140.299 139.361C116.326 153.459 73.7521 153.206 52.5729 133.722C38.8428 121.091 35.0545 99.2054 41.2856 81.9063C42.2517 79.2238 37.9783 78.068 37.0197 80.7307Z" fill="#1A1A1A"/>
<path d="M75.907 99.2172C77.1342 93.9783 78.6034 88.7399 80.4828 83.6965C81.6577 80.5406 83.0364 75.8227 86.0931 73.9839C88.732 72.3958 93.9013 73.0828 96.9116 73.164C104.647 73.3706 114.382 72.9319 120.528 78.208C128.516 85.0635 127.341 88.3152 124.252 96.7199C122.355 101.883 119.895 113.92 114.281 115.591C108.951 117.177 99.5406 114.568 93.9582 114.119C92.3933 113.993 88.4128 112.807 90.6009 114.236C88.8828 113.114 87.3533 110.582 85.9979 109.057C82.4445 105.06 78.8918 101.063 75.3384 97.0651C73.4428 94.9333 70.324 98.0707 72.2104 100.193C77.3379 105.962 83.428 117.089 91.2769 118.325C98.2995 119.43 105.888 119.749 112.992 119.945C117.792 120.077 119.256 118.947 121.639 114.64C125.253 108.11 127.38 100.728 130.021 93.7827C132.24 87.9455 132.311 85.132 128.208 79.8919C119.048 68.1903 103.131 67.5439 89.1973 68.8535C76.6381 70.0337 74.0149 87.9084 71.6411 98.0416C70.9924 100.811 75.2572 101.992 75.907 99.2172Z" fill="#1A1A1A"/>
<path d="M83.7474 73.2662C88.1549 78.3038 93.3405 87.6792 99.8292 89.366C108.906 91.7252 120.144 90.6361 129.547 91.2233C132.389 91.4009 132.379 86.9771 129.547 86.7996C120.279 86.2205 110.829 84.9846 101.55 85.0502C99.6923 85.063 98.486 84.145 100.218 85.3873C98.5794 84.2123 97.1172 81.8432 95.8134 80.3538C92.8339 76.9484 89.8544 73.5435 86.8755 70.1381C84.9967 67.9918 81.8791 71.1309 83.7474 73.2662Z" fill="#1A1A1A"/>
<path d="M96.643 86.5013C93.4378 96.1176 90.232 105.734 87.0268 115.35C86.1245 118.057 90.395 119.218 91.2921 116.526L100.909 87.6769C101.811 84.9701 97.5406 83.809 96.643 86.5013Z" fill="#1A1A1A"/>
<path d="M38.0388 83.2293C60.1481 92.5607 86.2117 95.5895 109.968 95.0319C127.263 94.6263 150.593 91.9131 163.808 79.0371C165.85 77.0469 162.721 73.9206 160.68 75.9091C147.613 88.6418 123.286 90.5948 106.469 90.6476C84.8423 90.715 59.6172 87.5747 40.2716 79.4096C37.6796 78.3159 35.422 82.1251 38.0388 83.2293Z" fill="#1A1A1A"/>
<path d="M73.1845 92.6493C65.7395 95.4866 55.0823 99.3371 51.6862 107.166C48.1294 115.365 48.8303 126.458 49.0049 135.218C49.0618 138.061 53.4855 138.07 53.4281 135.218C53.2778 127.669 53.2505 119.698 54.8241 112.296C56.6797 103.57 66.741 99.8187 74.3606 96.9152C76.9943 95.9114 75.8519 91.6327 73.1845 92.6493Z" fill="#1A1A1A"/>
<path d="M52.9775 107.887C57.6698 113.215 63.1264 119.42 69.5571 122.643C76.2287 125.986 84.479 121.271 90.2762 117.849C92.7259 116.403 90.503 112.577 88.044 114.03C85.2467 115.681 82.2805 117.2 79.2122 118.273C74.5843 119.893 72.1136 119.382 68.2974 116.53C63.8029 113.17 59.8074 108.963 56.1055 104.759C54.2203 102.618 51.1022 105.757 52.9775 107.887Z" fill="#1A1A1A"/>
<path d="M74.3588 148.907C82.4125 147.63 91.8495 146.185 98.9028 141.874C106.686 137.117 103.437 124.701 101.893 117.274C101.315 114.489 97.0495 115.667 97.6286 118.45C98.4334 122.325 99.0072 126.293 99.1204 130.252C99.2898 136.164 98.0069 137.875 92.6229 139.908C86.4219 142.25 79.7185 143.605 73.1827 144.641C70.379 145.086 71.5691 149.349 74.3588 148.907Z" fill="#1A1A1A"/>
<path d="M71.5625 121.708V144.787C71.5625 147.634 75.9856 147.638 75.9856 144.787V121.708C75.9856 118.862 71.5625 118.857 71.5625 121.708Z" fill="#1A1A1A"/>
<path d="M101.696 128.935C107.045 128.176 112.381 127.303 117.696 126.334C124.139 125.159 133.097 124.53 138.796 120.923C144.335 117.417 141.358 108.923 139.728 103.882C137.659 97.4822 134.679 92.332 127.035 94.5723C124.309 95.3719 125.47 99.6419 128.211 98.8382C134.041 97.1294 140.183 112.572 136.893 116.935C135.09 119.327 126.896 119.994 124.194 120.569C116.365 122.234 108.445 123.545 100.52 124.669C97.7128 125.068 98.907 129.331 101.696 128.935Z" fill="#1A1A1A"/>
<path d="M136.954 117.861C137.596 125.555 138.237 133.248 138.878 140.94C139.113 143.757 143.538 143.782 143.301 140.94C142.66 133.248 142.019 125.555 141.378 117.861C141.144 115.045 136.718 115.02 136.954 117.861Z" fill="#1A1A1A"/>
<path d="M99.6535 133.836C100.574 139.606 101.493 145.376 102.413 151.146C102.859 153.949 107.123 152.759 106.678 149.97C105.758 144.2 104.839 138.43 103.919 132.661C103.473 129.857 99.2091 131.046 99.6535 133.836Z" fill="#1A1A1A"/>
<path d="M74.145 137.606C77.2893 139.366 80.1568 141.483 82.7563 143.979C84.0061 145.18 85.9127 143.278 84.66 142.075C81.9016 139.426 78.842 137.15 75.5045 135.281C73.9901 134.434 72.6312 136.759 74.145 137.606Z" fill="#1A1A1A"/>
<path d="M72.6762 130.951C78.3903 135.037 84.1033 139.122 89.8175 143.207C91.2292 144.217 92.5753 141.883 91.1764 140.882C85.4628 136.797 79.7487 132.712 74.0357 128.626C72.6234 127.617 71.2772 129.951 72.6762 130.951Z" fill="#1A1A1A"/>
<path d="M75.5753 126.167C80.0843 129.087 84.5533 132.07 88.9642 135.137C91.1268 136.64 94.6424 140.637 97.4833 140.08C98.1627 139.947 98.6524 139.072 98.4238 138.424C98.3855 138.315 98.3467 138.207 98.3089 138.098C98.089 137.478 97.3643 136.865 96.6524 137.158C96.5787 137.189 96.505 137.219 96.4307 137.25C94.8519 137.902 95.5441 140.508 97.1473 139.846L97.3684 139.754L95.7124 138.814C95.7507 138.922 95.789 139.031 95.8273 139.139C96.1406 138.587 96.4539 138.035 96.7673 137.483C96.5706 137.522 93.5504 135.075 92.9638 134.661C91.2074 133.422 89.4429 132.196 87.6709 130.981C84.1245 128.552 80.5421 126.179 76.9342 123.842C75.4755 122.897 74.1241 125.228 75.5753 126.167Z" fill="#1A1A1A"/>
<path d="M126.346 101.733C129.546 102.871 132.745 104.01 135.945 105.148C137.581 105.73 138.285 103.129 136.661 102.552C133.462 101.413 130.262 100.275 127.062 99.1369C125.427 98.5549 124.723 101.156 126.346 101.733Z" fill="#1A1A1A"/>
<path d="M124.405 106.53C128.413 107.298 132.096 108.749 135.542 110.939C137.01 111.87 138.362 109.54 136.902 108.614C133.283 106.315 129.332 104.74 125.121 103.933C123.427 103.61 122.702 106.204 124.405 106.53Z" fill="#1A1A1A"/>
<path d="M121.761 109.714C126.957 112.828 132.444 115.273 138.23 117.066C139.889 117.58 140.598 114.982 138.946 114.469C133.374 112.743 128.122 110.387 123.12 107.389C121.63 106.495 120.275 108.822 121.761 109.714Z" fill="#1A1A1A"/>
<path d="M153.594 93.7833C154.034 97.7231 153.638 101.479 152.36 105.232C151.439 107.933 155.71 109.092 156.625 106.408C158.017 102.323 158.496 98.0747 158.018 93.7833C157.706 90.986 153.279 90.9541 153.594 93.7833Z" fill="#1A1A1A"/>
<path d="M152.144 115.264C154.991 115.264 154.995 110.84 152.144 110.84C149.298 110.84 149.293 115.264 152.144 115.264Z" fill="#1A1A1A"/>
</svg>
