<svg width="60" height="54" viewBox="0 0 60 54" fill="none" xmlns="http://www.w3.org/2000/svg">
<path d="M59.1191 45.7135L44.4776 31.0715C44.3771 25.4791 42.1454 20.136 38.2383 16.1335C34.3312 12.1309 29.0435 9.77097 23.4551 9.53553C23.4886 8.55294 23.6328 7.57726 23.8851 6.62703C25.7351 7.66803 27.8066 8.10803 29.5931 6.72103C30.7901 5.79153 31.1801 4.54702 30.6361 3.39202C29.9721 1.98053 28.0581 1.18753 26.2771 1.58453C25.6153 1.74751 24.9936 2.04356 24.4499 2.45463C23.9062 2.8657 23.4519 3.38318 23.1146 3.97552C22.0226 3.06627 21.0183 2.05669 20.1146 0.960025C19.9711 0.779079 19.7618 0.662248 19.5324 0.635013C19.303 0.607778 19.0722 0.672348 18.8902 0.814642C18.7082 0.956936 18.5899 1.16541 18.5611 1.39459C18.5322 1.62377 18.5951 1.85506 18.7361 2.03803C19.8022 3.3636 21.017 4.5623 22.3566 5.61053C21.9508 6.88027 21.7299 8.20182 21.7006 9.53452C18.3956 9.66132 15.1621 10.5341 12.2422 12.0875C9.3223 13.6409 6.7916 15.8348 4.83959 18.5047C2.88758 21.1747 1.56483 24.2516 0.970374 27.5052C0.375917 30.7588 0.525152 34.1047 1.40691 37.2924C2.28866 40.4801 3.88009 43.4271 6.06205 45.9127C8.24402 48.3982 10.96 50.358 14.0066 51.6453C17.0532 52.9326 20.3516 53.5141 23.6548 53.3461C26.9579 53.1782 30.1803 52.2652 33.0806 50.6755C37.2413 52.9486 42.0259 53.8141 46.7193 53.1427C51.4126 52.4713 55.7626 50.299 59.1191 46.9505C59.2005 46.8694 59.2649 46.7729 59.309 46.6668C59.353 46.5607 59.3756 46.4469 59.3756 46.332C59.3756 46.2171 59.353 46.1034 59.309 45.9972C59.2649 45.8911 59.2005 45.7947 59.1191 45.7135ZM26.6591 3.29203C27.7401 3.05003 28.7691 3.53403 29.0531 4.13753C29.2336 4.52003 29.0531 4.92403 28.5196 5.33753C27.3911 6.21353 25.9346 5.82653 24.5516 4.99653C24.7628 4.57978 25.0597 4.21244 25.4229 3.91866C25.7862 3.62488 26.2075 3.41132 26.6591 3.29203ZM28.1046 46.949C28.5841 47.4285 29.0826 47.877 29.5936 48.3025C27.9099 49.5598 26.0348 50.5378 24.0401 51.199C25.0901 48.3315 26.9311 41.817 26.9311 31.446C26.9311 21.0495 25.0811 14.529 24.0311 11.672C27.8716 12.895 37.1156 17.3075 37.1156 31.446C37.1259 33.4201 36.9197 35.3894 36.5006 37.3185L28.1056 45.7135C27.9418 45.8773 27.8496 46.0994 27.8494 46.3311C27.8492 46.5627 27.941 46.785 28.1046 46.949ZM19.9311 31.4435C19.9311 21.94 21.5506 15.719 22.5561 12.7715C23.5621 15.719 25.1811 21.94 25.1811 31.4435C25.1811 40.947 23.5621 47.1685 22.5561 50.115C21.5506 47.168 19.9311 40.949 19.9311 31.4435ZM18.1811 31.4435C18.1811 41.8395 20.0311 48.3595 21.0811 51.217C17.2411 49.994 7.99664 45.582 7.99664 31.4435C7.99664 17.305 17.2421 12.8935 21.0811 11.6695C20.0331 14.5265 18.1811 21.049 18.1811 31.4435ZM43.6121 32.681L54.7326 43.8015C51.6775 46.5433 47.7172 48.0597 43.6121 48.0597C39.5071 48.0597 35.5468 46.5433 32.4916 43.8015L43.6121 32.681ZM42.7281 31.09L38.6371 35.181C38.79 33.9411 38.8668 32.6929 38.8671 31.4435C38.8671 21.086 34.0991 15.5195 29.7416 12.5895C33.5032 14.0284 36.7492 16.5582 39.063 19.8546C41.3769 23.1509 42.6532 27.0633 42.7281 31.09ZM2.37814 31.4435C2.38296 27.3555 3.62736 23.3651 5.94706 19.999C8.26677 16.6329 11.5527 14.0494 15.3711 12.5895C11.0131 15.5195 6.24514 21.086 6.24514 31.4435C6.24514 41.801 11.0131 47.367 15.3711 50.297C11.5523 48.8376 8.26582 46.2544 5.94565 42.8883C3.62547 39.5223 2.38069 35.5317 2.37564 31.4435H2.37814ZM29.9226 50.227C30.2921 49.974 30.6636 49.696 31.0356 49.4025C31.1356 49.473 31.2356 49.545 31.3391 49.6135C30.8726 49.838 30.4006 50.0395 29.9201 50.227H29.9226ZM29.9766 46.319L31.2556 45.0395C34.6399 48.1091 39.0454 49.8095 43.6144 49.8095C48.1834 49.8095 52.5889 48.1091 55.9731 45.0395L57.2526 46.319C53.5274 49.7261 48.6618 51.6156 43.6134 51.6156C38.565 51.6156 33.6994 49.7261 29.9741 46.319H29.9766Z" fill="#1A1A1A"/>
<path d="M44.4883 38.1699V37.1699C44.4883 36.9379 44.3961 36.7153 44.232 36.5512C44.0679 36.3871 43.8453 36.2949 43.6133 36.2949C43.3812 36.2949 43.1587 36.3871 42.9946 36.5512C42.8305 36.7153 42.7383 36.9379 42.7383 37.1699V38.1699C42.7383 38.402 42.8305 38.6245 42.9946 38.7886C43.1587 38.9527 43.3812 39.0449 43.6133 39.0449C43.8453 39.0449 44.0679 38.9527 44.232 38.7886C44.3961 38.6245 44.4883 38.402 44.4883 38.1699Z" fill="#1A1A1A"/>
<path d="M47.6133 42.9492C47.8453 42.9492 48.0679 42.857 48.232 42.6929C48.3961 42.5288 48.4883 42.3063 48.4883 42.0742V41.0742C48.4883 40.8422 48.3961 40.6196 48.232 40.4555C48.0679 40.2914 47.8453 40.1992 47.6133 40.1992C47.3812 40.1992 47.1587 40.2914 46.9946 40.4555C46.8305 40.6196 46.7383 40.8422 46.7383 41.0742V42.0742C46.7382 42.1891 46.7608 42.303 46.8048 42.4091C46.8487 42.5153 46.9132 42.6118 46.9944 42.6931C47.0757 42.7743 47.1722 42.8388 47.2784 42.8827C47.3845 42.9267 47.4984 42.9493 47.6133 42.9492Z" fill="#1A1A1A"/>
<path d="M39.6133 40.1992C39.3812 40.1992 39.1587 40.2914 38.9946 40.4555C38.8305 40.6196 38.7383 40.8422 38.7383 41.0742V42.0742C38.7383 42.3063 38.8305 42.5288 38.9946 42.6929C39.1587 42.857 39.3812 42.9492 39.6133 42.9492C39.8453 42.9492 40.0679 42.857 40.232 42.6929C40.3961 42.5288 40.4883 42.3063 40.4883 42.0742V41.0742C40.4881 40.8422 40.3959 40.6197 40.2319 40.4556C40.0678 40.2916 39.8453 40.1994 39.6133 40.1992Z" fill="#1A1A1A"/>
</svg>
