<svg width="147" height="34" viewBox="0 0 147 34" fill="none" xmlns="http://www.w3.org/2000/svg">
<path d="M5.48973 33.344C4.93773 33.656 4.33773 33.8 3.68973 33.776C3.04173 33.752 2.42973 33.608 1.85373 33.344C1.25373 33.08 0.761734 32.744 0.377734 32.336C0.209734 32.144 0.149734 31.784 0.197734 31.256C0.221734 30.752 0.281734 30.344 0.377734 30.032C0.497734 29.6 0.653734 29.384 0.845734 29.384C1.10973 29.384 1.40973 29.612 1.74573 30.068C2.41773 30.668 3.07773 30.836 3.72573 30.572C4.39773 30.308 5.10573 29.6 5.84973 28.448C5.99373 28.088 6.22173 27.572 6.53373 26.9C6.84573 26.228 7.16973 25.508 7.50573 24.74C7.86573 23.972 8.18973 23.264 8.47773 22.616C8.76573 21.944 8.95773 21.464 9.05373 21.176C9.05373 21.176 9.05373 21.14 9.05373 21.068C9.07773 20.972 9.13773 20.876 9.23373 20.78C9.25773 20.684 9.31773 20.492 9.41373 20.204C9.50973 19.916 9.60573 19.58 9.70173 19.196C9.79773 18.932 9.92973 18.536 10.0977 18.008C10.2897 17.48 10.4817 16.928 10.6737 16.352C10.8897 15.776 11.0697 15.296 11.2137 14.912C11.3337 14.408 11.4777 13.868 11.6457 13.292C11.8377 12.692 11.9937 12.236 12.1137 11.924C12.2097 11.732 12.3537 11.348 12.5457 10.772C12.7377 10.172 12.9537 9.524 13.1937 8.828C13.4817 7.892 13.7337 7.076 13.9497 6.38C14.1897 5.684 14.3577 5.132 14.4537 4.724C14.5737 4.292 14.6097 4.04 14.5617 3.968C14.5617 3.968 14.3457 4.004 13.9137 4.076C13.5057 4.148 13.0497 4.232 12.5457 4.328C12.1377 4.496 11.7177 4.604 11.2857 4.652C10.8777 4.7 10.7097 4.568 10.7817 4.256C10.7817 4.16 10.7817 4.076 10.7817 4.004C10.7817 3.908 10.7817 3.86 10.7817 3.86C10.7097 3.908 10.6137 3.86 10.4937 3.716C10.3737 3.572 10.2657 3.392 10.1697 3.176C10.0737 2.936 10.0257 2.756 10.0257 2.636C10.0257 2.444 10.3017 2.228 10.8537 1.988C11.4297 1.724 12.0897 1.544 12.8337 1.448C13.3137 1.376 13.8897 1.316 14.5617 1.268C15.2577 1.196 15.7617 1.136 16.0737 1.088C16.1697 1.016 16.3857 1.04 16.7217 1.16C17.0577 1.28 17.4057 1.424 17.7657 1.592C18.1257 1.76 18.3657 1.916 18.4857 2.06C18.6297 2.252 18.7137 2.456 18.7377 2.672C18.7857 2.888 18.7617 3.188 18.6657 3.572C18.5697 3.956 18.3897 4.508 18.1257 5.228C17.8857 5.924 17.5377 6.884 17.0817 8.108C16.5537 9.596 16.0857 10.952 15.6777 12.176C15.2697 13.376 14.8977 14.372 14.5617 15.164C14.4897 15.428 14.3577 15.812 14.1657 16.316C13.9977 16.82 13.8297 17.336 13.6617 17.864C13.4937 18.368 13.3617 18.788 13.2657 19.124C13.0737 19.58 12.8937 20.072 12.7257 20.6C12.5577 21.128 12.4257 21.548 12.3297 21.86C12.3297 22.052 12.2817 22.268 12.1857 22.508C12.0897 22.748 11.9817 22.928 11.8617 23.048C11.8617 23.048 11.7777 23.264 11.6097 23.696C11.4417 24.104 11.2377 24.596 10.9977 25.172C10.8057 25.652 10.5897 26.18 10.3497 26.756C10.1337 27.356 9.92973 27.812 9.73773 28.124C9.61773 28.412 9.47373 28.676 9.30573 28.916C9.13773 29.18 9.05373 29.36 9.05373 29.456C9.05373 29.456 9.04173 29.492 9.01773 29.564C9.01773 29.636 8.96973 29.672 8.87373 29.672C8.87373 29.672 8.83773 29.696 8.76573 29.744C8.69373 29.816 8.65773 29.912 8.65773 30.032C8.60973 30.176 8.45373 30.404 8.18973 30.716C7.92573 31.028 7.62573 31.364 7.28973 31.724C6.95373 32.108 6.61773 32.444 6.28173 32.732C5.94573 33.02 5.68173 33.224 5.48973 33.344ZM17.6456 25.244C17.5496 25.052 17.3336 24.86 16.9976 24.668C16.6856 24.476 16.5296 24.332 16.5296 24.236C16.5296 24.14 16.4696 23.996 16.3496 23.804C16.2536 23.588 16.1576 23.432 16.0616 23.336C15.9416 23.192 15.9776 22.844 16.1696 22.292C16.3616 21.716 16.6496 21.02 17.0336 20.204C17.4176 19.388 17.8376 18.56 18.2936 17.72C18.4856 17.528 18.6776 17.276 18.8696 16.964C19.0616 16.652 19.2056 16.448 19.3016 16.352C19.3016 16.256 19.3376 16.172 19.4096 16.1C19.4816 16.004 19.5656 15.956 19.6616 15.956L19.9496 15.38C19.9976 15.284 20.1416 15.092 20.3816 14.804C20.6456 14.516 20.9576 14.204 21.3176 13.868C21.6776 13.508 22.0376 13.172 22.3976 12.86C22.7816 12.548 23.0936 12.32 23.3336 12.176C23.8376 11.84 24.3536 11.684 24.8816 11.708C25.4336 11.732 25.9016 11.9 26.2856 12.212C26.3576 12.284 26.5136 12.428 26.7536 12.644C27.0176 12.86 27.3056 13.1 27.6176 13.364C27.9536 13.628 28.2416 13.868 28.4816 14.084L29.8136 15.272L29.2016 17.072C28.8896 18.032 28.8056 18.872 28.9496 19.592C29.0936 20.312 29.3216 20.936 29.6336 21.464C29.7536 21.728 29.9096 21.932 30.1016 22.076C30.3176 22.22 30.5936 22.316 30.9296 22.364C31.1216 22.388 31.3016 22.46 31.4696 22.58C31.6376 22.7 31.7216 22.892 31.7216 23.156C31.7216 23.732 31.6136 24.152 31.3976 24.416C31.2056 24.656 30.9896 24.8 30.7496 24.848C29.9576 24.944 29.2016 24.86 28.4816 24.596C27.7616 24.332 27.1136 23.648 26.5376 22.544C26.4416 22.4 26.3096 22.136 26.1416 21.752C25.9976 21.344 25.9136 21.08 25.8896 20.96C25.7936 21.08 25.6616 21.236 25.4936 21.428C25.3496 21.596 25.2056 21.752 25.0616 21.896C23.3576 23.624 21.8936 24.752 20.6696 25.28C19.4696 25.784 18.4616 25.772 17.6456 25.244ZM19.6256 22.256C19.7936 22.28 20.0576 22.196 20.4176 22.004C20.7776 21.788 21.2576 21.44 21.8576 20.96C22.6736 20.264 23.3456 19.688 23.8736 19.232C24.4016 18.776 24.9176 18.188 25.4216 17.468L26.2136 16.172C25.9736 15.62 25.7576 15.26 25.5656 15.092C25.3736 14.924 25.1816 14.84 24.9896 14.84C24.6776 14.84 24.3056 15.044 23.8736 15.452C23.4416 15.836 22.9496 16.412 22.3976 17.18C21.8696 17.924 21.2696 18.86 20.5976 19.988C20.2856 20.516 20.0456 21.032 19.8776 21.536C19.7096 22.016 19.6256 22.256 19.6256 22.256ZM49.624 25.136C49.456 25.088 49.192 24.932 48.832 24.668C48.472 24.404 48.148 24.008 47.86 23.48C47.596 22.952 47.476 22.268 47.5 21.428C47.524 20.708 47.572 20.204 47.644 19.916C47.74 19.604 47.704 19.436 47.536 19.412C47.416 19.388 47.176 19.496 46.816 19.736C46.456 19.976 45.988 20.36 45.412 20.888C44.836 21.416 44.14 22.112 43.324 22.976C43.036 23.216 42.712 23.516 42.352 23.876C42.016 24.212 41.668 24.464 41.308 24.632C40.972 24.8 40.672 24.764 40.408 24.524L40.048 24.2C39.88 24.056 39.736 23.864 39.616 23.624C39.496 23.384 39.46 23.18 39.508 23.012L40.516 20.204C40.804 19.58 40.996 19.124 41.092 18.836C41.212 18.548 41.26 18.368 41.236 18.296C41.236 18.224 41.176 18.2 41.056 18.224C40.912 18.248 40.708 18.38 40.444 18.62C40.18 18.836 40 19.016 39.904 19.16C39.808 19.16 39.676 19.256 39.508 19.448C39.364 19.64 39.22 19.808 39.076 19.952C38.932 20.096 38.68 20.372 38.32 20.78C37.96 21.164 37.576 21.572 37.168 22.004C36.856 22.292 36.496 22.676 36.088 23.156C35.68 23.636 35.32 24.068 35.008 24.452C34.696 24.836 34.504 25.028 34.432 25.028C34 25.004 33.604 24.86 33.244 24.596C32.908 24.332 32.68 24.008 32.56 23.624C32.416 23.36 32.404 22.88 32.524 22.184C32.644 21.464 32.872 20.324 33.208 18.764C33.304 18.404 33.388 18.092 33.46 17.828C33.556 17.564 33.652 17.3 33.748 17.036C33.844 16.772 33.952 16.472 34.072 16.136C34.216 15.8 34.396 15.392 34.612 14.912C34.732 14.576 34.78 14.264 34.756 13.976C34.732 13.664 34.708 13.412 34.684 13.22C34.684 12.86 34.792 12.572 35.008 12.356C35.248 12.14 35.512 11.996 35.8 11.924C36.088 11.828 36.316 11.804 36.484 11.852C37.156 11.924 37.612 12.164 37.852 12.572C38.092 12.98 38.224 13.376 38.248 13.76C38.272 14.12 38.224 14.444 38.104 14.732C37.984 15.02 37.888 15.26 37.816 15.452L37.42 16.424C37.18 16.976 37 17.384 36.88 17.648C36.784 17.888 36.724 18.056 36.7 18.152C36.7 18.224 36.7 18.296 36.7 18.368C36.724 18.44 36.832 18.404 37.024 18.26C37.216 18.116 37.444 17.924 37.708 17.684C37.996 17.42 38.26 17.192 38.5 17C38.932 16.64 39.388 16.28 39.868 15.92C40.372 15.536 40.864 15.2 41.344 14.912C41.824 14.624 42.22 14.432 42.532 14.336C42.94 14.408 43.312 14.612 43.648 14.948C44.008 15.284 44.236 15.572 44.332 15.812C44.452 16.172 44.464 16.496 44.368 16.784C44.296 17.072 44.236 17.336 44.188 17.576C44.164 17.672 44.116 17.852 44.044 18.116C43.972 18.38 43.9 18.632 43.828 18.872C43.756 19.088 43.72 19.196 43.72 19.196C43.72 19.196 43.792 19.124 43.936 18.98C44.08 18.836 44.272 18.668 44.512 18.476C44.752 18.26 44.992 18.068 45.232 17.9C46.432 16.988 47.38 16.412 48.076 16.172C48.796 15.908 49.408 16.112 49.912 16.784C50.2 17.048 50.38 17.408 50.452 17.864C50.548 18.32 50.596 18.932 50.596 19.7C50.62 20.012 50.644 20.36 50.668 20.744C50.716 21.128 50.764 21.464 50.812 21.752C50.884 22.04 50.944 22.22 50.992 22.292C51.064 22.388 51.196 22.484 51.388 22.58C51.58 22.652 51.76 22.712 51.928 22.76C52.264 22.928 52.444 23.24 52.468 23.696C52.516 24.128 52.348 24.464 51.964 24.704C51.604 24.92 51.22 25.052 50.812 25.1C50.428 25.148 50.032 25.16 49.624 25.136ZM55.9001 25.964C55.3241 25.964 54.8201 25.664 54.3881 25.064C53.9801 24.44 53.7281 23.696 53.6321 22.832C53.6561 22.64 53.6801 22.364 53.7041 22.004C53.7521 21.644 53.8001 21.272 53.8481 20.888C53.9441 20.432 54.0761 19.844 54.2441 19.124C54.4121 18.404 54.5921 17.684 54.7841 16.964C54.9761 16.22 55.1441 15.584 55.2881 15.056C55.4321 14.504 55.5161 14.18 55.5401 14.084C55.6841 13.748 56.0081 13.664 56.5121 13.832C57.0161 14 57.4481 14.36 57.8081 14.912C57.9521 15.104 58.0361 15.332 58.0601 15.596C58.1081 15.86 58.0721 16.244 57.9521 16.748C57.8561 17.252 57.6641 17.996 57.3761 18.98C57.1121 19.94 56.9081 20.72 56.7641 21.32C56.6441 21.896 56.5961 22.508 56.6201 23.156C56.5241 24.26 56.4281 25.016 56.3321 25.424C56.2361 25.808 56.0921 25.988 55.9001 25.964ZM59.2121 11.024C59.1161 11.096 59.0201 11.132 58.9241 11.132C58.8521 11.108 58.7201 11.036 58.5281 10.916C58.3601 10.892 58.1441 10.784 57.8801 10.592C57.6401 10.376 57.4241 10.16 57.2321 9.944C57.0641 9.728 56.9801 9.596 56.9801 9.548C56.9561 9.308 56.9681 8.924 57.0161 8.396C57.0881 7.868 57.2201 7.376 57.4121 6.92C57.6281 6.44 57.9161 6.188 58.2761 6.164C58.3721 6.164 58.5761 6.212 58.8881 6.308C59.2241 6.404 59.5721 6.524 59.9321 6.668C60.1241 7.028 60.3041 7.496 60.4721 8.072C60.6401 8.648 60.6521 9.212 60.5081 9.764C60.3881 10.292 59.9561 10.712 59.2121 11.024ZM61.3465 25.136C61.1065 24.992 60.8425 24.788 60.5545 24.524C60.2665 24.236 60.1225 23.96 60.1225 23.696C60.1225 23.336 60.1705 22.892 60.2665 22.364C60.3625 21.812 60.4585 21.344 60.5545 20.96C60.6025 20.528 60.6625 20.096 60.7345 19.664C60.8305 19.208 60.9985 18.788 61.2385 18.404C61.5025 17.492 61.7785 16.592 62.0665 15.704C62.3545 14.792 62.6065 13.856 62.8225 12.896C63.1345 12.008 63.4105 11.228 63.6505 10.556C63.9145 9.86 64.2385 8.984 64.6225 7.928C64.8385 7.328 65.0185 6.692 65.1625 6.02C65.3305 5.324 65.5825 4.7 65.9185 4.148C66.0625 3.932 66.1705 3.752 66.2425 3.608C66.3385 3.44 66.4345 3.284 66.5305 3.14C66.5545 3.044 66.6745 2.96 66.8905 2.888C67.1305 2.816 67.3705 2.78 67.6105 2.78C67.8745 2.756 68.0545 2.804 68.1505 2.924C68.2225 2.9 68.3425 2.996 68.5105 3.212C68.6785 3.404 68.8345 3.632 68.9785 3.896C69.1465 4.136 69.2185 4.328 69.1945 4.472C69.1945 4.568 69.1705 4.7 69.1225 4.868C69.0985 5.036 69.0385 5.192 68.9425 5.336C68.8465 5.432 68.7505 5.576 68.6545 5.768C68.5825 5.936 68.4625 6.176 68.2945 6.488C68.1985 6.8 68.1145 7.124 68.0425 7.46C67.9705 7.772 67.8745 8.06 67.7545 8.324C67.6585 8.612 67.5385 8.888 67.3945 9.152C67.2745 9.416 67.1905 9.632 67.1425 9.8C66.9745 10.352 66.7705 10.892 66.5305 11.42C66.3145 11.948 66.1225 12.512 65.9545 13.112C65.7865 13.688 65.6185 14.288 65.4505 14.912C65.2825 15.512 65.0425 16.088 64.7305 16.64C64.5625 16.904 64.4425 17.24 64.3705 17.648C64.2985 18.056 64.2265 18.464 64.1545 18.872C64.0105 19.304 63.8785 19.712 63.7585 20.096C63.6625 20.456 63.6145 20.684 63.6145 20.78C63.4705 21.308 63.3625 21.836 63.2905 22.364C63.2425 22.868 63.1225 23.312 62.9305 23.696C62.9065 23.936 62.8225 24.2 62.6785 24.488C62.5345 24.776 62.3425 24.992 62.1025 25.136C61.8865 25.28 61.6345 25.28 61.3465 25.136ZM68.933 25.352C68.645 25.424 68.321 25.34 67.961 25.1C67.601 24.86 67.277 24.56 66.989 24.2C66.701 23.84 66.521 23.516 66.449 23.228C66.353 22.724 66.377 22.112 66.521 21.392C66.689 20.648 66.965 19.868 67.349 19.052C67.733 18.212 68.213 17.396 68.789 16.604C69.365 15.788 70.013 15.056 70.733 14.408C71.453 13.76 72.233 13.256 73.073 12.896C73.433 12.704 73.685 12.584 73.829 12.536C73.973 12.464 74.117 12.464 74.261 12.536C74.405 12.584 74.657 12.704 75.017 12.896C75.353 12.992 75.689 13.112 76.025 13.256C76.385 13.376 76.697 13.616 76.961 13.976C77.153 14.336 77.297 14.696 77.393 15.056C77.489 15.416 77.573 15.824 77.645 16.28C77.837 16.88 77.909 17.276 77.861 17.468C77.813 17.636 77.741 17.768 77.645 17.864C77.453 18.104 77.405 18.224 77.501 18.224C77.501 18.224 77.489 18.272 77.465 18.368C77.465 18.44 77.417 18.56 77.321 18.728C77.153 19.256 77.021 19.76 76.925 20.24C76.853 20.696 76.865 21.104 76.961 21.464C77.153 21.992 77.405 22.304 77.717 22.4C78.053 22.496 78.485 22.28 79.013 21.752C79.277 21.56 79.577 21.44 79.913 21.392C80.249 21.32 80.417 21.38 80.417 21.572C80.417 21.572 80.453 21.608 80.525 21.68C80.597 21.728 80.681 21.752 80.777 21.752C80.897 21.752 80.945 21.872 80.921 22.112C80.897 22.328 80.849 22.58 80.777 22.868C80.705 23.156 80.609 23.396 80.489 23.588C80.129 23.948 79.949 24.188 79.949 24.308C79.949 24.308 79.901 24.356 79.805 24.452C79.733 24.524 79.601 24.644 79.409 24.812C78.977 25.076 78.425 25.208 77.753 25.208C77.105 25.208 76.601 25.076 76.241 24.812C75.881 24.548 75.521 24.224 75.161 23.84C74.825 23.456 74.609 23.096 74.513 22.76L74.333 22.4L73.289 23.084C73.025 23.348 72.833 23.552 72.713 23.696C72.593 23.816 72.485 23.924 72.389 24.02C72.317 24.116 72.233 24.2 72.137 24.272C72.065 24.344 71.981 24.38 71.885 24.38C71.789 24.38 71.705 24.38 71.633 24.38C71.561 24.38 71.525 24.38 71.525 24.38C71.525 24.476 71.357 24.608 71.021 24.776C70.685 24.92 70.313 25.052 69.905 25.172C69.497 25.292 69.173 25.352 68.933 25.352ZM69.689 22.328C69.833 22.328 70.049 22.244 70.337 22.076C70.649 21.884 70.985 21.656 71.345 21.392C71.705 21.128 72.029 20.864 72.317 20.6C72.629 20.336 72.857 20.12 73.001 19.952C73.097 19.856 73.205 19.7 73.325 19.484C73.469 19.268 73.625 19.076 73.793 18.908C74.345 18.284 74.693 17.792 74.837 17.432C74.981 17.048 74.921 16.64 74.657 16.208C74.561 15.944 74.441 15.8 74.297 15.776C74.153 15.752 73.853 15.836 73.397 16.028C73.109 16.196 72.797 16.472 72.461 16.856C72.125 17.24 71.777 17.672 71.417 18.152C71.081 18.632 70.769 19.124 70.481 19.628C70.193 20.132 69.953 20.588 69.761 20.996C69.593 21.404 69.509 21.728 69.509 21.968C69.509 22.064 69.533 22.148 69.581 22.22C69.653 22.292 69.689 22.328 69.689 22.328ZM90.3218 33.344C89.7698 33.656 89.1698 33.8 88.5218 33.776C87.8738 33.752 87.2618 33.608 86.6858 33.344C86.0858 33.08 85.5938 32.744 85.2098 32.336C85.0418 32.144 84.9818 31.784 85.0298 31.256C85.0538 30.752 85.1138 30.344 85.2098 30.032C85.3298 29.6 85.4858 29.384 85.6778 29.384C85.9418 29.384 86.2418 29.612 86.5778 30.068C87.2498 30.668 87.9098 30.836 88.5578 30.572C89.2298 30.308 89.9378 29.6 90.6818 28.448C90.8258 28.088 91.0538 27.572 91.3658 26.9C91.6778 26.228 92.0018 25.508 92.3378 24.74C92.6978 23.972 93.0218 23.264 93.3098 22.616C93.5978 21.944 93.7898 21.464 93.8858 21.176C93.8858 21.176 93.8858 21.14 93.8858 21.068C93.9098 20.972 93.9698 20.876 94.0658 20.78C94.0898 20.684 94.1498 20.492 94.2458 20.204C94.3418 19.916 94.4378 19.58 94.5338 19.196C94.6298 18.932 94.7618 18.536 94.9298 18.008C95.1218 17.48 95.3138 16.928 95.5058 16.352C95.7218 15.776 95.9018 15.296 96.0458 14.912C96.1658 14.408 96.3098 13.868 96.4778 13.292C96.6698 12.692 96.8258 12.236 96.9458 11.924C97.0418 11.732 97.1858 11.348 97.3778 10.772C97.5698 10.172 97.7858 9.524 98.0258 8.828C98.3138 7.892 98.5658 7.076 98.7818 6.38C99.0218 5.684 99.1898 5.132 99.2858 4.724C99.4058 4.292 99.4418 4.04 99.3938 3.968C99.3938 3.968 99.1778 4.004 98.7458 4.076C98.3378 4.148 97.8818 4.232 97.3778 4.328C96.9698 4.496 96.5498 4.604 96.1178 4.652C95.7098 4.7 95.5418 4.568 95.6138 4.256C95.6138 4.16 95.6138 4.076 95.6138 4.004C95.6138 3.908 95.6138 3.86 95.6138 3.86C95.5418 3.908 95.4458 3.86 95.3258 3.716C95.2058 3.572 95.0978 3.392 95.0018 3.176C94.9058 2.936 94.8578 2.756 94.8578 2.636C94.8578 2.444 95.1338 2.228 95.6858 1.988C96.2618 1.724 96.9218 1.544 97.6658 1.448C98.1458 1.376 98.7218 1.316 99.3938 1.268C100.09 1.196 100.594 1.136 100.906 1.088C101.002 1.016 101.218 1.04 101.554 1.16C101.89 1.28 102.238 1.424 102.598 1.592C102.958 1.76 103.198 1.916 103.318 2.06C103.462 2.252 103.546 2.456 103.57 2.672C103.618 2.888 103.594 3.188 103.498 3.572C103.402 3.956 103.222 4.508 102.958 5.228C102.718 5.924 102.37 6.884 101.914 8.108C101.386 9.596 100.918 10.952 100.51 12.176C100.102 13.376 99.7298 14.372 99.3938 15.164C99.3218 15.428 99.1898 15.812 98.9978 16.316C98.8298 16.82 98.6618 17.336 98.4938 17.864C98.3258 18.368 98.1938 18.788 98.0978 19.124C97.9058 19.58 97.7258 20.072 97.5578 20.6C97.3898 21.128 97.2578 21.548 97.1618 21.86C97.1618 22.052 97.1138 22.268 97.0178 22.508C96.9218 22.748 96.8138 22.928 96.6938 23.048C96.6938 23.048 96.6098 23.264 96.4418 23.696C96.2738 24.104 96.0698 24.596 95.8298 25.172C95.6378 25.652 95.4218 26.18 95.1818 26.756C94.9658 27.356 94.7618 27.812 94.5698 28.124C94.4498 28.412 94.3058 28.676 94.1378 28.916C93.9698 29.18 93.8858 29.36 93.8858 29.456C93.8858 29.456 93.8738 29.492 93.8498 29.564C93.8498 29.636 93.8018 29.672 93.7058 29.672C93.7058 29.672 93.6698 29.696 93.5978 29.744C93.5258 29.816 93.4898 29.912 93.4898 30.032C93.4418 30.176 93.2858 30.404 93.0218 30.716C92.7578 31.028 92.4578 31.364 92.1218 31.724C91.7858 32.108 91.4498 32.444 91.1138 32.732C90.7778 33.02 90.5138 33.224 90.3218 33.344ZM109.758 25.928C109.518 25.688 109.326 25.364 109.182 24.956C109.038 24.524 108.894 24.032 108.75 23.48C108.702 23.288 108.678 23.072 108.678 22.832C108.702 22.592 108.702 22.4 108.678 22.256C108.606 22.424 108.486 22.64 108.318 22.904C108.174 23.168 108.03 23.36 107.886 23.48C107.79 23.576 107.574 23.768 107.238 24.056C106.902 24.32 106.566 24.536 106.23 24.704C105.438 25.208 104.73 25.448 104.106 25.424C103.506 25.376 102.978 25.064 102.522 24.488C102.138 24.176 101.826 23.78 101.586 23.3C101.346 22.82 101.298 22.244 101.442 21.572C101.49 20.732 101.61 19.916 101.802 19.124C101.994 18.308 102.39 17.228 102.99 15.884C103.494 14.9 103.878 14.132 104.142 13.58C104.406 13.028 104.574 12.704 104.646 12.608C105.006 12.488 105.45 12.5 105.978 12.644C106.506 12.764 106.794 12.992 106.842 13.328C106.986 13.568 106.986 14.024 106.842 14.696C106.698 15.344 106.41 16.088 105.978 16.928C105.642 17.744 105.318 18.536 105.006 19.304C104.718 20.072 104.538 20.72 104.466 21.248C104.418 21.776 104.562 22.1 104.898 22.22C105.114 22.34 105.426 22.328 105.834 22.184C106.266 22.04 106.77 21.608 107.346 20.888C107.922 20.168 108.534 19.028 109.182 17.468C109.374 16.988 109.518 16.568 109.614 16.208C109.71 15.824 109.77 15.404 109.794 14.948C109.746 14.66 109.818 14.36 110.01 14.048C110.226 13.736 110.478 13.496 110.766 13.328C110.862 13.208 110.994 13.1 111.162 13.004C111.33 12.884 111.438 12.884 111.486 13.004L112.062 12.968C112.158 12.944 112.266 13.04 112.386 13.256C112.506 13.472 112.626 13.628 112.746 13.724C113.01 13.94 113.13 14.408 113.106 15.128C113.082 15.848 112.794 16.856 112.242 18.152C111.786 19.136 111.474 19.88 111.306 20.384C111.162 20.888 111.078 21.38 111.054 21.86C111.054 22.292 111.09 22.664 111.162 22.976C111.234 23.264 111.45 23.564 111.81 23.876C112.074 24.044 112.218 24.332 112.242 24.74C112.29 25.124 112.302 25.46 112.278 25.748C112.23 25.964 112.038 26.108 111.702 26.18C111.39 26.276 111.042 26.3 110.658 26.252C110.298 26.204 109.998 26.096 109.758 25.928ZM117.142 25.964C116.566 25.964 116.062 25.664 115.63 25.064C115.222 24.44 114.97 23.696 114.874 22.832C114.898 22.64 114.922 22.364 114.946 22.004C114.994 21.644 115.042 21.272 115.09 20.888C115.186 20.432 115.318 19.844 115.486 19.124C115.654 18.404 115.834 17.684 116.026 16.964C116.218 16.22 116.386 15.584 116.53 15.056C116.674 14.504 116.758 14.18 116.782 14.084C116.926 13.748 117.25 13.664 117.754 13.832C118.258 14 118.69 14.36 119.05 14.912C119.194 15.104 119.278 15.332 119.302 15.596C119.35 15.86 119.314 16.244 119.194 16.748C119.098 17.252 118.906 17.996 118.618 18.98C118.354 19.94 118.15 20.72 118.006 21.32C117.886 21.896 117.838 22.508 117.862 23.156C117.766 24.26 117.67 25.016 117.574 25.424C117.478 25.808 117.334 25.988 117.142 25.964ZM120.454 11.024C120.358 11.096 120.262 11.132 120.166 11.132C120.094 11.108 119.962 11.036 119.77 10.916C119.602 10.892 119.386 10.784 119.122 10.592C118.882 10.376 118.666 10.16 118.474 9.944C118.306 9.728 118.222 9.596 118.222 9.548C118.198 9.308 118.21 8.924 118.258 8.396C118.33 7.868 118.462 7.376 118.654 6.92C118.87 6.44 119.158 6.188 119.518 6.164C119.614 6.164 119.818 6.212 120.13 6.308C120.466 6.404 120.814 6.524 121.174 6.668C121.366 7.028 121.546 7.496 121.714 8.072C121.882 8.648 121.894 9.212 121.75 9.764C121.63 10.292 121.198 10.712 120.454 11.024ZM126.981 25.676C126.669 25.82 126.309 25.88 125.901 25.856C125.493 25.832 124.941 25.7 124.245 25.46C124.197 25.46 124.029 25.352 123.741 25.136C123.453 24.92 123.165 24.668 122.877 24.38C122.589 24.092 122.397 23.852 122.301 23.66C121.917 23.108 121.797 22.292 121.941 21.212C122.109 20.132 122.493 18.836 123.093 17.324C123.261 16.964 123.513 16.508 123.849 15.956C124.209 15.404 124.557 14.9 124.893 14.444C125.253 13.964 125.505 13.688 125.649 13.616C125.649 13.616 125.781 13.568 126.045 13.472C126.309 13.376 126.645 13.22 127.053 13.004C127.173 12.956 127.377 12.896 127.665 12.824C127.977 12.752 128.289 12.692 128.601 12.644C128.937 12.572 129.165 12.548 129.285 12.572C129.765 12.596 130.257 12.776 130.761 13.112C131.289 13.424 131.721 13.796 132.057 14.228C132.393 14.636 132.501 14.996 132.381 15.308C132.381 15.356 132.309 15.512 132.165 15.776C132.045 16.016 131.913 16.268 131.769 16.532C131.625 16.772 131.505 16.952 131.409 17.072C131.289 17.216 131.073 17.276 130.761 17.252C130.473 17.228 130.209 17.132 129.969 16.964C129.729 16.796 129.597 16.568 129.573 16.28C129.525 16.088 129.345 15.908 129.033 15.74C128.745 15.572 128.601 15.488 128.601 15.488C128.409 15.488 128.157 15.68 127.845 16.064C127.533 16.448 127.209 16.88 126.873 17.36C126.441 17.792 126.129 18.26 125.937 18.764C125.769 19.244 125.649 19.7 125.577 20.132C125.529 20.54 125.469 20.852 125.397 21.068C125.301 21.308 125.301 21.608 125.397 21.968C125.493 22.328 125.613 22.532 125.757 22.58C125.973 22.604 126.261 22.592 126.621 22.544C127.005 22.472 127.401 22.388 127.809 22.292C128.241 22.172 128.673 22.052 129.105 21.932C129.537 21.788 129.921 21.644 130.257 21.5C130.713 21.212 131.109 21.104 131.445 21.176C131.781 21.224 132.033 21.272 132.201 21.32C132.465 21.416 132.597 21.62 132.597 21.932C132.597 22.244 132.489 22.58 132.273 22.94C132.057 23.276 131.745 23.552 131.337 23.768C130.953 23.96 130.605 24.176 130.293 24.416C130.005 24.632 129.861 24.8 129.861 24.92C129.765 24.92 129.657 24.956 129.537 25.028C129.441 25.076 129.357 25.088 129.285 25.064C129.237 25.064 129.045 25.1 128.709 25.172C128.373 25.244 128.025 25.328 127.665 25.424C127.329 25.52 127.101 25.604 126.981 25.676ZM137.811 25.676C136.875 25.292 136.227 24.668 135.867 23.804C135.507 22.94 135.411 21.788 135.579 20.348C135.627 19.604 135.603 19.112 135.507 18.872C135.411 18.608 135.231 18.356 134.967 18.116C134.895 18.02 134.727 17.864 134.463 17.648C134.199 17.408 134.079 17.228 134.103 17.108C134.079 16.94 134.115 16.736 134.211 16.496C134.307 16.232 134.391 16.088 134.463 16.064C134.631 15.992 134.799 15.908 134.967 15.812C135.159 15.716 135.303 15.692 135.399 15.74C135.495 15.74 135.639 15.8 135.831 15.92C136.047 16.04 136.155 16.148 136.155 16.244C136.251 16.412 136.395 16.34 136.587 16.028C136.803 15.716 137.031 15.32 137.271 14.84C137.511 14.456 137.811 14.096 138.171 13.76C138.531 13.424 138.891 13.124 139.251 12.86C139.635 12.572 139.959 12.356 140.223 12.212C140.343 12.164 140.571 12.092 140.907 11.996C141.267 11.9 141.639 11.828 142.023 11.78C142.407 11.708 142.695 11.684 142.887 11.708C143.319 11.732 143.775 11.912 144.255 12.248C144.735 12.584 145.107 12.896 145.371 13.184C145.683 13.4 145.887 13.736 145.983 14.192C146.103 14.624 146.151 15.08 146.127 15.56C146.103 16.04 146.007 16.448 145.839 16.784C145.767 17.024 145.515 17.36 145.083 17.792C144.651 18.224 144.171 18.644 143.643 19.052C143.139 19.436 142.707 19.7 142.347 19.844C142.035 19.916 141.663 19.976 141.231 20.024C140.799 20.048 140.391 20.048 140.007 20.024C139.647 19.976 139.395 19.916 139.251 19.844C139.083 19.748 138.939 19.784 138.819 19.952C138.723 20.096 138.639 20.504 138.567 21.176C138.543 21.44 138.543 21.668 138.567 21.86C138.615 22.052 138.663 22.196 138.711 22.292C138.879 22.58 139.047 22.796 139.215 22.94C139.383 23.06 139.695 23.096 140.151 23.048C140.607 23 141.063 22.724 141.519 22.22C141.999 21.692 142.431 21.272 142.815 20.96C142.911 20.792 143.115 20.684 143.427 20.636C143.763 20.564 144.159 20.588 144.615 20.708C144.879 20.876 144.999 21.14 144.975 21.5C144.975 21.86 144.783 22.388 144.399 23.084C144.327 23.252 144.123 23.504 143.787 23.84C143.475 24.152 143.127 24.476 142.743 24.812C142.383 25.124 142.083 25.352 141.843 25.496C141.123 25.88 140.415 26.06 139.719 26.036C139.023 26.012 138.387 25.892 137.811 25.676ZM140.475 17.576C140.835 17.48 141.135 17.384 141.375 17.288C141.639 17.192 141.891 17.036 142.131 16.82C142.371 16.604 142.647 16.28 142.959 15.848C143.055 15.584 143.103 15.356 143.103 15.164C143.127 14.972 143.115 14.852 143.067 14.804C142.875 14.612 142.659 14.552 142.419 14.624C142.203 14.672 141.963 14.792 141.699 14.984C141.531 15.056 141.291 15.212 140.979 15.452C140.691 15.668 140.403 15.92 140.115 16.208C139.851 16.472 139.635 16.724 139.467 16.964C139.323 17.18 139.299 17.312 139.395 17.36C139.347 17.456 139.479 17.516 139.791 17.54C140.127 17.564 140.355 17.576 140.475 17.576Z" fill="#F9B401"/>
</svg>
