<svg width="120" height="170" viewBox="0 0 120 170" fill="none" xmlns="http://www.w3.org/2000/svg">
<path d="M118.506 51.1763C126.769 37.0407 98.4831 29.7201 88.272 27.2716C86.224 26.7804 85.3498 29.5523 87.3957 30.0428C94.8558 31.8319 122.373 38.2417 115.66 49.7257C114.698 51.3705 117.541 52.8264 118.506 51.1763Z" fill="#1A1A1A"/>
<path d="M73.5032 27.2198C54.4139 27.2884 33.2437 27.8203 15.4769 34.6482C8.97058 37.1487 -3.37415 44.3068 0.868012 52.0839C4.23857 58.2634 16.1138 59.9123 22.7944 61.0282C36.0613 63.2437 49.7208 63.8842 63.2043 63.9645C76.22 64.0418 89.87 63.9396 102.603 61.2815C104.664 60.851 103.791 58.0787 101.726 58.51C89.2868 61.1074 75.9243 61.1662 63.2043 61.0904C48.7618 61.0044 33.9367 60.4039 19.8207 57.5547C15.1855 56.6187 9.37093 55.5688 5.70119 52.7286C0.685563 48.8457 5.71459 43.4043 9.94854 40.6301C17.1613 35.905 26.8562 33.9994 35.5494 32.623C48.0498 30.6443 60.8221 30.1391 73.5032 30.0939C75.6234 30.0863 75.6281 27.2122 73.5032 27.2198Z" fill="#1A1A1A"/>
<path d="M80.4032 61.3783C75.7715 58.2147 74.3784 52.8412 76.2194 48.0611C79.6738 39.0916 89.9645 35.6358 99.9343 37.705C108.394 39.4606 115.225 44.6784 114.944 52.6976C114.618 62.0026 106.418 66.9671 96.4345 67.2053C94.3177 67.2558 94.3091 70.1303 96.4345 70.0794C106.965 69.828 116.387 64.8922 118.011 55.2652C119.661 45.4893 112.834 38.0258 102.295 35.2814C91.9649 32.5924 80.6167 35.1035 75.0343 43.5128C70.787 49.9109 70.9711 58.56 78.0724 63.411C79.7235 64.5385 82.072 62.5183 80.4032 61.3783Z" fill="#1A1A1A"/>
<path d="M88.9866 38.0913C99.9928 36.5419 109.599 39.9235 109.473 50.7047C109.389 57.8312 106.328 64.5166 98.567 67.6229C96.6413 68.3935 98.314 70.8713 100.23 70.1046C110.328 66.063 114.293 55.581 112.426 46.3962C110.275 35.8147 98.6807 33.8318 88.1103 35.3198C86.0221 35.6138 86.9079 38.3835 88.9866 38.0913Z" fill="#1A1A1A"/>
<path d="M79.618 53.1116C80.5963 54.2361 81.8458 55.0546 83.4425 55.3852C85.5052 55.8119 86.385 53.0411 84.3188 52.614C83.6145 52.4681 82.9128 52.1771 82.4641 51.661C81.9271 51.0439 81.0425 50.7204 80.2094 51.1456C79.512 51.5015 79.0771 52.4896 79.618 53.1116Z" fill="#1A1A1A"/>
<path d="M86.5427 46.482C87.1273 47.2198 87.6409 47.9892 88.0884 48.7967C88.4753 49.4952 89.618 49.6819 90.343 49.312C91.1619 48.8943 91.3227 48.0473 90.9341 47.3461C90.487 46.5386 89.9734 45.7692 89.3889 45.0314C88.8834 44.3939 87.9435 44.1029 87.1342 44.5157C86.4096 44.8855 86.0343 45.8404 86.5427 46.482Z" fill="#1A1A1A"/>
<path d="M98.9475 43.2375C98.1658 44.5487 97.7348 45.9254 97.6362 47.3998C97.5126 49.2474 100.809 49.2413 100.932 47.3998C100.996 46.4483 101.29 45.5337 101.794 44.6882C102.771 43.0494 99.9276 41.5943 98.9475 43.2375Z" fill="#1A1A1A"/>
<path d="M102.231 54.991C103.072 54.8017 103.914 54.6121 104.756 54.4229C106.808 53.9611 105.938 51.188 103.88 51.6517C103.038 51.8409 102.196 52.0302 101.355 52.2198C99.3023 52.682 100.172 55.4543 102.231 54.991Z" fill="#1A1A1A"/>
<path d="M83.4734 13.7161C85.0021 15.1928 86.5305 16.6694 88.0588 18.146C89.4829 19.522 91.8081 17.4844 90.3896 16.1137C88.8608 14.6371 87.3325 13.1605 85.8041 11.6838C84.38 10.3078 82.0548 12.3454 83.4734 13.7161Z" fill="#1A1A1A"/>
<path d="M78.6469 18.4967C81.097 19.8712 83.5471 21.2453 85.9972 22.6194C87.7862 23.6229 89.4408 21.1364 87.6609 20.1381L80.3106 16.0151C78.5211 15.0116 76.8665 17.4985 78.6469 18.4967Z" fill="#1A1A1A"/>
<path d="M76.2044 24.3547C78.603 25.4532 81.1815 26.0289 83.8932 26.039C86.0143 26.0466 86.0173 23.1729 83.8932 23.1649C81.763 23.157 79.7557 22.7378 77.868 21.873C75.9917 21.0139 74.3237 23.4933 76.2044 24.3547Z" fill="#1A1A1A"/>
<path d="M74.7839 62.0132C72.0087 72.8774 68.9382 83.6772 65.7203 94.4479C64.3675 98.9747 62.6048 103.553 61.6 108.151C60.913 111.296 61.4989 110.571 58.3229 110.796C56.5974 110.919 54.7193 110.706 52.989 110.608C53.5187 111.214 54.0487 111.82 54.5783 112.427C58.3639 97.0483 62.1491 81.6701 65.9347 66.2916C68.9832 53.907 72.1108 41.5088 75.5691 29.2079C78.3581 19.288 83.545 12.5898 94.3791 8.31336C97.6506 7.0222 101.047 6.08428 104.444 5.08717C105.533 4.76749 106.965 4.09496 108.1 3.99091C110.434 3.77679 110.282 1.80215 110.629 4.98123C111 8.38085 105.459 9.29089 102.377 10.4331C95.5715 12.9551 89.5143 15.7067 86.3211 21.7769C83.6284 26.8948 82.0305 32.5695 80.8778 38.0975C80.5004 39.9051 83.6764 40.681 84.056 38.8613C85.2864 32.9627 86.7664 25.6406 90.6938 20.6357C95.8504 14.0646 105.334 14.2207 111.932 9.68068C114.666 7.79955 117.896 2.18403 113.299 0.2995C110.722 -0.757179 107.063 1.27627 104.792 1.96426C99.7034 3.50648 94.6251 4.88133 89.8265 7.05312C81.2648 10.9281 76.2509 16.7585 73.5137 24.7607C69.8167 35.5687 67.5629 46.8669 64.6948 57.8615C62.5257 66.1739 60.5421 74.5241 58.4902 82.8588C56.127 92.4601 53.7634 102.061 51.4002 111.663C51.165 112.617 51.8818 113.419 52.989 113.482C56.0038 113.653 59.028 113.643 62.0423 113.814C62.7488 113.855 63.4587 113.34 63.6316 112.759C68.5802 96.1323 73.678 79.5477 77.9621 62.777C78.4226 60.9754 75.2457 60.2056 74.7839 62.0132Z" fill="#1A1A1A"/>
<path d="M5.13815 57.0692C14.4323 64.5896 19.0583 75.838 16.5417 86.8002C14.2269 96.8852 5.5986 104.576 4.61501 115.112C3.88954 122.88 6.96999 131.026 14.3475 135.785C22.7631 141.213 50.3467 142.526 37.944 156.343C36.6513 157.783 38.9678 159.831 40.2748 158.375C46.2303 151.74 47.1024 145.23 37.8204 140.987C32.1281 138.386 25.5184 137.818 19.8054 135.29C10.7054 131.263 6.88006 122.85 8.07031 114.267C9.73224 102.279 20.4444 93.3601 20.4838 80.9137C20.5149 71.0333 15.7392 61.7291 7.46892 55.0369C5.9155 53.78 3.57955 55.8078 5.13815 57.0692Z" fill="#1A1A1A"/>
<path d="M100.651 58.3025C92.6366 64.8948 89.4186 74.225 90.1856 83.6963C91.1796 95.964 102.548 107.391 98.4516 119.829C96.1083 126.945 90.2946 131.517 82.7575 134.444C77.7012 136.407 72.2567 138.088 68.6743 141.984C62.9354 148.224 66.1806 156.538 74.5776 159.137C76.5802 159.756 77.4418 156.981 75.4535 156.365C69.7915 154.613 67.2005 149.398 70.3769 144.788C72.3328 141.95 75.8776 140.272 79.185 138.9C83.3719 137.162 87.7796 135.939 91.5371 133.487C98.1857 129.148 102.334 122.179 102.675 114.954C103.107 105.826 96.7503 98.0616 94.4676 89.4355C91.7325 79.1002 93.8835 67.8186 102.982 60.3348C104.528 59.0629 102.194 57.0332 100.651 58.3025Z" fill="#1A1A1A"/>
<path d="M41.8537 151.664C36.2415 152.155 25.3611 153.217 22.9871 158.631C20.1686 165.057 30.595 167.348 35.5545 168.244C46.9165 170.298 59.1488 170.504 70.6223 169.102C76.2701 168.413 86.9676 167.077 87.188 160.413C87.431 153.078 74.596 151.85 68.5021 151.664C66.3806 151.6 66.3836 154.474 68.5021 154.538C72.9804 154.675 90.3757 157.585 81.5797 163.407C75.0586 167.723 62.5453 167.098 54.872 167.013C46.926 166.924 35.5488 167.127 28.5038 163.308C19.5646 158.461 37.7093 154.9 41.8537 154.538C43.9445 154.356 43.9662 151.48 41.8537 151.664Z" fill="#1A1A1A"/>
<path d="M70.2312 41.6724C56.3339 41.4527 39.6001 41.8017 26.9968 47.674C20.2604 50.8127 17.659 55.8533 23.6167 60.9109C25.1377 62.2021 27.4706 60.1717 25.9475 58.879C18.0096 52.1404 32.6601 48.4253 38.3415 47.179C48.7368 44.8994 59.5519 44.3776 70.2312 44.5465C72.3527 44.5801 72.3532 41.706 70.2312 41.6724Z" fill="#1A1A1A"/>
<path d="M23.0387 60.9113C34.2122 68.8852 26.3163 84.4605 22.3361 93.8266C18.052 103.907 12.3831 117.564 22.7088 126.379C42.147 142.972 96.7746 139.311 91.8381 108.336C90.6067 100.608 86.3149 93.6853 84.3516 86.1411C82.3507 78.4526 86.0931 69.6765 90.6859 63.1196C91.7944 61.5371 88.9448 60.0913 87.8397 61.669C83.956 67.2136 81.0338 73.8892 80.5409 80.391C79.9992 87.5371 84.0252 94.1882 86.4 100.848C90.1351 111.324 90.0745 121.05 78.831 127.785C68.7059 133.849 55.3599 134.471 43.7281 131.988C31.9925 129.483 19.656 124.474 20.1649 112.465C20.5012 104.526 24.596 96.8851 27.6782 89.549C31.4962 80.4608 35.7107 66.2595 25.3694 58.879C23.7408 57.7167 21.3958 59.7389 23.0387 60.9113Z" fill="#1A1A1A"/>
<path d="M29.255 105.381C27.8179 112.077 29.9653 119.403 38.003 121.845C40.0104 122.455 40.8734 119.679 38.8794 119.073C32.658 117.184 31.3506 111.19 32.4331 106.144C32.8214 104.337 29.645 103.562 29.255 105.381Z" fill="#1A1A1A"/>
<path d="M44.0346 122.92C43.9152 123.024 43.7959 123.128 43.6762 123.232C42.1746 124.542 44.5045 126.575 46.0069 125.265C46.1263 125.16 46.246 125.056 46.3653 124.952C47.8669 123.643 45.537 121.61 44.0346 122.92Z" fill="#1A1A1A"/>
<path d="M23.608 51.8752C25.2816 54.6086 27.1442 57.2362 29.1999 59.7635C29.9406 60.6743 31.6812 59.8012 30.9324 58.8806C28.8766 56.3533 27.0136 53.7254 25.3404 50.9923C24.7321 49.9985 22.9997 50.8814 23.608 51.8752Z" fill="#1A1A1A"/>
<path d="M26.8375 50.0005C29.0541 53.5652 31.2712 57.1303 33.4882 60.6954C34.1039 61.6854 35.8367 60.8033 35.2206 59.8122C33.0036 56.2474 30.7865 52.6823 28.5699 49.1172C27.9542 48.1273 26.2214 49.0094 26.8375 50.0005Z" fill="#1A1A1A"/>
<path d="M30.6042 48.841C33.5472 52.9256 36.4897 57.0098 39.4327 61.0944C40.118 62.0452 41.8547 61.1683 41.1651 60.2112C38.2226 56.127 35.2792 52.0424 32.3366 47.9581C31.6514 47.0074 29.9146 47.8843 30.6042 48.841Z" fill="#1A1A1A"/>
<path d="M35.7371 47.8417C38.8176 53.2069 42.4916 58.2268 46.7355 62.9481C47.5315 63.8336 48.9422 62.5877 48.1545 61.7112C44.0187 57.1109 40.4696 52.1845 37.4695 46.9584C36.8915 45.9515 35.1604 46.8367 35.7371 47.8417Z" fill="#1A1A1A"/>
</svg>
