<svg width="100" height="170" viewBox="0 0 100 170" fill="none" xmlns="http://www.w3.org/2000/svg">
<path d="M12.6273 6.86493C15.2434 6.38024 17.8595 5.89555 20.4752 5.41049C22.4485 5.04446 21.6134 2.31078 19.643 2.67569C17.0269 3.16075 14.4108 3.64581 11.7947 4.13051C9.82179 4.49616 10.6569 7.23022 12.6273 6.86493Z" fill="#1A1A1A"/>
<path d="M4.85433 21.2345C3.81635 26.1253 9.74645 28.3174 13.6955 25.3732C19.0982 21.345 18.8591 11.1289 18.9297 5.41755C18.9523 3.59224 15.8207 3.59112 15.7981 5.41755C15.7566 8.79103 15.4884 12.1385 14.8538 15.4662C14.5893 16.8552 14.3157 18.2765 13.8614 19.6246C13.5891 20.2942 13.3163 20.9633 13.0436 21.6329C11.8315 24.1375 10.1083 24.2557 7.87381 21.9881C8.25211 20.2049 5.23469 19.4416 4.85433 21.2345Z" fill="#1A1A1A"/>
<path d="M24.6821 3.91043C24.303 9.27922 23.3365 14.9147 23.6959 20.2939C23.8503 22.6054 24.3268 26.8508 27.746 26.8516C30.9359 26.8519 32.6471 23.0626 33.3598 20.7957C35.1022 15.2521 35.752 9.29298 36.3961 3.57192C36.6007 1.75815 33.4674 1.7708 33.2649 3.57192C32.8361 7.37728 32.2803 11.1655 31.5249 14.9292C31.2538 16.2806 30.1937 24.6338 27.1725 22.5585C25.7452 21.578 27.0547 14.6543 27.1602 13.1597C27.3779 10.0767 27.5956 6.9934 27.8137 3.91043C27.9423 2.08809 24.8103 2.09516 24.6821 3.91043Z" fill="#1A1A1A"/>
<path d="M40.4341 3.91199C39.76 10.916 39.086 17.9196 38.4119 24.9237C38.2603 26.4986 41.201 26.8814 41.4872 25.3005C41.5283 25.0751 41.5694 24.8493 41.6101 24.6238C41.9333 22.8387 38.9167 22.0706 38.5906 23.8698L38.4678 24.5468C39.493 24.6726 40.5183 24.7979 41.5435 24.9237C42.2172 17.9196 42.8912 10.916 43.5657 3.91199C43.7403 2.09412 40.6078 2.10491 40.4341 3.91199Z" fill="#1A1A1A"/>
<path d="M60.1175 5.36292C60.3689 2.08913 57.0455 -0.8179 53.3926 0.981369C48.8422 3.22292 48.1197 10.2221 47.8576 14.2622C47.6728 17.1101 46.5079 23.8492 51.3216 24.3618C55.8818 24.8476 58.4708 19.814 58.8019 16.5294C58.9851 14.7123 55.8522 14.7234 55.6702 16.5294C55.4069 19.1433 51.0583 23.7469 50.8393 18.7047C50.7752 17.235 50.894 15.7293 50.9888 14.2622C51.1067 12.4514 51.2797 10.6242 51.7984 8.86512C52.0987 7.74434 52.5349 6.66709 53.1071 5.63261C53.6818 3.91332 54.9744 3.8233 56.9859 5.36292C56.8462 7.18414 59.9783 7.17633 60.1175 5.36292Z" fill="#1A1A1A"/>
<path d="M75.4083 0.0218868C72.4208 0.470123 69.5418 -0.931499 67.7086 1.94242C65.7222 5.05589 66.0356 10.1278 65.509 13.6226C65.2067 15.6287 63.378 20.0943 65.0531 21.8962C67.0637 24.0589 72.7153 21.5383 74.8882 21.0421C76.841 20.5965 76.0137 17.8606 74.0556 18.3077C72.742 18.6075 71.2543 19.2105 69.9197 19.2521C68.3387 19.3012 68.326 19.4244 67.953 18.1965C67.4207 16.4463 68.83 12.3765 69.1044 10.5556C69.3619 8.84749 69.159 5.75187 70.075 4.30449C71.4083 2.19723 74.0922 3.07882 76.2409 2.75631C78.224 2.45835 77.3828 -0.274954 75.4083 0.0218868Z" fill="#1A1A1A"/>
<path d="M68.7023 10.8472C70.5638 10.9811 72.397 10.8572 74.229 10.5336C76.2048 10.1843 75.3685 7.45023 73.3964 7.79915C71.8405 8.07404 70.2812 8.125 68.7023 8.01118C66.6929 7.86647 66.7035 10.7032 68.7023 10.8472Z" fill="#1A1A1A"/>
<path d="M14.1524 57.7624C5.48459 64.7236 4.34925 76.5649 3.29977 86.3431C1.23407 105.587 0.395307 125.313 0.0178211 144.654C-0.155518 153.544 0.756772 163.153 10.8441 167.19C17.5912 169.891 25.5994 170 32.841 170C45.1572 170.001 57.6384 169.441 69.8736 168.127C78.7842 167.17 92.2997 166.166 97.2411 158.051C101.207 151.537 99.7123 141.306 99.7731 134.243C99.9008 119.371 99.4625 104.472 98.3818 89.6329C97.6646 79.7929 97.9657 67.3022 93.3866 58.102C91.7563 54.8267 89.1809 54.2926 85.3863 53.6721C77.3519 52.3587 69.034 52.1109 60.8912 51.9792C50.9747 51.8189 40.9773 52.0287 31.1294 53.1632C25.4642 53.8161 18.8046 54.4707 14.1524 57.7624C12.566 58.8847 14.796 60.8789 16.3668 59.7677C20.6842 56.713 27.946 56.3147 33.1384 55.7835C40.8183 54.9967 48.5771 54.7683 56.3018 54.7758C63.3923 54.7825 70.505 54.9919 77.5659 55.6016C80.7443 55.8765 87.3468 55.6949 89.8069 57.9413C91.9465 59.8953 92.2348 64.8252 92.7072 67.355C93.7074 72.7115 94.2726 78.1387 94.7585 83.5507C95.9386 96.6983 96.4459 109.904 96.6123 123.091C96.7326 132.628 97.189 142.498 95.8996 151.99C94.8354 159.825 87.5699 162.317 79.7947 163.847C71.3368 165.513 62.5917 166.036 53.9704 166.484C43.8555 167.01 33.5196 167.668 23.4014 166.842C17.9034 166.393 11.2722 165.524 7.30712 161.646C3.83786 158.253 3.32236 153.269 3.1597 148.863C2.89928 141.794 3.68054 134.687 4.10157 127.634C4.74769 116.812 4.90747 105.973 5.67025 95.1565C6.45808 83.9799 6.20177 67.9316 16.3668 59.7677C17.8775 58.554 15.6562 56.5546 14.1524 57.7624Z" fill="#1A1A1A"/>
<path d="M71.1372 54.5393C73.1376 57.3641 75.2136 60.1487 77.3565 62.8861C79.5836 65.7322 82.4014 70.447 85.966 72.0975C92.2822 75.022 91.7043 59.0291 91.7096 56.2976C91.7129 54.4727 88.5817 54.4697 88.578 56.2976C88.5731 58.8758 88.4634 61.4641 88.2058 64.0318C88.0296 65.788 87.4258 67.4935 87.2225 69.2143C87.1338 69.9649 87.7072 69.8872 87.2989 69.4985C86.7957 69.0197 86.235 68.5923 85.7376 68.1028C81.1741 63.6119 77.4715 58.2349 73.8413 53.1079C72.7564 51.5765 70.045 52.997 71.1372 54.5393Z" fill="#1A1A1A"/>
<path d="M74.258 58.3943C75.4961 74.6335 76.3981 90.9024 77.0097 107.17C77.4562 119.044 77.7708 130.938 77.4693 142.818C77.3063 149.243 78.4244 159.504 74.472 165.246C73.4024 166.799 76.1106 168.224 77.1757 166.677C80.9394 161.21 80.2699 152.104 80.5016 146.008C80.9608 133.926 80.6581 121.815 80.2346 109.735C79.634 92.6113 78.6922 75.4864 77.3897 58.3943C77.2516 56.5839 74.1192 56.5701 74.258 58.3943Z" fill="#1A1A1A"/>
<path d="M77.6622 165.9C79.946 163.025 82.2294 160.149 84.5128 157.273C86.5025 154.767 88.7383 150.626 91.7011 149.036C91.0689 148.962 90.4363 148.888 89.8038 148.813C92.0038 150.431 93.5967 153.611 95.1522 155.721C96.2658 157.231 98.9793 155.813 97.8562 154.289C96.1081 151.918 94.4712 148.612 92.0182 146.809C91.4731 146.408 90.7625 146.242 90.1209 146.587C87.3967 148.049 85.3881 151.345 83.5668 153.629C80.6895 157.237 77.8277 160.855 74.9582 164.469C73.7797 165.953 76.4948 167.37 77.6622 165.9Z" fill="#1A1A1A"/>
<path d="M86.638 71.0996C86.3759 87.1264 86.1142 103.153 85.8518 119.18C85.8222 121.005 88.9538 121.006 88.9834 119.18C89.2454 103.153 89.5075 87.1264 89.7696 71.0996C89.7991 69.2743 86.6679 69.2736 86.638 71.0996Z" fill="#1A1A1A"/>
<path d="M86.376 128.422C86.6179 135.306 86.8599 142.189 87.1022 149.073C87.1659 150.893 90.2979 150.902 90.2334 149.073C89.9915 142.189 89.7495 135.306 89.5076 128.422C89.4435 126.602 86.3115 126.594 86.376 128.422Z" fill="#1A1A1A"/>
<path d="M35.8856 53.8337C35.9143 50.4744 35.971 46.1873 37.8856 43.2375C40.4109 39.3462 47.9577 39.6044 52.359 39.4262C55.9502 39.2807 63.5932 38.4654 66.5942 40.7277C69.8289 43.1661 68.7474 50.3702 68.3781 53.8337C68.1842 55.649 71.3171 55.6371 71.5097 53.8337C71.9566 49.6434 72.7757 42.4102 69.2633 39.0657C65.6651 35.6391 56.9352 36.405 52.359 36.5906C47.708 36.7784 40.1061 36.6285 36.5338 39.8707C32.9848 43.0917 32.7905 49.55 32.754 53.8337C32.7384 55.6587 35.87 55.6605 35.8856 53.8337Z" fill="#1A1A1A"/>
<path d="M35.7671 48.1563C46.9311 46.6814 58.1107 46.1908 69.3806 46.6174C71.3958 46.6937 71.3917 43.8577 69.3806 43.7815C57.8194 43.3436 46.3827 43.9094 34.9345 45.4219C32.9481 45.6841 33.7926 48.4171 35.7671 48.1563Z" fill="#1A1A1A"/>
<path d="M40.6681 39.6638C40.3982 41.7145 40.3255 43.7634 40.4487 45.8256C40.5576 47.6409 43.6896 47.6524 43.5803 45.8256C43.4567 43.7634 43.5294 41.7145 43.7997 39.6638C44.0379 37.8556 40.9042 37.8708 40.6681 39.6638Z" fill="#1A1A1A"/>
<path d="M46.7725 39.3405C46.9286 40.9902 47.0851 42.6392 47.2416 44.2889C47.4125 46.0934 50.5457 46.1098 50.3732 44.2889C50.2167 42.6392 50.0602 40.9902 49.9041 39.3405C49.7328 37.5356 46.6 37.5193 46.7725 39.3405Z" fill="#1A1A1A"/>
<path d="M53.5195 38.7283V44.2768C53.5195 46.1014 56.6511 46.1047 56.6511 44.2768V38.7283C56.6511 36.9038 53.5195 36.9008 53.5195 38.7283Z" fill="#1A1A1A"/>
<path d="M60.668 39.0379V43.6616C60.668 45.4861 63.7996 45.4895 63.7996 43.6616V39.0379C63.7996 37.2133 60.668 37.2099 60.668 39.0379Z" fill="#1A1A1A"/>
<path d="M26.827 68.5245C25.3392 66.4924 22.6545 66.0311 20.411 67.4324C17.4778 69.2651 16.9158 72.918 16.6074 75.8827C16.303 78.8083 16.8559 82.3555 20.3083 83.5525C22.8123 84.4211 25.2238 83.1482 26.0749 80.9758C26.7502 79.2528 23.7258 78.5111 23.0554 80.2218C21.564 81.0766 20.6311 80.9252 20.2569 79.7676C19.6971 79.0783 19.4855 78.2901 19.6231 77.4033C19.6034 76.4998 19.7595 75.5773 19.9033 74.6871C20.0343 73.8762 20.1711 73.0612 20.4516 72.2782C20.7293 71.5037 22.6069 67.8847 24.123 69.9559C25.232 71.4698 27.9451 70.0511 26.827 68.5245Z" fill="#1A1A1A"/>
<path d="M34.383 66.2654C30.4262 66.2791 29.5653 71.1201 29.2445 73.8846C28.9528 76.4018 28.7286 81.043 31.7879 82.4253C35.1696 83.9541 37.6859 80.2645 38.5892 77.8715C39.9385 74.296 39.3109 70.4111 37.1548 67.2176C36.1053 65.6631 33.396 67.0859 34.4512 68.649C36.1817 71.2123 37.4633 76.6042 34.519 79.0109C32.1789 80.9232 32.2335 77.0234 32.2529 75.7445C32.2672 74.793 32.6509 69.1073 34.383 69.1013C36.3978 69.0943 36.4019 66.2583 34.383 66.2654Z" fill="#1A1A1A"/>
<path d="M50.6353 66.4084C49.226 64.7877 46.6272 64.6697 44.8161 65.8333C42.5073 67.3156 41.8846 70.2989 41.5383 72.6617C41.1937 75.0093 40.9213 78.0621 42.8441 79.9678C44.529 81.6376 47.0913 81.731 48.9631 80.3416C50.5228 79.184 48.2961 77.188 46.7492 78.3363C42.9455 81.1596 44.7143 64.1504 48.4209 68.4137C49.6668 69.8466 51.8688 67.8275 50.6353 66.4084Z" fill="#1A1A1A"/>
<path d="M58.4329 65.401C54.3566 66.3611 54.4161 73.3595 54.3147 76.4057C54.2009 79.8085 55.6575 84.2552 60.5286 82.5935C64.2086 81.3385 65.9744 76.2364 66.0521 73.0284C66.1424 69.3194 63.3945 65.8801 59.1078 65.8834C57.0926 65.8849 57.0894 68.7205 59.1078 68.7191C62.4912 68.7168 63.254 72.0877 62.7007 74.5242C62.5081 75.3723 62.1766 76.1985 61.8151 76.9971C61.1357 78.4984 60.9575 79.3506 58.9817 79.2305C56.9304 79.1059 57.4225 78.4173 57.4295 76.8974C57.434 75.9187 57.5104 74.9241 57.6274 73.9513C57.7269 73.127 58.0986 68.4103 59.2655 68.1358C61.2142 67.6768 60.3881 64.9408 58.4329 65.401Z" fill="#1A1A1A"/>
<path d="M32.9682 114.766C29.3399 119.211 35.1567 126.233 38.034 129.583C42.4267 134.696 49.1499 141.207 56.5982 142.366C62.1685 143.232 65.3958 139.468 64.4671 134.682C63.1847 128.077 57.3774 121.737 51.948 117.482C47.0074 113.61 38.8523 109.201 33.213 114.479C31.8111 115.791 34.0226 117.798 35.427 116.484C40.6497 111.596 49.1179 118.644 52.7457 122.101C55.8239 125.033 64.0571 133.54 61.2258 138.253C57.9919 143.635 46.931 134.199 44.6004 132.068C41.7083 129.421 32.1458 120.517 35.6722 116.197C36.8708 114.728 34.1544 113.312 32.9682 114.766Z" fill="#1A1A1A"/>
<path d="M39.6497 119.908C37.5528 122.141 40.5078 125.7 41.9692 127.54C44.3931 130.593 47.4923 133.989 51.3214 135.639C54.0993 136.835 57.5575 135.992 57.4753 132.737C57.3845 129.12 53.2683 125.773 50.4703 123.649C48.4074 122.083 42.9645 117.713 39.9664 119.686C38.3525 120.75 39.9134 123.211 41.547 122.135C41.8596 121.93 43.7708 122.832 44.5595 123.256C46.2004 124.138 47.7231 125.2 49.1439 126.35C50.0024 127.046 56.0118 132.118 54.1498 133.402C52.5762 134.488 47.6788 129.408 46.8679 128.579C45.5884 127.271 44.3989 125.878 43.3995 124.381C43.0323 123.831 42.6285 123.252 42.3763 122.648C42.097 121.98 42.2711 121.48 41.8641 121.914C43.1629 120.531 40.958 118.516 39.6497 119.908Z" fill="#1A1A1A"/>
<path d="M33.2127 114.479C21.7949 123.028 8.53275 140.166 23.6067 151.28C38.8351 162.509 56.381 153.118 64.4733 139.463C65.4263 137.856 62.7239 136.422 61.7697 138.032C54.4965 150.305 38.0399 159.849 24.5457 148.29C12.7356 138.173 25.9961 123.545 35.4271 116.484C36.9814 115.32 34.7551 113.324 33.2127 114.479Z" fill="#1A1A1A"/>
<path d="M26.2748 131.327C24.3862 133.393 23.3872 135.9 23.6033 138.597C23.7483 140.406 26.8811 140.42 26.7349 138.597C26.5804 136.673 27.1152 134.835 28.4892 133.332C29.765 131.936 27.5617 129.919 26.2748 131.327Z" fill="#1A1A1A"/>
<path d="M26.1492 144.949H26.4897C28.5045 144.949 28.5077 142.114 26.4897 142.114H26.1492C24.1344 142.114 24.1307 144.949 26.1492 144.949Z" fill="#1A1A1A"/>
<path d="M53.685 103.879C55.0651 101.603 56.1894 98.7028 55.5194 96.0758C54.976 93.9455 53.0536 92.2381 50.5283 92.3858C43.5376 92.7935 49.2402 101.831 50.4975 104.431C51.3038 106.099 54.0025 104.657 53.2015 103C52.5776 101.71 51.9528 100.42 51.3301 99.1298C51.0003 98.4465 49.5565 96.2224 50.2662 95.4699C51.83 93.8108 52.594 97.5905 52.5303 98.2467C52.3874 99.7317 51.7643 101.156 50.981 102.447C50.0103 104.048 52.7135 105.481 53.685 103.879Z" fill="#1A1A1A"/>
<path d="M57.905 113.271C61.221 111.733 64.648 110.065 67.0238 107.389C68.5674 105.65 70.5875 102.41 68.1263 100.556C65.7652 98.7783 62.4065 100.097 60.5297 101.798C57.7867 104.285 56.3798 108.049 55.7489 111.433C55.4162 113.218 58.4336 113.985 58.7688 112.186C59.1574 110.102 59.806 108.091 60.8994 106.214C61.4005 105.353 61.9756 104.492 62.7437 103.804C63.4958 103.13 66.1066 101.627 65.8922 103.654C65.7172 105.31 63.0678 107.126 61.718 108.002C60.0282 109.097 58.1699 109.966 56.3244 110.823C54.5306 111.656 56.1129 114.103 57.905 113.271Z" fill="#1A1A1A"/>
<path d="M10.1501 98.4218C8.88497 103.96 8.36701 109.519 8.63523 115.172C8.72108 116.99 11.8531 117 11.7668 115.172C11.5105 109.774 11.9603 104.471 13.17 99.1754C13.5766 97.3944 10.5588 96.6329 10.1501 98.4218Z" fill="#1A1A1A"/>
<path d="M9.4734 126.455H9.81391C11.8287 126.455 11.832 123.619 9.81391 123.619H9.4734C7.45863 123.619 7.45494 126.455 9.4734 126.455Z" fill="#1A1A1A"/>
<path d="M79.1169 150.127C80.3906 151.916 81.873 153.563 83.5617 155.044C84.4432 155.817 85.7925 154.598 84.9098 153.823C83.3341 152.441 81.9515 150.925 80.7628 149.255C80.1002 148.325 78.4494 149.189 79.1169 150.127Z" fill="#1A1A1A"/>
<path d="M78.24 143.868C80.5505 146.767 82.9982 149.567 85.5881 152.265C86.3944 153.105 87.7376 151.88 86.9358 151.045C84.4527 148.457 82.102 145.777 79.8859 142.997C79.1745 142.105 77.5204 142.965 78.24 143.868Z" fill="#1A1A1A"/>
<path d="M78.8208 139.828C81.2628 140.773 82.6827 142.691 84.1878 144.572C85.0766 145.682 86.5681 148.134 88.2547 148.139C88.5586 148.14 88.9497 147.98 89.0778 147.711C89.2701 147.307 89.3005 147.026 89.0651 146.626C88.9246 146.387 88.5533 146.162 88.2423 146.199C88.2095 146.203 88.1766 146.207 88.1438 146.211C86.9452 146.353 86.9296 148.081 88.1438 147.937C88.1766 147.933 88.2095 147.929 88.2423 147.925C87.968 147.783 87.694 147.64 87.4196 147.497C87.4405 147.533 87.4615 147.569 87.4824 147.605V146.733C87.4656 146.769 87.4488 146.804 87.4319 146.84C87.7059 146.698 87.9803 146.555 88.2547 146.412C87.8677 146.411 86.3644 144.359 86.1232 144.062C85.5174 143.317 84.9399 142.553 84.3155 141.82C83.0717 140.359 81.6826 139.073 79.7828 138.338C78.6672 137.906 77.6949 139.392 78.8208 139.828Z" fill="#1A1A1A"/>
</svg>
