<svg width="33" height="32" viewBox="0 0 33 32" fill="none" xmlns="http://www.w3.org/2000/svg">
<path d="M23.2546 4C25.0426 4 26.7626 4.70667 28.0279 5.97467C29.2946 7.24 30.0026 8.94667 30.0026 10.7333V21.2667C30.0026 24.9867 26.9759 28 23.2546 28H10.0826C6.36127 28 3.33594 24.9867 3.33594 21.2667V10.7333C3.33594 7.01333 6.34794 4 10.0826 4H23.2546ZM24.7626 10.9333C24.4826 10.9187 24.2159 11.0133 24.0146 11.2L18.0026 16C17.2293 16.6413 16.1213 16.6413 15.3359 16L9.33594 11.2C8.92127 10.8933 8.34794 10.9333 8.0026 11.2933C7.6426 11.6533 7.6026 12.2267 7.90794 12.6267L8.0826 12.8L14.1493 17.5333C14.8959 18.12 15.8013 18.44 16.7493 18.44C17.6946 18.44 18.6159 18.12 19.3613 17.5333L25.3759 12.72L25.4826 12.6133C25.8013 12.2267 25.8013 11.6667 25.4679 11.28C25.2826 11.0813 25.0279 10.96 24.7626 10.9333Z" fill="#1A1A1A"/>
</svg>
