<svg width="33" height="32" viewBox="0 0 33 32" fill="none" xmlns="http://www.w3.org/2000/svg">
<g clip-path="url(#clip0_3412_42)">
<path d="M16.332 2.66602C19.5146 2.66602 22.5669 3.9303 24.8173 6.18073C27.0677 8.43117 28.332 11.4834 28.332 14.666C28.332 18.7647 26.0974 22.1194 23.7427 24.526C22.5661 25.7152 21.2824 26.7935 19.908 27.7474L19.34 28.134L19.0734 28.3113L18.5707 28.6314L18.1227 28.9047L17.568 29.2273C17.1914 29.4417 16.7654 29.5545 16.332 29.5545C15.8986 29.5545 15.4727 29.4417 15.096 29.2273L14.5414 28.9047L13.848 28.478L13.592 28.3113L13.0454 27.9473C11.5627 26.9438 10.1815 25.7979 8.92136 24.526C6.5667 22.1167 4.33203 18.7647 4.33203 14.666C4.33203 11.4834 5.59631 8.43117 7.84675 6.18073C10.0972 3.9303 13.1494 2.66602 16.332 2.66602ZM16.332 10.666C15.8067 10.666 15.2866 10.7695 14.8013 10.9705C14.316 11.1715 13.875 11.4662 13.5036 11.8376C13.1322 12.209 12.8375 12.65 12.6365 13.1353C12.4355 13.6206 12.332 14.1407 12.332 14.666C12.332 15.1913 12.4355 15.7114 12.6365 16.1967C12.8375 16.6821 13.1322 17.123 13.5036 17.4944C13.875 17.8659 14.316 18.1605 14.8013 18.3615C15.2866 18.5626 15.8067 18.666 16.332 18.666C17.3929 18.666 18.4103 18.2446 19.1605 17.4944C19.9106 16.7443 20.332 15.7269 20.332 14.666C20.332 13.6052 19.9106 12.5877 19.1605 11.8376C18.4103 11.0874 17.3929 10.666 16.332 10.666Z" fill="#1A1A1A"/>
</g>
<defs>
<clipPath id="clip0_3412_42">
<rect width="32" height="32" fill="white" transform="translate(0.332031)"/>
</clipPath>
</defs>
</svg>
