<svg width="28" height="28" viewBox="0 0 28 28" fill="none" xmlns="http://www.w3.org/2000/svg">
<path d="M21.868 21.186C21.5213 20.1193 20.5213 19.3327 19.3346 19.3327H18.0013V15.3327C18.0013 14.9791 17.8608 14.6399 17.6108 14.3899C17.3607 14.1398 17.0216 13.9993 16.668 13.9993H8.66797V11.3327H11.3346C11.6883 11.3327 12.0274 11.1922 12.2774 10.9422C12.5275 10.6921 12.668 10.353 12.668 9.99935V7.33268H15.3346C16.0419 7.33268 16.7202 7.05173 17.2203 6.55163C17.7203 6.05154 18.0013 5.37326 18.0013 4.66602V4.11935C19.5966 4.7625 21.0123 5.78265 22.1272 7.09246C23.2421 8.40228 24.023 9.96275 24.4031 11.6403C24.7832 13.3178 24.7511 15.0625 24.3096 16.725C23.8681 18.3874 23.0303 19.9181 21.868 21.186ZM12.668 24.5727C7.4013 23.9193 3.33464 19.4393 3.33464 13.9993C3.33464 13.1727 3.4413 12.3727 3.61464 11.6127L10.0013 17.9993V19.3327C10.0013 20.0399 10.2823 20.7182 10.7824 21.2183C11.2824 21.7184 11.9607 21.9993 12.668 21.9993M14.0013 0.666016C12.2503 0.666016 10.5165 1.01089 8.89886 1.68096C7.28118 2.35102 5.81133 3.33314 4.57321 4.57126C2.07273 7.07174 0.667969 10.4631 0.667969 13.9993C0.667969 17.5356 2.07273 20.927 4.57321 23.4274C5.81133 24.6656 7.28118 25.6477 8.89886 26.3177C10.5165 26.9878 12.2503 27.3327 14.0013 27.3327C17.5375 27.3327 20.9289 25.9279 23.4294 23.4274C25.9299 20.927 27.3346 17.5356 27.3346 13.9993C27.3346 12.2484 26.9898 10.5146 26.3197 8.8969C25.6496 7.27923 24.6675 5.80937 23.4294 4.57126C22.1913 3.33314 20.7214 2.35102 19.1037 1.68096C17.4861 1.01089 15.7523 0.666016 14.0013 0.666016Z" fill="#1A1A1A"/>
</svg>
