<svg width="74" height="62" viewBox="0 0 74 62" fill="none" xmlns="http://www.w3.org/2000/svg">
<path d="M47.6485 60.0923C44.7705 58.0938 42.702 56.0044 41.4429 53.8242C40.3636 51.644 40.1838 49.3729 40.9033 47.011C41.4429 42.8322 42.3422 38.926 43.6014 35.2923C45.0403 31.6586 46.2995 28.1158 47.3787 24.6637C48.458 20.485 50.2567 16.6696 52.7749 13.2176C55.2931 9.76556 58.0812 6.31355 61.139 2.86153C60.9592 2.13479 61.4988 1.68058 62.7579 1.4989C64.017 1.31722 65.6359 0.863003 67.6145 0.136262C69.5931 -0.0454207 70.7623 -0.0454207 71.122 0.136262C71.6616 0.317945 72.561 0.953839 73.8201 2.04395C74.1799 3.31575 74 4.4967 73.2805 5.58681C72.7409 6.49523 72.0214 7.67618 71.122 9.12967C68.9635 12.5817 66.4453 16.8513 63.5673 21.9385C60.8692 27.0256 59.0705 30.9319 58.1711 33.6571C58.1711 34.3839 58.0812 35.0198 57.9013 35.5648C60.9592 35.0198 64.1069 36.1099 67.3447 38.8352C70.7623 42.1055 71.8415 45.4667 70.5824 48.9187C69.5032 52.189 66.6252 55.4593 61.9485 58.7297C58.7108 60.7282 56.2825 61.8183 54.6636 62C53.2246 62 50.8862 61.3641 47.6485 60.0923ZM7.17696 60.0923C4.29898 58.0938 2.23043 56.0044 0.971317 53.8242C-0.107924 51.644 -0.287798 49.3729 0.431696 47.011C0.971317 42.8322 1.87069 38.926 3.1298 35.2923C4.56879 31.6586 5.82791 28.1158 6.90715 24.6637C7.98639 20.485 9.78512 16.6696 12.3034 13.2176C14.8216 9.76556 17.6096 6.31355 20.6675 2.86153C20.4876 2.13479 21.0272 1.68058 22.2863 1.4989C23.5455 1.31722 25.1643 0.863003 27.1429 0.136262C29.1215 -0.0454207 30.2907 -0.0454207 30.6505 0.136262C31.1901 0.317945 32.0895 0.953839 33.3486 2.04395C33.7083 3.31575 33.5284 4.4967 32.8089 5.58681C32.2693 6.49523 31.5498 7.67618 30.6505 9.12967C28.492 12.5817 25.9737 16.8513 23.0958 21.9385C20.3977 27.0256 18.5989 30.9319 17.6996 33.6571C17.6996 34.3839 17.6096 35.0198 17.4298 35.5648C20.4876 35.0198 23.6354 36.1099 26.8731 38.8352C30.2907 42.1055 31.37 45.4667 30.1108 48.9187C29.0316 52.189 26.1536 55.4593 21.4769 58.7297C18.2392 60.7282 15.8109 61.8183 14.192 62C12.753 62 10.4147 61.3641 7.17696 60.0923Z" fill="#1A1A1A"/>
</svg>
