<svg width="24" height="24" viewBox="0 0 24 24" fill="none" xmlns="http://www.w3.org/2000/svg">
<path d="M12.1055 3C12.2814 3.02318 12.4367 3.11923 12.5352 3.2627L12.5752 3.3291L14.79 7.78906V7.79004C14.9935 8.20564 15.3642 8.50912 15.8018 8.63184L15.9932 8.67285L15.9971 8.67383L20.9668 9.39453H20.9678C21.2005 9.42778 21.3958 9.58834 21.4746 9.80957C21.5345 9.99769 21.4957 10.2014 21.374 10.3535L21.3164 10.415L21.3154 10.417L17.5752 13.957L17.5713 13.9609C17.2411 14.2809 17.0677 14.7252 17.0869 15.1777L17.1064 15.3721L17.1074 15.3789L17.9971 20.2988C18.0321 20.4943 17.9637 20.6918 17.8203 20.8252L17.7549 20.8779L17.7441 20.8867C17.5818 21.0054 17.3709 21.0333 17.1836 20.9648L17.1055 20.9297L17.0996 20.9268L12.6709 18.6162H12.6699C12.4469 18.4984 12.2018 18.4368 11.9541 18.4297L11.9473 18.4287H11.6318L11.5957 18.4346C11.4492 18.4564 11.303 18.503 11.167 18.5762L6.74414 20.8936C6.61969 20.956 6.47978 20.9771 6.34277 20.9561C6.02521 20.891 5.81326 20.589 5.86133 20.2676L6.75098 15.3477L6.75195 15.3398C6.82654 14.8857 6.7046 14.4247 6.42188 14.0693L6.29102 13.9238L6.28809 13.9209L2.67676 10.4209C2.53428 10.2825 2.47402 10.0844 2.51074 9.89453L2.53223 9.81445L2.5332 9.81055C2.60753 9.59089 2.79665 9.43019 3.02441 9.39355L7.99023 8.67383L7.98926 8.67285C8.46128 8.61843 8.88152 8.3599 9.14258 7.9707L9.24609 7.79395L9.24805 7.78906L11.4326 3.31055C11.4589 3.2601 11.4909 3.21718 11.5254 3.18164L11.5859 3.13477L11.6201 3.10742L11.6494 3.0752C11.6555 3.06847 11.6636 3.06299 11.6719 3.05664L11.7207 3.03906L11.7305 3.03613L11.7393 3.03223L11.8174 3H12.1055Z" stroke="#F2F2F2"/>
</svg>
