<svg width="20" height="20" viewBox="0 0 20 20" fill="none" xmlns="http://www.w3.org/2000/svg">
<path d="M10.1055 1C10.2814 1.02318 10.4367 1.11923 10.5352 1.2627L10.5752 1.3291L12.79 5.78906V5.79004C12.9935 6.20564 13.3642 6.50912 13.8018 6.63184L13.9932 6.67285L13.9971 6.67383L18.9668 7.39453H18.9678C19.2005 7.42778 19.3958 7.58834 19.4746 7.80957C19.5345 7.99769 19.4957 8.20135 19.374 8.35352L19.3164 8.41504L19.3154 8.41699L15.5752 11.957L15.5713 11.9609C15.2411 12.2809 15.0677 12.7252 15.0869 13.1777L15.1064 13.3721L15.1074 13.3789L15.9971 18.2988C16.0321 18.4943 15.9637 18.6918 15.8203 18.8252L15.7549 18.8779L15.7441 18.8867C15.5818 19.0054 15.3709 19.0333 15.1836 18.9648L15.1055 18.9297L15.0996 18.9268L10.6709 16.6162H10.6699C10.4469 16.4984 10.2018 16.4368 9.9541 16.4297L9.94727 16.4287H9.63184L9.5957 16.4346C9.44922 16.4564 9.30298 16.503 9.16699 16.5762L4.74414 18.8936C4.61969 18.956 4.47978 18.9771 4.34277 18.9561C4.02521 18.891 3.81326 18.589 3.86133 18.2676L4.75098 13.3477L4.75195 13.3398C4.82654 12.8857 4.7046 12.4247 4.42188 12.0693L4.29102 11.9238L4.28809 11.9209L0.676758 8.4209C0.534281 8.28249 0.474015 8.08438 0.510742 7.89453L0.532227 7.81445L0.533203 7.81055C0.607531 7.59089 0.796645 7.43019 1.02441 7.39355L5.99023 6.67383L5.98926 6.67285C6.46128 6.61843 6.88152 6.3599 7.14258 5.9707L7.24609 5.79395L7.24805 5.78906L9.43262 1.31055C9.45887 1.2601 9.49085 1.21718 9.52539 1.18164L9.58594 1.13477L9.62012 1.10742L9.64941 1.0752C9.6555 1.06847 9.6636 1.06299 9.67188 1.05664L9.7207 1.03906L9.73047 1.03613L9.73926 1.03223L9.81738 1H10.1055Z" stroke="#F9B401"/>
</svg>
